<?xml version="1.0" encoding="UTF-8" standalone="no"?><svg xmlns="http://www.w3.org/2000/svg" xmlns:xlink="http://www.w3.org/1999/xlink" contentStyleType="text/css" height="477px" preserveAspectRatio="none" style="width:809px;height:477px;background:#FFFFFF;" version="1.1" viewBox="0 0 809 477" width="809px" zoomAndPan="magnify"><defs/><g><rect fill="#FFFFFF" height="249.3281" style="stroke:#181818;stroke-width:1.0;" width="10" x="308" y="156.2734"/><rect fill="#FFFFFF" height="60.7031" style="stroke:#181818;stroke-width:1.0;" width="10" x="576" y="314.5469"/><rect height="122.4063" style="stroke:#000000;stroke-width:1.5;fill:none;" width="360" x="10" y="72.2188"/><line style="stroke:#181818;stroke-width:0.5;fill:none;stroke-dasharray:5.0,5.0;" x1="79" x2="79" y1="55.2188" y2="423.6016"/><line style="stroke:#181818;stroke-width:0.5;fill:none;stroke-dasharray:5.0,5.0;" x1="202" x2="202" y1="55.2188" y2="423.6016"/><line style="stroke:#181818;stroke-width:0.5;fill:none;stroke-dasharray:5.0,5.0;" x1="313" x2="313" y1="55.2188" y2="423.6016"/><line style="stroke:#181818;stroke-width:0.5;fill:none;stroke-dasharray:5.0,5.0;" x1="426" x2="426" y1="55.2188" y2="423.6016"/><line style="stroke:#181818;stroke-width:0.5;fill:none;stroke-dasharray:5.0,5.0;" x1="581" x2="581" y1="272.0859" y2="423.6016"/><line style="stroke:#181818;stroke-width:0.5;fill:none;stroke-dasharray:5.0,5.0;" x1="741" x2="741" y1="55.2188" y2="423.6016"/><rect fill="#E2E2F0" height="49.2188" rx="2.5" ry="2.5" style="stroke:#181818;stroke-width:0.5;" width="119" x="20" y="5"/><text fill="#000000" font-family="sans-serif" font-size="14" font-style="italic" lengthAdjust="spacing" textLength="49" x="55" y="26.5332">«client»</text><text fill="#000000" font-family="sans-serif" font-size="14" lengthAdjust="spacing" textLength="105" x="27" y="44.1426">AGV_DigitalTwin</text><rect fill="#E2E2F0" height="49.2188" rx="2.5" ry="2.5" style="stroke:#181818;stroke-width:0.5;" width="119" x="20" y="422.6016"/><text fill="#000000" font-family="sans-serif" font-size="14" font-style="italic" lengthAdjust="spacing" textLength="49" x="55" y="444.1348">«client»</text><text fill="#000000" font-family="sans-serif" font-size="14" lengthAdjust="spacing" textLength="105" x="27" y="461.7441">AGV_DigitalTwin</text><rect fill="#E2E2F0" height="31.6094" rx="2.5" ry="2.5" style="stroke:#181818;stroke-width:0.5;" width="107" x="149" y="22.6094"/><text fill="#000000" font-family="sans-serif" font-size="14" lengthAdjust="spacing" textLength="93" x="156" y="44.1426">AGV_Manager</text><rect fill="#E2E2F0" height="31.6094" rx="2.5" ry="2.5" style="stroke:#181818;stroke-width:0.5;" width="107" x="149" y="422.6016"/><text fill="#000000" font-family="sans-serif" font-size="14" lengthAdjust="spacing" textLength="93" x="156" y="444.1348">AGV_Manager</text><rect fill="#E2E2F0" height="49.2188" rx="2.5" ry="2.5" style="stroke:#181818;stroke-width:0.5;" width="94" x="266" y="5"/><text fill="#000000" font-family="sans-serif" font-size="14" font-style="italic" lengthAdjust="spacing" textLength="57" x="284.5" y="26.5332">«thread»</text><text fill="#000000" font-family="sans-serif" font-size="14" lengthAdjust="spacing" textLength="80" x="273" y="44.1426">HandleClient</text><rect fill="#E2E2F0" height="49.2188" rx="2.5" ry="2.5" style="stroke:#181818;stroke-width:0.5;" width="94" x="266" y="422.6016"/><text fill="#000000" font-family="sans-serif" font-size="14" font-style="italic" lengthAdjust="spacing" textLength="57" x="284.5" y="444.1348">«thread»</text><text fill="#000000" font-family="sans-serif" font-size="14" lengthAdjust="spacing" textLength="80" x="273" y="461.7441">HandleClient</text><rect fill="#E2E2F0" height="31.6094" rx="2.5" ry="2.5" style="stroke:#181818;stroke-width:0.5;" width="113" x="370" y="22.6094"/><text fill="#000000" font-family="sans-serif" font-size="14" lengthAdjust="spacing" textLength="99" x="377" y="44.1426">MessageParser</text><rect fill="#E2E2F0" height="31.6094" rx="2.5" ry="2.5" style="stroke:#181818;stroke-width:0.5;" width="113" x="370" y="422.6016"/><text fill="#000000" font-family="sans-serif" font-size="14" lengthAdjust="spacing" textLength="99" x="377" y="444.1348">MessageParser</text><rect fill="#E2E2F0" height="49.2188" rx="2.5" ry="2.5" style="stroke:#181818;stroke-width:0.5;" width="176" x="493" y="422.6016"/><text fill="#000000" font-family="sans-serif" font-size="14" font-style="italic" lengthAdjust="spacing" textLength="67" x="547.5" y="444.1348">«abstract»</text><text fill="#000000" font-family="sans-serif" font-size="14" lengthAdjust="spacing" textLength="162" x="500" y="461.7441">MessageProtocolRequest</text><rect fill="#E2E2F0" height="31.6094" rx="2.5" ry="2.5" style="stroke:#181818;stroke-width:0.5;" width="124" x="679" y="22.6094"/><text fill="#000000" font-family="sans-serif" font-size="14" lengthAdjust="spacing" textLength="110" x="686" y="44.1426">MessageRequest</text><rect fill="#E2E2F0" height="31.6094" rx="2.5" ry="2.5" style="stroke:#181818;stroke-width:0.5;" width="124" x="679" y="422.6016"/><text fill="#000000" font-family="sans-serif" font-size="14" lengthAdjust="spacing" textLength="110" x="686" y="444.1348">MessageRequest</text><rect fill="#FFFFFF" height="249.3281" style="stroke:#181818;stroke-width:1.0;" width="10" x="308" y="156.2734"/><rect fill="#FFFFFF" height="60.7031" style="stroke:#181818;stroke-width:1.0;" width="10" x="576" y="314.5469"/><path d="M10,72.2188 L83,72.2188 L83,80.5703 L73,90.5703 L10,90.5703 L10,72.2188 " fill="#EEEEEE" style="stroke:#000000;stroke-width:1.5;"/><rect fill="none" height="122.4063" style="stroke:#000000;stroke-width:1.5;" width="360" x="10" y="72.2188"/><text fill="#000000" font-family="sans-serif" font-size="13" font-weight="bold" lengthAdjust="spacing" textLength="28" x="25" y="86.7139">loop</text><text fill="#000000" font-family="sans-serif" font-size="11" font-weight="bold" lengthAdjust="spacing" textLength="31" x="98" y="85.6377">[true]</text><line style="stroke:#181818;stroke-width:1.0;" x1="202.5" x2="244.5" y1="112.9219" y2="112.9219"/><line style="stroke:#181818;stroke-width:1.0;" x1="244.5" x2="244.5" y1="112.9219" y2="125.9219"/><line style="stroke:#181818;stroke-width:1.0;" x1="203.5" x2="244.5" y1="125.9219" y2="125.9219"/><polygon fill="#181818" points="213.5,121.9219,203.5,125.9219,213.5,129.9219,209.5,125.9219" style="stroke:#181818;stroke-width:1.0;"/><text fill="#000000" font-family="sans-serif" font-size="13" lengthAdjust="spacing" textLength="39" x="209.5" y="108.0654">accept</text><polygon fill="#181818" points="190.5,152.2734,200.5,156.2734,190.5,160.2734,194.5,156.2734" style="stroke:#181818;stroke-width:1.0;"/><line style="stroke:#181818;stroke-width:1.0;stroke-dasharray:2.0,2.0;" x1="79.5" x2="196.5" y1="156.2734" y2="156.2734"/><text fill="#000000" font-family="sans-serif" font-size="13" lengthAdjust="spacing" textLength="43" x="86.5" y="151.417">request</text><polygon fill="#181818" points="296,182.625,306,186.625,296,186.625" style="stroke:#181818;stroke-width:1.0;"/><line style="stroke:#181818;stroke-width:1.0;" x1="202.5" x2="307" y1="186.625" y2="186.625"/><text fill="#000000" font-family="sans-serif" font-size="13" lengthAdjust="spacing" textLength="26" x="209.5" y="181.7686">start</text><polygon fill="#181818" points="414.5,219.9766,424.5,223.9766,414.5,227.9766,418.5,223.9766" style="stroke:#181818;stroke-width:1.0;"/><line style="stroke:#181818;stroke-width:1.0;" x1="318" x2="420.5" y1="223.9766" y2="223.9766"/><text fill="#000000" font-family="sans-serif" font-size="13" lengthAdjust="spacing" textLength="83" x="325" y="219.1201">parse(request)</text><polygon fill="#181818" points="481,250.3281,491,254.3281,481,258.3281,485,254.3281" style="stroke:#181818;stroke-width:1.0;"/><line style="stroke:#181818;stroke-width:1.0;" x1="426.5" x2="487" y1="254.3281" y2="254.3281"/><text fill="#000000" font-family="sans-serif" font-size="13" lengthAdjust="spacing" textLength="23" x="433.5" y="249.4717">new</text><rect fill="#E2E2F0" height="49.2188" rx="2.5" ry="2.5" style="stroke:#181818;stroke-width:0.5;" width="176" x="493" y="231.9766"/><text fill="#000000" font-family="sans-serif" font-size="14" font-style="italic" lengthAdjust="spacing" textLength="67" x="547.5" y="253.5098">«abstract»</text><text fill="#000000" font-family="sans-serif" font-size="14" lengthAdjust="spacing" textLength="162" x="500" y="271.1191">MessageProtocolRequest</text><polygon fill="#181818" points="564,310.5469,574,314.5469,564,318.5469,568,314.5469" style="stroke:#181818;stroke-width:1.0;"/><line style="stroke:#181818;stroke-width:1.0;" x1="318" x2="570" y1="314.5469" y2="314.5469"/><text fill="#000000" font-family="sans-serif" font-size="13" lengthAdjust="spacing" textLength="46" x="325" y="309.6904">execute</text><polygon fill="#181818" points="729,340.8984,739,344.8984,729,348.8984,733,344.8984" style="stroke:#181818;stroke-width:1.0;"/><line style="stroke:#181818;stroke-width:1.0;" x1="586" x2="735" y1="344.8984" y2="344.8984"/><text fill="#000000" font-family="sans-serif" font-size="13" lengthAdjust="spacing" textLength="85" x="593" y="340.042">buildResponse</text><polygon fill="#181818" points="329,371.25,319,375.25,329,379.25,325,375.25" style="stroke:#181818;stroke-width:1.0;"/><line style="stroke:#181818;stroke-width:1.0;stroke-dasharray:2.0,2.0;" x1="323" x2="580" y1="375.25" y2="375.25"/><text fill="#000000" font-family="sans-serif" font-size="13" lengthAdjust="spacing" textLength="53" x="335" y="370.3936">response</text><polygon fill="#181818" points="90.5,401.6016,80.5,405.6016,90.5,409.6016,86.5,405.6016" style="stroke:#181818;stroke-width:1.0;"/><line style="stroke:#181818;stroke-width:1.0;stroke-dasharray:2.0,2.0;" x1="84.5" x2="312" y1="405.6016" y2="405.6016"/><text fill="#000000" font-family="sans-serif" font-size="13" lengthAdjust="spacing" textLength="53" x="96.5" y="400.7451">response</text><!--MD5=[ec93f40454ac09be61721f279e64d98f]
@startuml
participant AGV_DigitalTwin <<client>>

loop true
AGV_Manager -> AGV_Manager: accept

AGV_DigitalTwin - -> AGV_Manager: request

participant HandleClient <<thread>>
activate HandleClient
AGV_Manager -\ HandleClient: start
deactivate AGV_Manager
end

HandleClient -> MessageParser:parse(request)
create MessageProtocolRequest <<abstract>>
MessageParser -> MessageProtocolRequest:new

HandleClient -> MessageProtocolRequest: execute
activate MessageProtocolRequest
MessageProtocolRequest -> MessageRequest:buildResponse
MessageProtocolRequest - -> HandleClient: response
deactivate MessageProtocolRequest

HandleClient - -> AGV_DigitalTwin: response
deactivate HandleClient
@enduml

PlantUML version 1.2022.5(Sat Apr 30 11:55:52 BST 2022)
(GPL source distribution)
Java Runtime: OpenJDK Runtime Environment
JVM: OpenJDK 64-Bit Server VM
Default Encoding: Cp1252
Language: pt
Country: PT
--></g></svg>