<?xml version="1.0" encoding="UTF-8" standalone="no"?><svg xmlns="http://www.w3.org/2000/svg" xmlns:xlink="http://www.w3.org/1999/xlink" contentStyleType="text/css" height="488px" preserveAspectRatio="none" style="width:1067px;height:488px;background:#FFFFFF;" version="1.1" viewBox="0 0 1067 488" width="1067px" zoomAndPan="magnify"><defs/><g><rect fill="#FFFFFF" height="282.1641" style="stroke:#181818;stroke-width:1.0;" width="10" x="305.5" y="114.9609"/><rect fill="#FFFFFF" height="182.1094" style="stroke:#181818;stroke-width:1.0;" width="10" x="499.5" y="206.0156"/><line style="stroke:#181818;stroke-width:0.5;stroke-dasharray:5.0,5.0;" x1="38" x2="38" y1="82.6094" y2="406.125"/><line style="stroke:#181818;stroke-width:0.5;stroke-dasharray:5.0,5.0;" x1="310" x2="310" y1="82.6094" y2="406.125"/><line style="stroke:#181818;stroke-width:0.5;stroke-dasharray:5.0,5.0;" x1="504" x2="504" y1="82.6094" y2="406.125"/><line style="stroke:#181818;stroke-width:0.5;stroke-dasharray:5.0,5.0;" x1="661" x2="661" y1="82.6094" y2="406.125"/><line style="stroke:#181818;stroke-width:0.5;stroke-dasharray:5.0,5.0;" x1="800" x2="800" y1="82.6094" y2="406.125"/><line style="stroke:#181818;stroke-width:0.5;stroke-dasharray:5.0,5.0;" x1="931" x2="931" y1="82.6094" y2="406.125"/><line style="stroke:#181818;stroke-width:0.5;stroke-dasharray:5.0,5.0;" x1="1031" x2="1031" y1="82.6094" y2="406.125"/><text fill="#000000" font-family="sans-serif" font-size="14" lengthAdjust="spacing" textLength="61" x="5" y="79.5332">Customer</text><ellipse cx="38.5" cy="13.5" fill="#E2E2F0" rx="8" ry="8" style="stroke:#181818;stroke-width:0.5;"/><path d="M38.5,21.5 L38.5,48.5 M25.5,29.5 L51.5,29.5 M38.5,48.5 L25.5,63.5 M38.5,48.5 L51.5,63.5 " fill="none" style="stroke:#181818;stroke-width:0.5;"/><text fill="#000000" font-family="sans-serif" font-size="14" lengthAdjust="spacing" textLength="61" x="5" y="419.6582">Customer</text><ellipse cx="38.5" cy="431.2344" fill="#E2E2F0" rx="8" ry="8" style="stroke:#181818;stroke-width:0.5;"/><path d="M38.5,439.2344 L38.5,466.2344 M25.5,447.2344 L51.5,447.2344 M38.5,466.2344 L25.5,481.2344 M38.5,466.2344 L51.5,481.2344 " fill="none" style="stroke:#181818;stroke-width:0.5;"/><rect fill="#E2E2F0" height="31.6094" rx="2.5" ry="2.5" style="stroke:#181818;stroke-width:0.5;" width="161" x="230" y="50"/><text fill="#000000" font-family="sans-serif" font-size="14" lengthAdjust="spacing" textLength="147" x="237" y="71.5332">AnswerQuestionnaireUI</text><rect fill="#E2E2F0" height="31.6094" rx="2.5" ry="2.5" style="stroke:#181818;stroke-width:0.5;" width="161" x="230" y="405.125"/><text fill="#000000" font-family="sans-serif" font-size="14" lengthAdjust="spacing" textLength="147" x="237" y="426.6582">AnswerQuestionnaireUI</text><text fill="#000000" font-family="sans-serif" font-size="14" lengthAdjust="spacing" textLength="151" x="426" y="79.5332">CreateAnswerController</text><ellipse cx="504.5" cy="49" fill="#E2E2F0" rx="12" ry="12" style="stroke:#181818;stroke-width:0.5;"/><polygon fill="#181818" points="500.5,37,506.5,32,504.5,37,506.5,42,500.5,37" style="stroke:#181818;stroke-width:1.0;"/><text fill="#000000" font-family="sans-serif" font-size="14" lengthAdjust="spacing" textLength="151" x="426" y="419.6582">CreateAnswerController</text><ellipse cx="504.5" cy="438.7344" fill="#E2E2F0" rx="12" ry="12" style="stroke:#181818;stroke-width:0.5;"/><polygon fill="#181818" points="500.5,426.7344,506.5,421.7344,504.5,426.7344,506.5,431.7344,500.5,426.7344" style="stroke:#181818;stroke-width:1.0;"/><rect fill="#E2E2F0" height="31.6094" rx="2.5" ry="2.5" style="stroke:#181818;stroke-width:0.5;" width="136" x="593" y="50"/><text fill="#000000" font-family="sans-serif" font-size="14" lengthAdjust="spacing" textLength="122" x="600" y="71.5332">PersistenceContext</text><rect fill="#E2E2F0" height="31.6094" rx="2.5" ry="2.5" style="stroke:#181818;stroke-width:0.5;" width="136" x="593" y="405.125"/><text fill="#000000" font-family="sans-serif" font-size="14" lengthAdjust="spacing" textLength="122" x="600" y="426.6582">PersistenceContext</text><text fill="#000000" font-family="sans-serif" font-size="14" lengthAdjust="spacing" textLength="116" x="739" y="79.5332">RepositoryFactory</text><path d="M782,29 C782,19 800,19 800,19 C800,19 818,19 818,29 L818,55 C818,65 800,65 800,65 C800,65 782,65 782,55 L782,29 " fill="#ADD8E6" style="stroke:#181818;stroke-width:1.5;"/><path d="M782,29 C782,39 800,39 800,39 C800,39 818,39 818,29 " fill="none" style="stroke:#181818;stroke-width:1.5;"/><text fill="#000000" font-family="sans-serif" font-size="14" lengthAdjust="spacing" textLength="116" x="739" y="419.6582">RepositoryFactory</text><path d="M782,432.7344 C782,422.7344 800,422.7344 800,422.7344 C800,422.7344 818,422.7344 818,432.7344 L818,458.7344 C818,468.7344 800,468.7344 800,468.7344 C800,468.7344 782,468.7344 782,458.7344 L782,432.7344 " fill="#ADD8E6" style="stroke:#181818;stroke-width:1.5;"/><path d="M782,432.7344 C782,442.7344 800,442.7344 800,442.7344 C800,442.7344 818,442.7344 818,432.7344 " fill="none" style="stroke:#181818;stroke-width:1.5;"/><text fill="#000000" font-family="sans-serif" font-size="14" lengthAdjust="spacing" textLength="114" x="871" y="79.5332">AnswerRepository</text><path d="M913,29 C913,19 931,19 931,19 C931,19 949,19 949,29 L949,55 C949,65 931,65 931,65 C931,65 913,65 913,55 L913,29 " fill="#ADD8E6" style="stroke:#181818;stroke-width:1.5;"/><path d="M913,29 C913,39 931,39 931,39 C931,39 949,39 949,29 " fill="none" style="stroke:#181818;stroke-width:1.5;"/><text fill="#000000" font-family="sans-serif" font-size="14" lengthAdjust="spacing" textLength="114" x="871" y="419.6582">AnswerRepository</text><path d="M913,432.7344 C913,422.7344 931,422.7344 931,422.7344 C931,422.7344 949,422.7344 949,432.7344 L949,458.7344 C949,468.7344 931,468.7344 931,468.7344 C931,468.7344 913,468.7344 913,458.7344 L913,432.7344 " fill="#ADD8E6" style="stroke:#181818;stroke-width:1.5;"/><path d="M913,432.7344 C913,442.7344 931,442.7344 931,442.7344 C931,442.7344 949,442.7344 949,432.7344 " fill="none" style="stroke:#181818;stroke-width:1.5;"/><rect fill="#E2E2F0" height="31.6094" rx="2.5" ry="2.5" style="stroke:#181818;stroke-width:0.5;" width="60" x="1001" y="50"/><text fill="#000000" font-family="sans-serif" font-size="14" lengthAdjust="spacing" textLength="46" x="1008" y="71.5332">Answer</text><rect fill="#E2E2F0" height="31.6094" rx="2.5" ry="2.5" style="stroke:#181818;stroke-width:0.5;" width="60" x="1001" y="405.125"/><text fill="#000000" font-family="sans-serif" font-size="14" lengthAdjust="spacing" textLength="46" x="1008" y="426.6582">Answer</text><rect fill="#FFFFFF" height="282.1641" style="stroke:#181818;stroke-width:1.0;" width="10" x="305.5" y="114.9609"/><rect fill="#FFFFFF" height="182.1094" style="stroke:#181818;stroke-width:1.0;" width="10" x="499.5" y="206.0156"/><polygon fill="#181818" points="293.5,110.9609,303.5,114.9609,293.5,118.9609,297.5,114.9609" style="stroke:#181818;stroke-width:1.0;"/><line style="stroke:#181818;stroke-width:1.0;" x1="38.5" x2="299.5" y1="114.9609" y2="114.9609"/><text fill="#000000" font-family="sans-serif" font-size="13" lengthAdjust="spacing" textLength="180" x="45.5" y="110.1045">asks to answer a questionnaire</text><polygon fill="#181818" points="49.5,141.3125,39.5,145.3125,49.5,149.3125,45.5,145.3125" style="stroke:#181818;stroke-width:1.0;"/><line style="stroke:#181818;stroke-width:1.0;" x1="43.5" x2="304.5" y1="145.3125" y2="145.3125"/><text fill="#000000" font-family="sans-serif" font-size="13" lengthAdjust="spacing" textLength="243" x="55.5" y="140.4561">asks to type the necessary data(id, etc...)</text><polygon fill="#181818" points="293.5,171.6641,303.5,175.6641,293.5,179.6641,297.5,175.6641" style="stroke:#181818;stroke-width:1.0;"/><line style="stroke:#181818;stroke-width:1.0;" x1="38.5" x2="299.5" y1="175.6641" y2="175.6641"/><text fill="#000000" font-family="sans-serif" font-size="13" lengthAdjust="spacing" textLength="144" x="45.5" y="170.8076">types the requested data</text><polygon fill="#181818" points="487.5,202.0156,497.5,206.0156,487.5,210.0156,491.5,206.0156" style="stroke:#181818;stroke-width:1.0;"/><line style="stroke:#181818;stroke-width:1.0;" x1="315.5" x2="493.5" y1="206.0156" y2="206.0156"/><text fill="#000000" font-family="sans-serif" font-size="13" lengthAdjust="spacing" textLength="44" x="322.5" y="201.1592">create()</text><polygon fill="#181818" points="487.5,232.3672,497.5,236.3672,487.5,240.3672,491.5,236.3672" style="stroke:#181818;stroke-width:1.0;"/><line style="stroke:#181818;stroke-width:1.0;" x1="315.5" x2="493.5" y1="236.3672" y2="236.3672"/><text fill="#000000" font-family="sans-serif" font-size="13" lengthAdjust="spacing" textLength="160" x="322.5" y="231.5107">createNewAnswer(id, etc...)</text><polygon fill="#181818" points="649,262.7188,659,266.7188,649,270.7188,653,266.7188" style="stroke:#181818;stroke-width:1.0;"/><line style="stroke:#181818;stroke-width:1.0;" x1="509.5" x2="655" y1="266.7188" y2="266.7188"/><text fill="#000000" font-family="sans-serif" font-size="13" lengthAdjust="spacing" textLength="75" x="516.5" y="261.8623">repositories()</text><polygon fill="#181818" points="788,293.0703,798,297.0703,788,301.0703,792,297.0703" style="stroke:#181818;stroke-width:1.0;"/><line style="stroke:#181818;stroke-width:1.0;" x1="661" x2="794" y1="297.0703" y2="297.0703"/><text fill="#000000" font-family="sans-serif" font-size="13" lengthAdjust="spacing" textLength="44" x="668" y="292.2139">create()</text><polygon fill="#181818" points="919,323.4219,929,327.4219,919,331.4219,923,327.4219" style="stroke:#181818;stroke-width:1.0;"/><line style="stroke:#181818;stroke-width:1.0;" x1="800" x2="925" y1="327.4219" y2="327.4219"/><text fill="#000000" font-family="sans-serif" font-size="13" lengthAdjust="spacing" textLength="44" x="807" y="322.5654">create()</text><polygon fill="#181818" points="1019,353.7734,1029,357.7734,1019,361.7734,1023,357.7734" style="stroke:#181818;stroke-width:1.0;"/><line style="stroke:#181818;stroke-width:1.0;" x1="509.5" x2="1025" y1="357.7734" y2="357.7734"/><text fill="#000000" font-family="sans-serif" font-size="13" lengthAdjust="spacing" textLength="208" x="516.5" y="352.917">newAnswer = new Answer(id, etc...)</text><polygon fill="#181818" points="919,384.125,929,388.125,919,392.125,923,388.125" style="stroke:#181818;stroke-width:1.0;"/><line style="stroke:#181818;stroke-width:1.0;" x1="504.5" x2="925" y1="388.125" y2="388.125"/><text fill="#000000" font-family="sans-serif" font-size="13" lengthAdjust="spacing" textLength="100" x="511.5" y="383.2686">save(newAnswer)</text><!--MD5=[2b151d764d09c58557e8a34caba5321a]
@startuml
'https://plantuml.com/class-diagram

actor Customer

Customer -> AnswerQuestionnaireUI : asks to answer a questionnaire

activate AnswerQuestionnaireUI
AnswerQuestionnaireUI -> Customer : asks to type the necessary data(id, etc...)

Customer -> AnswerQuestionnaireUI : types the requested data

control CreateAnswerController
AnswerQuestionnaireUI -> CreateAnswerController : create()

activate CreateAnswerController
AnswerQuestionnaireUI -> CreateAnswerController : createNewAnswer(id, etc...)

CreateAnswerController -> PersistenceContext : repositories()

database RepositoryFactory #lightblue
PersistenceContext -> RepositoryFactory : create()

database AnswerRepository #lightblue
RepositoryFactory -> AnswerRepository : create()

CreateAnswerController -> Answer : newAnswer = new Answer(id, etc...)

CreateAnswerController -> AnswerRepository : save(newAnswer)
deactivate CreateAnswerController
@enduml

@startuml

actor Customer

Customer -> AnswerQuestionnaireUI : asks to answer a questionnaire

activate AnswerQuestionnaireUI
AnswerQuestionnaireUI -> Customer : asks to type the necessary data(id, etc...)

Customer -> AnswerQuestionnaireUI : types the requested data

control CreateAnswerController
AnswerQuestionnaireUI -> CreateAnswerController : create()

activate CreateAnswerController
AnswerQuestionnaireUI -> CreateAnswerController : createNewAnswer(id, etc...)

CreateAnswerController -> PersistenceContext : repositories()

database RepositoryFactory #lightblue
PersistenceContext -> RepositoryFactory : create()

database AnswerRepository #lightblue
RepositoryFactory -> AnswerRepository : create()

CreateAnswerController -> Answer : newAnswer = new Answer(id, etc...)

CreateAnswerController -> AnswerRepository : save(newAnswer)
deactivate CreateAnswerController
@enduml

PlantUML version 1.2022.5(Sat Apr 30 11:55:52 BST 2022)
(GPL source distribution)
Java Runtime: OpenJDK Runtime Environment
JVM: OpenJDK 64-Bit Server VM
Default Encoding: Cp1252
Language: en
Country: GB
--></g></svg>