<?xml version="1.0" encoding="UTF-8" standalone="no"?><svg xmlns="http://www.w3.org/2000/svg" xmlns:xlink="http://www.w3.org/1999/xlink" contentStyleType="text/css" height="331px" preserveAspectRatio="none" style="width:449px;height:331px;background:#FFFFFF;" version="1.1" viewBox="0 0 449 331" width="449px" zoomAndPan="magnify"><defs/><g><!--MD5=[48bed2fcf22a05ad494b1935dd5d4642]
class UploadWarehouseFileUI--><g id="elem_UploadWarehouseFileUI"><rect codeLine="3" fill="#F1F1F1" height="65.6094" id="UploadWarehouseFileUI" rx="2.5" ry="2.5" style="stroke:#181818;stroke-width:0.5;" width="184" x="118.5" y="7"/><ellipse cx="133.5" cy="23" fill="#ADD1B2" rx="11" ry="11" style="stroke:#181818;stroke-width:1.0;"/><path d="M135.5,19.5 Q135.7031,19 135.9375,18.75 Q136.1719,18.5 136.4375,18.5 Q136.9063,18.5 137.2031,18.7813 Q137.5,19.0625 137.5,19.7188 L137.5,21.2813 Q137.5,21.9375 137.2188,22.2188 Q136.9375,22.5 136.5,22.5 Q136.1094,22.5 135.8594,22.3281 Q135.6094,22.1563 135.5,21.7031 Q135.4531,21.3906 135.2813,21.2188 Q134.9688,20.8906 134.4063,20.7031 Q133.8438,20.5 133.2813,20.5 Q132.5781,20.5 131.9844,20.7813 Q131.4063,21.0625 130.9531,21.6875 Q130.5,22.3125 130.5,23.1719 L130.5,24.0938 Q130.5,25.125 131.3438,25.8125 Q132.1875,26.5 133.6875,26.5 Q134.5781,26.5 135.2031,26.2969 Q135.5625,26.1875 135.9688,25.8281 Q136.2344,25.625 136.375,25.5625 Q136.5156,25.5 136.6875,25.5 Q137.0156,25.5 137.25,25.7656 Q137.5,26.0156 137.5,26.375 Q137.5,26.7188 137.1563,27.125 Q136.6563,27.7188 135.8594,28.0469 Q134.8125,28.5 133.5313,28.5 Q132.0313,28.5 130.8281,27.9063 Q129.8594,27.4375 129.1719,26.4219 Q128.5,25.4063 128.5,24.2031 L128.5,23.1094 Q128.5,21.8594 129.0938,20.7656 Q129.7031,19.6719 130.75,19.0938 Q131.8125,18.5 133,18.5 Q133.7188,18.5 134.3438,18.75 Q134.9688,19 135.5,19.5 Z " fill="#000000"/><text fill="#000000" font-family="sans-serif" font-size="14" lengthAdjust="spacing" textLength="152" x="147.5" y="28.7285">UploadWarehouseFileUI</text><line style="stroke:#181818;stroke-width:0.5;" x1="119.5" x2="301.5" y1="39" y2="39"/><line style="stroke:#181818;stroke-width:0.5;" x1="119.5" x2="301.5" y1="47" y2="47"/><ellipse cx="129.5" cy="58" fill="#84BE84" rx="3" ry="3" style="stroke:#038048;stroke-width:1.0;"/><text fill="#000000" font-family="sans-serif" font-size="14" lengthAdjust="spacing" textLength="60" x="138.5" y="65.5332">doShow()</text></g><!--MD5=[c14f785e02de9107198a00677a841b02]
class WarehouseController--><g id="elem_WarehouseController"><rect codeLine="7" fill="#F1F1F1" height="65.6094" id="WarehouseController" rx="2.5" ry="2.5" style="stroke:#181818;stroke-width:0.5;" width="297" x="62" y="133"/><ellipse cx="138.75" cy="149" fill="#ADD1B2" rx="11" ry="11" style="stroke:#181818;stroke-width:1.0;"/><path d="M140.75,145.5 Q140.9531,145 141.1875,144.75 Q141.4219,144.5 141.6875,144.5 Q142.1563,144.5 142.4531,144.7813 Q142.75,145.0625 142.75,145.7188 L142.75,147.2813 Q142.75,147.9375 142.4688,148.2188 Q142.1875,148.5 141.75,148.5 Q141.3594,148.5 141.1094,148.3281 Q140.8594,148.1563 140.75,147.7031 Q140.7031,147.3906 140.5313,147.2188 Q140.2188,146.8906 139.6563,146.7031 Q139.0938,146.5 138.5313,146.5 Q137.8281,146.5 137.2344,146.7813 Q136.6563,147.0625 136.2031,147.6875 Q135.75,148.3125 135.75,149.1719 L135.75,150.0938 Q135.75,151.125 136.5938,151.8125 Q137.4375,152.5 138.9375,152.5 Q139.8281,152.5 140.4531,152.2969 Q140.8125,152.1875 141.2188,151.8281 Q141.4844,151.625 141.625,151.5625 Q141.7656,151.5 141.9375,151.5 Q142.2656,151.5 142.5,151.7656 Q142.75,152.0156 142.75,152.375 Q142.75,152.7188 142.4063,153.125 Q141.9063,153.7188 141.1094,154.0469 Q140.0625,154.5 138.7813,154.5 Q137.2813,154.5 136.0781,153.9063 Q135.1094,153.4375 134.4219,152.4219 Q133.75,151.4063 133.75,150.2031 L133.75,149.1094 Q133.75,147.8594 134.3438,146.7656 Q134.9531,145.6719 136,145.0938 Q137.0625,144.5 138.25,144.5 Q138.9688,144.5 139.5938,144.75 Q140.2188,145 140.75,145.5 Z " fill="#000000"/><text fill="#000000" font-family="sans-serif" font-size="14" lengthAdjust="spacing" textLength="135" x="159.25" y="154.7285">WarehouseController</text><line style="stroke:#181818;stroke-width:0.5;" x1="63" x2="358" y1="165" y2="165"/><line style="stroke:#181818;stroke-width:0.5;" x1="63" x2="358" y1="173" y2="173"/><ellipse cx="73" cy="184" fill="#84BE84" rx="3" ry="3" style="stroke:#038048;stroke-width:1.0;"/><text fill="#000000" font-family="sans-serif" font-size="14" lengthAdjust="spacing" textLength="271" x="82" y="191.5332">registerNewWarehouse(length, width etc...)</text></g><!--MD5=[bf4d0c028d0f251e49ce9c9f9f101ed4]
class WarehouseRepository--><g id="elem_WarehouseRepository"><rect codeLine="11" fill="#F1F1F1" height="65.6094" id="WarehouseRepository" rx="2.5" ry="2.5" style="stroke:#181818;stroke-width:0.5;" width="173" x="7" y="259"/><ellipse cx="22" cy="275" fill="#ADD1B2" rx="11" ry="11" style="stroke:#181818;stroke-width:1.0;"/><path d="M24,271.5 Q24.2031,271 24.4375,270.75 Q24.6719,270.5 24.9375,270.5 Q25.4063,270.5 25.7031,270.7813 Q26,271.0625 26,271.7188 L26,273.2813 Q26,273.9375 25.7188,274.2188 Q25.4375,274.5 25,274.5 Q24.6094,274.5 24.3594,274.3281 Q24.1094,274.1563 24,273.7031 Q23.9531,273.3906 23.7813,273.2188 Q23.4688,272.8906 22.9063,272.7031 Q22.3438,272.5 21.7813,272.5 Q21.0781,272.5 20.4844,272.7813 Q19.9063,273.0625 19.4531,273.6875 Q19,274.3125 19,275.1719 L19,276.0938 Q19,277.125 19.8438,277.8125 Q20.6875,278.5 22.1875,278.5 Q23.0781,278.5 23.7031,278.2969 Q24.0625,278.1875 24.4688,277.8281 Q24.7344,277.625 24.875,277.5625 Q25.0156,277.5 25.1875,277.5 Q25.5156,277.5 25.75,277.7656 Q26,278.0156 26,278.375 Q26,278.7188 25.6563,279.125 Q25.1563,279.7188 24.3594,280.0469 Q23.3125,280.5 22.0313,280.5 Q20.5313,280.5 19.3281,279.9063 Q18.3594,279.4375 17.6719,278.4219 Q17,277.4063 17,276.2031 L17,275.1094 Q17,273.8594 17.5938,272.7656 Q18.2031,271.6719 19.25,271.0938 Q20.3125,270.5 21.5,270.5 Q22.2188,270.5 22.8438,270.75 Q23.4688,271 24,271.5 Z " fill="#000000"/><text fill="#000000" font-family="sans-serif" font-size="14" lengthAdjust="spacing" textLength="141" x="36" y="280.7285">WarehouseRepository</text><line style="stroke:#181818;stroke-width:0.5;" x1="8" x2="179" y1="291" y2="291"/><line style="stroke:#181818;stroke-width:0.5;" x1="8" x2="179" y1="299" y2="299"/><ellipse cx="18" cy="310" fill="#84BE84" rx="3" ry="3" style="stroke:#038048;stroke-width:1.0;"/><text fill="#000000" font-family="sans-serif" font-size="14" lengthAdjust="spacing" textLength="146" x="27" y="317.5332">save(newWarehouse) :</text></g><!--MD5=[c5149b4909ffd2688ff51a939867f774]
class Warehouse--><g id="elem_Warehouse"><rect codeLine="15" fill="#F1F1F1" height="65.6094" id="Warehouse" rx="2.5" ry="2.5" style="stroke:#181818;stroke-width:0.5;" width="227" x="215" y="259"/><ellipse cx="287.75" cy="275" fill="#ADD1B2" rx="11" ry="11" style="stroke:#181818;stroke-width:1.0;"/><path d="M289.75,271.5 Q289.9531,271 290.1875,270.75 Q290.4219,270.5 290.6875,270.5 Q291.1563,270.5 291.4531,270.7813 Q291.75,271.0625 291.75,271.7188 L291.75,273.2813 Q291.75,273.9375 291.4688,274.2188 Q291.1875,274.5 290.75,274.5 Q290.3594,274.5 290.1094,274.3281 Q289.8594,274.1563 289.75,273.7031 Q289.7031,273.3906 289.5313,273.2188 Q289.2188,272.8906 288.6563,272.7031 Q288.0938,272.5 287.5313,272.5 Q286.8281,272.5 286.2344,272.7813 Q285.6563,273.0625 285.2031,273.6875 Q284.75,274.3125 284.75,275.1719 L284.75,276.0938 Q284.75,277.125 285.5938,277.8125 Q286.4375,278.5 287.9375,278.5 Q288.8281,278.5 289.4531,278.2969 Q289.8125,278.1875 290.2188,277.8281 Q290.4844,277.625 290.625,277.5625 Q290.7656,277.5 290.9375,277.5 Q291.2656,277.5 291.5,277.7656 Q291.75,278.0156 291.75,278.375 Q291.75,278.7188 291.4063,279.125 Q290.9063,279.7188 290.1094,280.0469 Q289.0625,280.5 287.7813,280.5 Q286.2813,280.5 285.0781,279.9063 Q284.1094,279.4375 283.4219,278.4219 Q282.75,277.4063 282.75,276.2031 L282.75,275.1094 Q282.75,273.8594 283.3438,272.7656 Q283.9531,271.6719 285,271.0938 Q286.0625,270.5 287.25,270.5 Q287.9688,270.5 288.5938,270.75 Q289.2188,271 289.75,271.5 Z " fill="#000000"/><text fill="#000000" font-family="sans-serif" font-size="14" lengthAdjust="spacing" textLength="73" x="308.25" y="280.7285">Warehouse</text><line style="stroke:#181818;stroke-width:0.5;" x1="216" x2="441" y1="291" y2="291"/><line style="stroke:#181818;stroke-width:0.5;" x1="216" x2="441" y1="299" y2="299"/><ellipse cx="226" cy="310" fill="#84BE84" rx="3" ry="3" style="stroke:#038048;stroke-width:1.0;"/><text fill="#000000" font-family="sans-serif" font-size="14" lengthAdjust="spacing" textLength="201" x="235" y="317.5332">Warehouse(length, width, etc...)</text></g><!--MD5=[6631304b76aedb86662c106c7470be29]
link UploadWarehouseFileUI to WarehouseController--><g id="link_UploadWarehouseFileUI_WarehouseController"><path codeLine="19" d="M210.5,73.26 C210.5,89.9 210.5,110.3 210.5,127.63 " fill="none" id="UploadWarehouseFileUI-to-WarehouseController" style="stroke:#181818;stroke-width:1.0;stroke-dasharray:7.0,7.0;"/><polygon fill="#181818" points="210.5,132.91,214.5,123.91,210.5,127.91,206.5,123.91,210.5,132.91" style="stroke:#181818;stroke-width:1.0;"/></g><!--MD5=[e8f4a98f76c1b4bcfbc88d4e734ac388]
link WarehouseController to WarehouseRepository--><g id="link_WarehouseController_WarehouseRepository"><path codeLine="20" d="M180.07,199.26 C163.95,216.33 144.11,237.36 127.49,254.97 " fill="none" id="WarehouseController-to-WarehouseRepository" style="stroke:#181818;stroke-width:1.0;stroke-dasharray:7.0,7.0;"/><polygon fill="#181818" points="123.78,258.91,132.8611,255.0977,127.2068,255.269,127.0355,249.6147,123.78,258.91" style="stroke:#181818;stroke-width:1.0;"/></g><!--MD5=[cb687ce39c8d40f9490a793099138230]
link WarehouseController to Warehouse--><g id="link_WarehouseController_Warehouse"><path codeLine="21" d="M241.2,199.26 C257.45,216.33 277.45,237.36 294.21,254.97 " fill="none" id="WarehouseController-to-Warehouse" style="stroke:#181818;stroke-width:1.0;stroke-dasharray:7.0,7.0;"/><polygon fill="#181818" points="297.96,258.91,294.667,249.628,294.5185,255.2829,288.8636,255.1344,297.96,258.91" style="stroke:#181818;stroke-width:1.0;"/></g><!--MD5=[f62d94deae028c65a714369a8041cf35]
@startuml
'https://plantuml.com/class-diagram

class UploadWarehouseFileUI {
+doShow()
}

class WarehouseController {
+registerNewWarehouse(length, width etc...)
}

class WarehouseRepository {
+save(newWarehouse) :
}

class Warehouse {
+Warehouse(length, width, etc...)
}

UploadWarehouseFileUI ..> WarehouseController
WarehouseController ..> WarehouseRepository
WarehouseController ..> Warehouse
@enduml

@startuml

class UploadWarehouseFileUI {
+doShow()
}

class WarehouseController {
+registerNewWarehouse(length, width etc...)
}

class WarehouseRepository {
+save(newWarehouse) :
}

class Warehouse {
+Warehouse(length, width, etc...)
}

UploadWarehouseFileUI ..> WarehouseController
WarehouseController ..> WarehouseRepository
WarehouseController ..> Warehouse
@enduml

PlantUML version 1.2022.4(Sat Apr 09 14:29:17 BST 2022)
(GPL source distribution)
Java Runtime: OpenJDK Runtime Environment
JVM: OpenJDK 64-Bit Server VM
Default Encoding: Cp1252
Language: pt
Country: PT
--></g></svg>