<?xml version="1.0" encoding="UTF-8" standalone="no"?><svg xmlns="http://www.w3.org/2000/svg" xmlns:xlink="http://www.w3.org/1999/xlink" contentStyleType="text/css" height="488px" preserveAspectRatio="none" style="width:1306px;height:488px;background:#FFFFFF;" version="1.1" viewBox="0 0 1306 488" width="1306px" zoomAndPan="magnify"><defs/><g><rect fill="#FFFFFF" height="282.1641" style="stroke:#181818;stroke-width:1.0;" width="10" x="405.5" y="114.9609"/><rect fill="#FFFFFF" height="182.1094" style="stroke:#181818;stroke-width:1.0;" width="10" x="692.5" y="206.0156"/><line style="stroke:#181818;stroke-width:0.5;stroke-dasharray:5.0,5.0;" x1="75" x2="75" y1="82.6094" y2="406.125"/><line style="stroke:#181818;stroke-width:0.5;stroke-dasharray:5.0,5.0;" x1="410.5" x2="410.5" y1="82.6094" y2="406.125"/><line style="stroke:#181818;stroke-width:0.5;stroke-dasharray:5.0,5.0;" x1="697" x2="697" y1="82.6094" y2="406.125"/><line style="stroke:#181818;stroke-width:0.5;stroke-dasharray:5.0,5.0;" x1="846" x2="846" y1="82.6094" y2="406.125"/><line style="stroke:#181818;stroke-width:0.5;stroke-dasharray:5.0,5.0;" x1="985" x2="985" y1="82.6094" y2="406.125"/><line style="stroke:#181818;stroke-width:0.5;stroke-dasharray:5.0,5.0;" x1="1129" x2="1129" y1="82.6094" y2="406.125"/><line style="stroke:#181818;stroke-width:0.5;stroke-dasharray:5.0,5.0;" x1="1256" x2="1256" y1="82.6094" y2="406.125"/><text fill="#000000" font-family="sans-serif" font-size="14" lengthAdjust="spacing" textLength="135" x="5" y="79.5332">WarehouseEmployee</text><ellipse cx="75.5" cy="13.5" fill="#E2E2F0" rx="8" ry="8" style="stroke:#181818;stroke-width:0.5;"/><path d="M75.5,21.5 L75.5,48.5 M62.5,29.5 L88.5,29.5 M75.5,48.5 L62.5,63.5 M75.5,48.5 L88.5,63.5 " fill="none" style="stroke:#181818;stroke-width:0.5;"/><text fill="#000000" font-family="sans-serif" font-size="14" lengthAdjust="spacing" textLength="135" x="5" y="419.6582">WarehouseEmployee</text><ellipse cx="75.5" cy="431.2344" fill="#E2E2F0" rx="8" ry="8" style="stroke:#181818;stroke-width:0.5;"/><path d="M75.5,439.2344 L75.5,466.2344 M62.5,447.2344 L88.5,447.2344 M75.5,466.2344 L62.5,481.2344 M75.5,466.2344 L88.5,481.2344 " fill="none" style="stroke:#181818;stroke-width:0.5;"/><rect fill="#E2E2F0" height="31.6094" rx="2.5" ry="2.5" style="stroke:#181818;stroke-width:0.5;" width="166" x="327.5" y="50"/><text fill="#000000" font-family="sans-serif" font-size="14" lengthAdjust="spacing" textLength="152" x="334.5" y="71.5332">UploadWarehouseFileUI</text><rect fill="#E2E2F0" height="31.6094" rx="2.5" ry="2.5" style="stroke:#181818;stroke-width:0.5;" width="166" x="327.5" y="405.125"/><text fill="#000000" font-family="sans-serif" font-size="14" lengthAdjust="spacing" textLength="152" x="334.5" y="426.6582">UploadWarehouseFileUI</text><text fill="#000000" font-family="sans-serif" font-size="14" lengthAdjust="spacing" textLength="135" x="627" y="79.5332">WarehouseController</text><ellipse cx="697.5" cy="49" fill="#E2E2F0" rx="12" ry="12" style="stroke:#181818;stroke-width:0.5;"/><polygon fill="#181818" points="693.5,37,699.5,32,697.5,37,699.5,42,693.5,37" style="stroke:#181818;stroke-width:1.0;"/><text fill="#000000" font-family="sans-serif" font-size="14" lengthAdjust="spacing" textLength="135" x="627" y="419.6582">WarehouseController</text><ellipse cx="697.5" cy="438.7344" fill="#E2E2F0" rx="12" ry="12" style="stroke:#181818;stroke-width:0.5;"/><polygon fill="#181818" points="693.5,426.7344,699.5,421.7344,697.5,426.7344,699.5,431.7344,693.5,426.7344" style="stroke:#181818;stroke-width:1.0;"/><rect fill="#E2E2F0" height="31.6094" rx="2.5" ry="2.5" style="stroke:#181818;stroke-width:0.5;" width="136" x="778" y="50"/><text fill="#000000" font-family="sans-serif" font-size="14" lengthAdjust="spacing" textLength="122" x="785" y="71.5332">PersistenceContext</text><rect fill="#E2E2F0" height="31.6094" rx="2.5" ry="2.5" style="stroke:#181818;stroke-width:0.5;" width="136" x="778" y="405.125"/><text fill="#000000" font-family="sans-serif" font-size="14" lengthAdjust="spacing" textLength="122" x="785" y="426.6582">PersistenceContext</text><text fill="#000000" font-family="sans-serif" font-size="14" lengthAdjust="spacing" textLength="116" x="924" y="79.5332">RepositoryFactory</text><path d="M967,29 C967,19 985,19 985,19 C985,19 1003,19 1003,29 L1003,55 C1003,65 985,65 985,65 C985,65 967,65 967,55 L967,29 " fill="#ADD8E6" style="stroke:#181818;stroke-width:1.5;"/><path d="M967,29 C967,39 985,39 985,39 C985,39 1003,39 1003,29 " fill="none" style="stroke:#181818;stroke-width:1.5;"/><text fill="#000000" font-family="sans-serif" font-size="14" lengthAdjust="spacing" textLength="116" x="924" y="419.6582">RepositoryFactory</text><path d="M967,432.7344 C967,422.7344 985,422.7344 985,422.7344 C985,422.7344 1003,422.7344 1003,432.7344 L1003,458.7344 C1003,468.7344 985,468.7344 985,468.7344 C985,468.7344 967,468.7344 967,458.7344 L967,432.7344 " fill="#ADD8E6" style="stroke:#181818;stroke-width:1.5;"/><path d="M967,432.7344 C967,442.7344 985,442.7344 985,442.7344 C985,442.7344 1003,442.7344 1003,432.7344 " fill="none" style="stroke:#181818;stroke-width:1.5;"/><text fill="#000000" font-family="sans-serif" font-size="14" lengthAdjust="spacing" textLength="141" x="1056" y="79.5332">WarehouseRepository</text><path d="M1111.5,29 C1111.5,19 1129.5,19 1129.5,19 C1129.5,19 1147.5,19 1147.5,29 L1147.5,55 C1147.5,65 1129.5,65 1129.5,65 C1129.5,65 1111.5,65 1111.5,55 L1111.5,29 " fill="#ADD8E6" style="stroke:#181818;stroke-width:1.5;"/><path d="M1111.5,29 C1111.5,39 1129.5,39 1129.5,39 C1129.5,39 1147.5,39 1147.5,29 " fill="none" style="stroke:#181818;stroke-width:1.5;"/><text fill="#000000" font-family="sans-serif" font-size="14" lengthAdjust="spacing" textLength="141" x="1056" y="419.6582">WarehouseRepository</text><path d="M1111.5,432.7344 C1111.5,422.7344 1129.5,422.7344 1129.5,422.7344 C1129.5,422.7344 1147.5,422.7344 1147.5,432.7344 L1147.5,458.7344 C1147.5,468.7344 1129.5,468.7344 1129.5,468.7344 C1129.5,468.7344 1111.5,468.7344 1111.5,458.7344 L1111.5,432.7344 " fill="#ADD8E6" style="stroke:#181818;stroke-width:1.5;"/><path d="M1111.5,432.7344 C1111.5,442.7344 1129.5,442.7344 1129.5,442.7344 C1129.5,442.7344 1147.5,442.7344 1147.5,432.7344 " fill="none" style="stroke:#181818;stroke-width:1.5;"/><rect fill="#E2E2F0" height="31.6094" rx="2.5" ry="2.5" style="stroke:#181818;stroke-width:0.5;" width="87" x="1213" y="50"/><text fill="#000000" font-family="sans-serif" font-size="14" lengthAdjust="spacing" textLength="73" x="1220" y="71.5332">Warehouse</text><rect fill="#E2E2F0" height="31.6094" rx="2.5" ry="2.5" style="stroke:#181818;stroke-width:0.5;" width="87" x="1213" y="405.125"/><text fill="#000000" font-family="sans-serif" font-size="14" lengthAdjust="spacing" textLength="73" x="1220" y="426.6582">Warehouse</text><rect fill="#FFFFFF" height="282.1641" style="stroke:#181818;stroke-width:1.0;" width="10" x="405.5" y="114.9609"/><rect fill="#FFFFFF" height="182.1094" style="stroke:#181818;stroke-width:1.0;" width="10" x="692.5" y="206.0156"/><polygon fill="#181818" points="393.5,110.9609,403.5,114.9609,393.5,118.9609,397.5,114.9609" style="stroke:#181818;stroke-width:1.0;"/><line style="stroke:#181818;stroke-width:1.0;" x1="75.5" x2="399.5" y1="114.9609" y2="114.9609"/><text fill="#000000" font-family="sans-serif" font-size="13" lengthAdjust="spacing" textLength="221" x="82.5" y="110.1045">asks to upload a new warehouse plant</text><polygon fill="#181818" points="86.5,141.3125,76.5,145.3125,86.5,149.3125,82.5,145.3125" style="stroke:#181818;stroke-width:1.0;"/><line style="stroke:#181818;stroke-width:1.0;" x1="80.5" x2="404.5" y1="145.3125" y2="145.3125"/><text fill="#000000" font-family="sans-serif" font-size="13" lengthAdjust="spacing" textLength="306" x="92.5" y="140.4561">asks to type the necessary data(length, width, etc...)</text><polygon fill="#181818" points="393.5,171.6641,403.5,175.6641,393.5,179.6641,397.5,175.6641" style="stroke:#181818;stroke-width:1.0;"/><line style="stroke:#181818;stroke-width:1.0;" x1="75.5" x2="399.5" y1="175.6641" y2="175.6641"/><text fill="#000000" font-family="sans-serif" font-size="13" lengthAdjust="spacing" textLength="144" x="82.5" y="170.8076">types the requested data</text><polygon fill="#181818" points="680.5,202.0156,690.5,206.0156,680.5,210.0156,684.5,206.0156" style="stroke:#181818;stroke-width:1.0;"/><line style="stroke:#181818;stroke-width:1.0;" x1="415.5" x2="686.5" y1="206.0156" y2="206.0156"/><text fill="#000000" font-family="sans-serif" font-size="13" lengthAdjust="spacing" textLength="44" x="422.5" y="201.1592">create()</text><polygon fill="#181818" points="680.5,232.3672,690.5,236.3672,680.5,240.3672,684.5,236.3672" style="stroke:#181818;stroke-width:1.0;"/><line style="stroke:#181818;stroke-width:1.0;" x1="415.5" x2="686.5" y1="236.3672" y2="236.3672"/><text fill="#000000" font-family="sans-serif" font-size="13" lengthAdjust="spacing" textLength="253" x="422.5" y="231.5107">registerNewWarehouse(length, width, etc...)</text><polygon fill="#181818" points="834,262.7188,844,266.7188,834,270.7188,838,266.7188" style="stroke:#181818;stroke-width:1.0;"/><line style="stroke:#181818;stroke-width:1.0;" x1="702.5" x2="840" y1="266.7188" y2="266.7188"/><text fill="#000000" font-family="sans-serif" font-size="13" lengthAdjust="spacing" textLength="75" x="709.5" y="261.8623">repositories()</text><polygon fill="#181818" points="973,293.0703,983,297.0703,973,301.0703,977,297.0703" style="stroke:#181818;stroke-width:1.0;"/><line style="stroke:#181818;stroke-width:1.0;" x1="846" x2="979" y1="297.0703" y2="297.0703"/><text fill="#000000" font-family="sans-serif" font-size="13" lengthAdjust="spacing" textLength="44" x="853" y="292.2139">create()</text><polygon fill="#181818" points="1117.5,323.4219,1127.5,327.4219,1117.5,331.4219,1121.5,327.4219" style="stroke:#181818;stroke-width:1.0;"/><line style="stroke:#181818;stroke-width:1.0;" x1="985" x2="1123.5" y1="327.4219" y2="327.4219"/><text fill="#000000" font-family="sans-serif" font-size="13" lengthAdjust="spacing" textLength="44" x="992" y="322.5654">create()</text><polygon fill="#181818" points="1244.5,353.7734,1254.5,357.7734,1244.5,361.7734,1248.5,357.7734" style="stroke:#181818;stroke-width:1.0;"/><line style="stroke:#181818;stroke-width:1.0;" x1="702.5" x2="1250.5" y1="357.7734" y2="357.7734"/><text fill="#000000" font-family="sans-serif" font-size="13" lengthAdjust="spacing" textLength="317" x="709.5" y="352.917">newWarehouse = new Warehouse(length, width, etc...)</text><polygon fill="#181818" points="1117.5,384.125,1127.5,388.125,1117.5,392.125,1121.5,388.125" style="stroke:#181818;stroke-width:1.0;"/><line style="stroke:#181818;stroke-width:1.0;" x1="697.5" x2="1123.5" y1="388.125" y2="388.125"/><text fill="#000000" font-family="sans-serif" font-size="13" lengthAdjust="spacing" textLength="123" x="704.5" y="383.2686">save(newWarehouse)</text><!--MD5=[84b4c59fd27add311929585eee2035fa]
@startuml
'https://plantuml.com/class-diagram

actor WarehouseEmployee

WarehouseEmployee -> UploadWarehouseFileUI : asks to upload a new warehouse plant

activate UploadWarehouseFileUI
UploadWarehouseFileUI -> WarehouseEmployee : asks to type the necessary data(length, width, etc...)

WarehouseEmployee -> UploadWarehouseFileUI : types the requested data

control WarehouseController
UploadWarehouseFileUI -> WarehouseController : create()

activate WarehouseController
UploadWarehouseFileUI -> WarehouseController : registerNewWarehouse(length, width, etc...)

WarehouseController -> PersistenceContext : repositories()

database RepositoryFactory #lightblue
PersistenceContext -> RepositoryFactory : create()

database WarehouseRepository #lightblue
RepositoryFactory -> WarehouseRepository : create()

WarehouseController -> Warehouse : newWarehouse = new Warehouse(length, width, etc...)

WarehouseController -> WarehouseRepository : save(newWarehouse)
deactivate WarehouseController
@enduml

@startuml

actor WarehouseEmployee

WarehouseEmployee -> UploadWarehouseFileUI : asks to upload a new warehouse plant

activate UploadWarehouseFileUI
UploadWarehouseFileUI -> WarehouseEmployee : asks to type the necessary data(length, width, etc...)

WarehouseEmployee -> UploadWarehouseFileUI : types the requested data

control WarehouseController
UploadWarehouseFileUI -> WarehouseController : create()

activate WarehouseController
UploadWarehouseFileUI -> WarehouseController : registerNewWarehouse(length, width, etc...)

WarehouseController -> PersistenceContext : repositories()

database RepositoryFactory #lightblue
PersistenceContext -> RepositoryFactory : create()

database WarehouseRepository #lightblue
RepositoryFactory -> WarehouseRepository : create()

WarehouseController -> Warehouse : newWarehouse = new Warehouse(length, width, etc...)

WarehouseController -> WarehouseRepository : save(newWarehouse)
deactivate WarehouseController
@enduml

PlantUML version 1.2022.4(Sat Apr 09 14:29:17 BST 2022)
(GPL source distribution)
Java Runtime: OpenJDK Runtime Environment
JVM: OpenJDK 64-Bit Server VM
Default Encoding: Cp1252
Language: pt
Country: PT
--></g></svg>