<?xml version="1.0" encoding="UTF-8" standalone="no"?><svg xmlns="http://www.w3.org/2000/svg" xmlns:xlink="http://www.w3.org/1999/xlink" contentStyleType="text/css" height="331px" preserveAspectRatio="none" style="width:245px;height:331px;background:#FFFFFF;" version="1.1" viewBox="0 0 245 331" width="245px" zoomAndPan="magnify"><defs/><g><!--MD5=[61d919aa91cd8dde0d26e62e960d0348]
class CreateReportUI--><g id="elem_CreateReportUI"><rect codeLine="3" fill="#F1F1F1" height="65.6094" id="CreateReportUI" rx="2.5" ry="2.5" style="stroke:#181818;stroke-width:0.5;" width="130" x="57.5" y="7"/><ellipse cx="72.5" cy="23" fill="#ADD1B2" rx="11" ry="11" style="stroke:#181818;stroke-width:1.0;"/><path d="M74.5,19.5 Q74.7031,19 74.9375,18.75 Q75.1719,18.5 75.4375,18.5 Q75.9063,18.5 76.2031,18.7813 Q76.5,19.0625 76.5,19.7188 L76.5,21.2813 Q76.5,21.9375 76.2188,22.2188 Q75.9375,22.5 75.5,22.5 Q75.1094,22.5 74.8594,22.3281 Q74.6094,22.1563 74.5,21.7031 Q74.4531,21.3906 74.2813,21.2188 Q73.9688,20.8906 73.4063,20.7031 Q72.8438,20.5 72.2813,20.5 Q71.5781,20.5 70.9844,20.7813 Q70.4063,21.0625 69.9531,21.6875 Q69.5,22.3125 69.5,23.1719 L69.5,24.0938 Q69.5,25.125 70.3438,25.8125 Q71.1875,26.5 72.6875,26.5 Q73.5781,26.5 74.2031,26.2969 Q74.5625,26.1875 74.9688,25.8281 Q75.2344,25.625 75.375,25.5625 Q75.5156,25.5 75.6875,25.5 Q76.0156,25.5 76.25,25.7656 Q76.5,26.0156 76.5,26.375 Q76.5,26.7188 76.1563,27.125 Q75.6563,27.7188 74.8594,28.0469 Q73.8125,28.5 72.5313,28.5 Q71.0313,28.5 69.8281,27.9063 Q68.8594,27.4375 68.1719,26.4219 Q67.5,25.4063 67.5,24.2031 L67.5,23.1094 Q67.5,21.8594 68.0938,20.7656 Q68.7031,19.6719 69.75,19.0938 Q70.8125,18.5 72,18.5 Q72.7188,18.5 73.3438,18.75 Q73.9688,19 74.5,19.5 Z " fill="#000000"/><text fill="#000000" font-family="sans-serif" font-size="14" lengthAdjust="spacing" textLength="98" x="86.5" y="28.7285">CreateReportUI</text><line style="stroke:#181818;stroke-width:0.5;" x1="58.5" x2="186.5" y1="39" y2="39"/><line style="stroke:#181818;stroke-width:0.5;" x1="58.5" x2="186.5" y1="47" y2="47"/><ellipse cx="68.5" cy="58" fill="#84BE84" rx="3" ry="3" style="stroke:#038048;stroke-width:1.0;"/><text fill="#000000" font-family="sans-serif" font-size="14" lengthAdjust="spacing" textLength="60" x="77.5" y="65.5332">doShow()</text></g><!--MD5=[435d59c09609fcea3345bfa2ae3de6e0]
class CreateReportController--><g id="elem_CreateReportController"><rect codeLine="7" fill="#F1F1F1" height="65.6094" id="CreateReportController" rx="2.5" ry="2.5" style="stroke:#181818;stroke-width:0.5;" width="231" x="7" y="133"/><ellipse cx="44.95" cy="149" fill="#ADD1B2" rx="11" ry="11" style="stroke:#181818;stroke-width:1.0;"/><path d="M46.95,145.5 Q47.1531,145 47.3875,144.75 Q47.6219,144.5 47.8875,144.5 Q48.3563,144.5 48.6531,144.7813 Q48.95,145.0625 48.95,145.7188 L48.95,147.2813 Q48.95,147.9375 48.6688,148.2188 Q48.3875,148.5 47.95,148.5 Q47.5594,148.5 47.3094,148.3281 Q47.0594,148.1563 46.95,147.7031 Q46.9031,147.3906 46.7313,147.2188 Q46.4188,146.8906 45.8563,146.7031 Q45.2938,146.5 44.7313,146.5 Q44.0281,146.5 43.4344,146.7813 Q42.8563,147.0625 42.4031,147.6875 Q41.95,148.3125 41.95,149.1719 L41.95,150.0938 Q41.95,151.125 42.7938,151.8125 Q43.6375,152.5 45.1375,152.5 Q46.0281,152.5 46.6531,152.2969 Q47.0125,152.1875 47.4188,151.8281 Q47.6844,151.625 47.825,151.5625 Q47.9656,151.5 48.1375,151.5 Q48.4656,151.5 48.7,151.7656 Q48.95,152.0156 48.95,152.375 Q48.95,152.7188 48.6063,153.125 Q48.1063,153.7188 47.3094,154.0469 Q46.2625,154.5 44.9813,154.5 Q43.4813,154.5 42.2781,153.9063 Q41.3094,153.4375 40.6219,152.4219 Q39.95,151.4063 39.95,150.2031 L39.95,149.1094 Q39.95,147.8594 40.5438,146.7656 Q41.1531,145.6719 42.2,145.0938 Q43.2625,144.5 44.45,144.5 Q45.1688,144.5 45.7938,144.75 Q46.4188,145 46.95,145.5 Z " fill="#000000"/><text fill="#000000" font-family="sans-serif" font-size="14" lengthAdjust="spacing" textLength="148" x="64.05" y="154.7285">CreateReportController</text><line style="stroke:#181818;stroke-width:0.5;" x1="8" x2="237" y1="165" y2="165"/><line style="stroke:#181818;stroke-width:0.5;" x1="8" x2="237" y1="173" y2="173"/><ellipse cx="18" cy="184" fill="#84BE84" rx="3" ry="3" style="stroke:#038048;stroke-width:1.0;"/><text fill="#000000" font-family="sans-serif" font-size="14" lengthAdjust="spacing" textLength="205" x="27" y="191.5332">createNewReport(questionnaire)</text></g><!--MD5=[5a3b85c54cc1c79904e0b827443986bf]
class Questionnaire--><g id="elem_Questionnaire"><rect codeLine="11" fill="#F1F1F1" height="65.6094" id="Questionnaire" rx="2.5" ry="2.5" style="stroke:#181818;stroke-width:0.5;" width="205" x="20" y="259"/><ellipse cx="73.75" cy="275" fill="#ADD1B2" rx="11" ry="11" style="stroke:#181818;stroke-width:1.0;"/><path d="M75.75,271.5 Q75.9531,271 76.1875,270.75 Q76.4219,270.5 76.6875,270.5 Q77.1563,270.5 77.4531,270.7813 Q77.75,271.0625 77.75,271.7188 L77.75,273.2813 Q77.75,273.9375 77.4688,274.2188 Q77.1875,274.5 76.75,274.5 Q76.3594,274.5 76.1094,274.3281 Q75.8594,274.1563 75.75,273.7031 Q75.7031,273.3906 75.5313,273.2188 Q75.2188,272.8906 74.6563,272.7031 Q74.0938,272.5 73.5313,272.5 Q72.8281,272.5 72.2344,272.7813 Q71.6563,273.0625 71.2031,273.6875 Q70.75,274.3125 70.75,275.1719 L70.75,276.0938 Q70.75,277.125 71.5938,277.8125 Q72.4375,278.5 73.9375,278.5 Q74.8281,278.5 75.4531,278.2969 Q75.8125,278.1875 76.2188,277.8281 Q76.4844,277.625 76.625,277.5625 Q76.7656,277.5 76.9375,277.5 Q77.2656,277.5 77.5,277.7656 Q77.75,278.0156 77.75,278.375 Q77.75,278.7188 77.4063,279.125 Q76.9063,279.7188 76.1094,280.0469 Q75.0625,280.5 73.7813,280.5 Q72.2813,280.5 71.0781,279.9063 Q70.1094,279.4375 69.4219,278.4219 Q68.75,277.4063 68.75,276.2031 L68.75,275.1094 Q68.75,273.8594 69.3438,272.7656 Q69.9531,271.6719 71,271.0938 Q72.0625,270.5 73.25,270.5 Q73.9688,270.5 74.5938,270.75 Q75.2188,271 75.75,271.5 Z " fill="#000000"/><text fill="#000000" font-family="sans-serif" font-size="14" lengthAdjust="spacing" textLength="89" x="94.25" y="280.7285">Questionnaire</text><line style="stroke:#181818;stroke-width:0.5;" x1="21" x2="224" y1="291" y2="291"/><line style="stroke:#181818;stroke-width:0.5;" x1="21" x2="224" y1="299" y2="299"/><ellipse cx="31" cy="310" fill="#84BE84" rx="3" ry="3" style="stroke:#038048;stroke-width:1.0;"/><text fill="#000000" font-family="sans-serif" font-size="14" lengthAdjust="spacing" textLength="179" x="40" y="317.5332">Questionnaire(id, title, etc...)</text></g><!--MD5=[1d70569218baf2d503ca66c6410bd51d]
link CreateReportUI to CreateReportController--><g id="link_CreateReportUI_CreateReportController"><path codeLine="15" d="M122.5,73.26 C122.5,89.9 122.5,110.3 122.5,127.63 " fill="none" id="CreateReportUI-to-CreateReportController" style="stroke:#181818;stroke-width:1.0;stroke-dasharray:7.0,7.0;"/><polygon fill="#181818" points="122.5,132.91,126.5,123.91,122.5,127.91,118.5,123.91,122.5,132.91" style="stroke:#181818;stroke-width:1.0;"/></g><!--MD5=[78351bb57f77e62eaa057e9fc80ca573]
link CreateReportController to Questionnaire--><g id="link_CreateReportController_Questionnaire"><path codeLine="16" d="M122.5,199.26 C122.5,215.9 122.5,236.3 122.5,253.63 " fill="none" id="CreateReportController-to-Questionnaire" style="stroke:#181818;stroke-width:1.0;stroke-dasharray:7.0,7.0;"/><polygon fill="#181818" points="122.5,258.91,126.5,249.91,122.5,253.91,118.5,249.91,122.5,258.91" style="stroke:#181818;stroke-width:1.0;"/></g><!--MD5=[3f4d2cca4da917e65ede29cbf85d5aaf]
@startuml
'https://plantuml.com/class-diagram

class CreateReportUI {
+doShow()
}

class CreateReportController {
+createNewReport(questionnaire)
}

class Questionnaire {
+Questionnaire(id, title, etc...)
}

CreateReportUI ..> CreateReportController
CreateReportController ..> Questionnaire
@enduml

@startuml

class CreateReportUI {
+doShow()
}

class CreateReportController {
+createNewReport(questionnaire)
}

class Questionnaire {
+Questionnaire(id, title, etc...)
}

CreateReportUI ..> CreateReportController
CreateReportController ..> Questionnaire
@enduml

PlantUML version 1.2022.5(Sat Apr 30 11:55:52 BST 2022)
(GPL source distribution)
Java Runtime: OpenJDK Runtime Environment
JVM: OpenJDK 64-Bit Server VM
Default Encoding: Cp1252
Language: en
Country: GB
--></g></svg>