<?xml version="1.0" encoding="UTF-8" standalone="no"?><svg xmlns="http://www.w3.org/2000/svg" xmlns:xlink="http://www.w3.org/1999/xlink" contentStyleType="text/css" height="366px" preserveAspectRatio="none" style="width:909px;height:366px;background:#FFFFFF;" version="1.1" viewBox="0 0 909 366" width="909px" zoomAndPan="magnify"><defs/><g><rect fill="#FFFFFF" height="160.7578" style="stroke:#181818;stroke-width:1.0;" width="10" x="349.5" y="114.9609"/><rect fill="#FFFFFF" height="60.7031" style="stroke:#181818;stroke-width:1.0;" width="10" x="567.5" y="206.0156"/><line style="stroke:#181818;stroke-width:0.5;stroke-dasharray:5.0,5.0;" x1="53" x2="53" y1="82.6094" y2="284.7188"/><line style="stroke:#181818;stroke-width:0.5;stroke-dasharray:5.0,5.0;" x1="354.5" x2="354.5" y1="82.6094" y2="284.7188"/><line style="stroke:#181818;stroke-width:0.5;stroke-dasharray:5.0,5.0;" x1="572.5" x2="572.5" y1="82.6094" y2="284.7188"/><line style="stroke:#181818;stroke-width:0.5;stroke-dasharray:5.0,5.0;" x1="851" x2="851" y1="82.6094" y2="284.7188"/><text fill="#000000" font-family="sans-serif" font-size="14" lengthAdjust="spacing" textLength="91" x="5" y="79.5332">SalesManager</text><ellipse cx="53.5" cy="13.5" fill="#E2E2F0" rx="8" ry="8" style="stroke:#181818;stroke-width:0.5;"/><path d="M53.5,21.5 L53.5,48.5 M40.5,29.5 L66.5,29.5 M53.5,48.5 L40.5,63.5 M53.5,48.5 L66.5,63.5 " fill="none" style="stroke:#181818;stroke-width:0.5;"/><text fill="#000000" font-family="sans-serif" font-size="14" lengthAdjust="spacing" textLength="91" x="5" y="298.252">SalesManager</text><ellipse cx="53.5" cy="309.8281" fill="#E2E2F0" rx="8" ry="8" style="stroke:#181818;stroke-width:0.5;"/><path d="M53.5,317.8281 L53.5,344.8281 M40.5,325.8281 L66.5,325.8281 M53.5,344.8281 L40.5,359.8281 M53.5,344.8281 L66.5,359.8281 " fill="none" style="stroke:#181818;stroke-width:0.5;"/><rect fill="#E2E2F0" height="31.6094" rx="2.5" ry="2.5" style="stroke:#181818;stroke-width:0.5;" width="112" x="298.5" y="50"/><text fill="#000000" font-family="sans-serif" font-size="14" lengthAdjust="spacing" textLength="98" x="305.5" y="71.5332">CreateReportUI</text><rect fill="#E2E2F0" height="31.6094" rx="2.5" ry="2.5" style="stroke:#181818;stroke-width:0.5;" width="112" x="298.5" y="283.7188"/><text fill="#000000" font-family="sans-serif" font-size="14" lengthAdjust="spacing" textLength="98" x="305.5" y="305.252">CreateReportUI</text><text fill="#000000" font-family="sans-serif" font-size="14" lengthAdjust="spacing" textLength="148" x="495.5" y="79.5332">CreateReportController</text><ellipse cx="572.5" cy="49" fill="#E2E2F0" rx="12" ry="12" style="stroke:#181818;stroke-width:0.5;"/><polygon fill="#181818" points="568.5,37,574.5,32,572.5,37,574.5,42,568.5,37" style="stroke:#181818;stroke-width:1.0;"/><text fill="#000000" font-family="sans-serif" font-size="14" lengthAdjust="spacing" textLength="148" x="495.5" y="298.252">CreateReportController</text><ellipse cx="572.5" cy="317.3281" fill="#E2E2F0" rx="12" ry="12" style="stroke:#181818;stroke-width:0.5;"/><polygon fill="#181818" points="568.5,305.3281,574.5,300.3281,572.5,305.3281,574.5,310.3281,568.5,305.3281" style="stroke:#181818;stroke-width:1.0;"/><rect fill="#E2E2F0" height="31.6094" rx="2.5" ry="2.5" style="stroke:#181818;stroke-width:0.5;" width="103" x="800" y="50"/><text fill="#000000" font-family="sans-serif" font-size="14" lengthAdjust="spacing" textLength="89" x="807" y="71.5332">Questionnaire</text><rect fill="#E2E2F0" height="31.6094" rx="2.5" ry="2.5" style="stroke:#181818;stroke-width:0.5;" width="103" x="800" y="283.7188"/><text fill="#000000" font-family="sans-serif" font-size="14" lengthAdjust="spacing" textLength="89" x="807" y="305.252">Questionnaire</text><rect fill="#FFFFFF" height="160.7578" style="stroke:#181818;stroke-width:1.0;" width="10" x="349.5" y="114.9609"/><rect fill="#FFFFFF" height="60.7031" style="stroke:#181818;stroke-width:1.0;" width="10" x="567.5" y="206.0156"/><polygon fill="#181818" points="337.5,110.9609,347.5,114.9609,337.5,118.9609,341.5,114.9609" style="stroke:#181818;stroke-width:1.0;"/><line style="stroke:#181818;stroke-width:1.0;" x1="53.5" x2="343.5" y1="114.9609" y2="114.9609"/><text fill="#000000" font-family="sans-serif" font-size="13" lengthAdjust="spacing" textLength="158" x="60.5" y="110.1045">asks to create a new report</text><polygon fill="#181818" points="64.5,141.3125,54.5,145.3125,64.5,149.3125,60.5,145.3125" style="stroke:#181818;stroke-width:1.0;"/><line style="stroke:#181818;stroke-width:1.0;" x1="58.5" x2="348.5" y1="145.3125" y2="145.3125"/><text fill="#000000" font-family="sans-serif" font-size="13" lengthAdjust="spacing" textLength="272" x="70.5" y="140.4561">asks to type the necessary data(questionnaire)</text><polygon fill="#181818" points="337.5,171.6641,347.5,175.6641,337.5,179.6641,341.5,175.6641" style="stroke:#181818;stroke-width:1.0;"/><line style="stroke:#181818;stroke-width:1.0;" x1="53.5" x2="343.5" y1="175.6641" y2="175.6641"/><text fill="#000000" font-family="sans-serif" font-size="13" lengthAdjust="spacing" textLength="144" x="60.5" y="170.8076">types the requested data</text><polygon fill="#181818" points="555.5,202.0156,565.5,206.0156,555.5,210.0156,559.5,206.0156" style="stroke:#181818;stroke-width:1.0;"/><line style="stroke:#181818;stroke-width:1.0;" x1="359.5" x2="561.5" y1="206.0156" y2="206.0156"/><text fill="#000000" font-family="sans-serif" font-size="13" lengthAdjust="spacing" textLength="44" x="366.5" y="201.1592">create()</text><polygon fill="#181818" points="555.5,232.3672,565.5,236.3672,555.5,240.3672,559.5,236.3672" style="stroke:#181818;stroke-width:1.0;"/><line style="stroke:#181818;stroke-width:1.0;" x1="359.5" x2="561.5" y1="236.3672" y2="236.3672"/><text fill="#000000" font-family="sans-serif" font-size="13" lengthAdjust="spacing" textLength="184" x="366.5" y="231.5107">createNewReport(questionnaire)</text><polygon fill="#181818" points="839.5,262.7188,849.5,266.7188,839.5,270.7188,843.5,266.7188" style="stroke:#181818;stroke-width:1.0;"/><line style="stroke:#181818;stroke-width:1.0;" x1="572.5" x2="845.5" y1="266.7188" y2="266.7188"/><text fill="#000000" font-family="sans-serif" font-size="13" lengthAdjust="spacing" textLength="250" x="579.5" y="261.8623">newReport = new newReport(questionnaire)</text><!--MD5=[87a6cffc472055c513685c8f6d21acac]
@startuml
'https://plantuml.com/class-diagram

actor SalesManager

SalesManager -> CreateReportUI : asks to create a new report

activate CreateReportUI
CreateReportUI -> SalesManager : asks to type the necessary data(questionnaire)

SalesManager -> CreateReportUI : types the requested data

control CreateReportController
CreateReportUI -> CreateReportController : create()

activate CreateReportController
CreateReportUI -> CreateReportController : createNewReport(questionnaire)

CreateReportController -> Questionnaire : newReport = new newReport(questionnaire)
deactivate CreateReportController
@enduml

@startuml

actor SalesManager

SalesManager -> CreateReportUI : asks to create a new report

activate CreateReportUI
CreateReportUI -> SalesManager : asks to type the necessary data(questionnaire)

SalesManager -> CreateReportUI : types the requested data

control CreateReportController
CreateReportUI -> CreateReportController : create()

activate CreateReportController
CreateReportUI -> CreateReportController : createNewReport(questionnaire)

CreateReportController -> Questionnaire : newReport = new newReport(questionnaire)
deactivate CreateReportController
@enduml

PlantUML version 1.2022.5(Sat Apr 30 11:55:52 BST 2022)
(GPL source distribution)
Java Runtime: OpenJDK Runtime Environment
JVM: OpenJDK 64-Bit Server VM
Default Encoding: Cp1252
Language: en
Country: GB
--></g></svg>