<?xml version="1.0" encoding="UTF-8" standalone="no"?><svg xmlns="http://www.w3.org/2000/svg" xmlns:xlink="http://www.w3.org/1999/xlink" contentScriptType="application/ecmascript" contentStyleType="text/css" height="326px" preserveAspectRatio="none" style="width:418px;height:326px;background:#FFFFFF;" version="1.1" viewBox="0 0 418 326" width="418px" zoomAndPan="magnify"><defs><filter height="300%" id="f1iclkscb8jnds" width="300%" x="-1" y="-1"><feGaussianBlur result="blurOut" stdDeviation="2.0"/><feColorMatrix in="blurOut" result="blurOut2" type="matrix" values="0 0 0 0 0 0 0 0 0 0 0 0 0 0 0 0 0 0 .4 0"/><feOffset dx="4.0" dy="4.0" in="blurOut2" result="blurOut3"/><feBlend in="SourceGraphic" in2="blurOut3" mode="normal"/></filter></defs><g><!--MD5=[6da3ee1a450180cf948252897b0c67ba]
class RegisterCustomerUI--><rect codeLine="3" fill="#FEFECE" filter="url(#f1iclkscb8jnds)" height="61.8359" id="RegisterCustomerUI" style="stroke:#A80036;stroke-width:1.5;" width="146" x="115" y="7"/><ellipse cx="130" cy="23" fill="#ADD1B2" rx="11" ry="11" style="stroke:#A80036;stroke-width:1.0;"/><path d="M132,19.5 Q132.2031,19 132.4375,18.75 Q132.6719,18.5 132.9375,18.5 Q133.4063,18.5 133.7031,18.7813 Q134,19.0625 134,19.7188 L134,21.2813 Q134,21.9375 133.7188,22.2188 Q133.4375,22.5 133,22.5 Q132.6094,22.5 132.3594,22.3281 Q132.1094,22.1563 132,21.7031 Q131.9531,21.3906 131.7813,21.2188 Q131.4688,20.8906 130.9063,20.7031 Q130.3438,20.5 129.7813,20.5 Q129.0781,20.5 128.4844,20.7813 Q127.9063,21.0625 127.4531,21.6875 Q127,22.3125 127,23.1719 L127,24.0938 Q127,25.125 127.8438,25.8125 Q128.6875,26.5 130.1875,26.5 Q131.0781,26.5 131.7031,26.2969 Q132.0625,26.1875 132.4688,25.8281 Q132.7344,25.625 132.875,25.5625 Q133.0156,25.5 133.1875,25.5 Q133.5156,25.5 133.75,25.7656 Q134,26.0156 134,26.375 Q134,26.7188 133.6563,27.125 Q133.1563,27.7188 132.3594,28.0469 Q131.3125,28.5 130.0313,28.5 Q128.5313,28.5 127.3281,27.9063 Q126.3594,27.4375 125.6719,26.4219 Q125,25.4063 125,24.2031 L125,23.1094 Q125,21.8594 125.5938,20.7656 Q126.2031,19.6719 127.25,19.0938 Q128.3125,18.5 129.5,18.5 Q130.2188,18.5 130.8438,18.75 Q131.4688,19 132,19.5 Z " fill="#000000"/><text fill="#000000" font-family="sans-serif" font-size="12" lengthAdjust="spacing" textLength="114" x="144" y="27.9102">RegisterCustomerUI</text><line style="stroke:#A80036;stroke-width:1.5;" x1="116" x2="260" y1="39" y2="39"/><line style="stroke:#A80036;stroke-width:1.5;" x1="116" x2="260" y1="47" y2="47"/><ellipse cx="126" cy="58" fill="#84BE84" rx="3" ry="3" style="stroke:#038048;stroke-width:1.0;"/><text fill="#000000" font-family="sans-serif" font-size="11" lengthAdjust="spacing" textLength="49" x="135" y="62.4189">doShow()</text><!--MD5=[292e49acba7fe27a55ea2af1822ad667]
class RegisterCustomerController--><rect codeLine="7" fill="#FEFECE" filter="url(#f1iclkscb8jnds)" height="61.8359" id="RegisterCustomerController" style="stroke:#A80036;stroke-width:1.5;" width="276" x="50" y="129"/><ellipse cx="105.75" cy="145" fill="#ADD1B2" rx="11" ry="11" style="stroke:#A80036;stroke-width:1.0;"/><path d="M107.75,141.5 Q107.9531,141 108.1875,140.75 Q108.4219,140.5 108.6875,140.5 Q109.1563,140.5 109.4531,140.7813 Q109.75,141.0625 109.75,141.7188 L109.75,143.2813 Q109.75,143.9375 109.4688,144.2188 Q109.1875,144.5 108.75,144.5 Q108.3594,144.5 108.1094,144.3281 Q107.8594,144.1563 107.75,143.7031 Q107.7031,143.3906 107.5313,143.2188 Q107.2188,142.8906 106.6563,142.7031 Q106.0938,142.5 105.5313,142.5 Q104.8281,142.5 104.2344,142.7813 Q103.6563,143.0625 103.2031,143.6875 Q102.75,144.3125 102.75,145.1719 L102.75,146.0938 Q102.75,147.125 103.5938,147.8125 Q104.4375,148.5 105.9375,148.5 Q106.8281,148.5 107.4531,148.2969 Q107.8125,148.1875 108.2188,147.8281 Q108.4844,147.625 108.625,147.5625 Q108.7656,147.5 108.9375,147.5 Q109.2656,147.5 109.5,147.7656 Q109.75,148.0156 109.75,148.375 Q109.75,148.7188 109.4063,149.125 Q108.9063,149.7188 108.1094,150.0469 Q107.0625,150.5 105.7813,150.5 Q104.2813,150.5 103.0781,149.9063 Q102.1094,149.4375 101.4219,148.4219 Q100.75,147.4063 100.75,146.2031 L100.75,145.1094 Q100.75,143.8594 101.3438,142.7656 Q101.9531,141.6719 103,141.0938 Q104.0625,140.5 105.25,140.5 Q105.9688,140.5 106.5938,140.75 Q107.2188,141 107.75,141.5 Z " fill="#000000"/><text fill="#000000" font-family="sans-serif" font-size="12" lengthAdjust="spacing" textLength="156" x="126.25" y="149.9102">RegisterCustomerController</text><line style="stroke:#A80036;stroke-width:1.5;" x1="51" x2="325" y1="161" y2="161"/><line style="stroke:#A80036;stroke-width:1.5;" x1="51" x2="325" y1="169" y2="169"/><ellipse cx="61" cy="180" fill="#84BE84" rx="3" ry="3" style="stroke:#038048;stroke-width:1.0;"/><text fill="#000000" font-family="sans-serif" font-size="11" lengthAdjust="spacing" textLength="250" x="70" y="184.4189">registerNewCustomer(first_name, last_name, etc...)</text><!--MD5=[e69d6994dde37a3d0167e5476c791457]
class CustomerRepository--><rect codeLine="11" fill="#FEFECE" filter="url(#f1iclkscb8jnds)" height="61.8359" id="CustomerRepository" style="stroke:#A80036;stroke-width:1.5;" width="146" x="7" y="251"/><ellipse cx="22" cy="267" fill="#ADD1B2" rx="11" ry="11" style="stroke:#A80036;stroke-width:1.0;"/><path d="M24,263.5 Q24.2031,263 24.4375,262.75 Q24.6719,262.5 24.9375,262.5 Q25.4063,262.5 25.7031,262.7813 Q26,263.0625 26,263.7188 L26,265.2813 Q26,265.9375 25.7188,266.2188 Q25.4375,266.5 25,266.5 Q24.6094,266.5 24.3594,266.3281 Q24.1094,266.1563 24,265.7031 Q23.9531,265.3906 23.7813,265.2188 Q23.4688,264.8906 22.9063,264.7031 Q22.3438,264.5 21.7813,264.5 Q21.0781,264.5 20.4844,264.7813 Q19.9063,265.0625 19.4531,265.6875 Q19,266.3125 19,267.1719 L19,268.0938 Q19,269.125 19.8438,269.8125 Q20.6875,270.5 22.1875,270.5 Q23.0781,270.5 23.7031,270.2969 Q24.0625,270.1875 24.4688,269.8281 Q24.7344,269.625 24.875,269.5625 Q25.0156,269.5 25.1875,269.5 Q25.5156,269.5 25.75,269.7656 Q26,270.0156 26,270.375 Q26,270.7188 25.6563,271.125 Q25.1563,271.7188 24.3594,272.0469 Q23.3125,272.5 22.0313,272.5 Q20.5313,272.5 19.3281,271.9063 Q18.3594,271.4375 17.6719,270.4219 Q17,269.4063 17,268.2031 L17,267.1094 Q17,265.8594 17.5938,264.7656 Q18.2031,263.6719 19.25,263.0938 Q20.3125,262.5 21.5,262.5 Q22.2188,262.5 22.8438,262.75 Q23.4688,263 24,263.5 Z " fill="#000000"/><text fill="#000000" font-family="sans-serif" font-size="12" lengthAdjust="spacing" textLength="114" x="36" y="271.9102">CustomerRepository</text><line style="stroke:#A80036;stroke-width:1.5;" x1="8" x2="152" y1="283" y2="283"/><line style="stroke:#A80036;stroke-width:1.5;" x1="8" x2="152" y1="291" y2="291"/><ellipse cx="18" cy="302" fill="#84BE84" rx="3" ry="3" style="stroke:#038048;stroke-width:1.0;"/><text fill="#000000" font-family="sans-serif" font-size="11" lengthAdjust="spacing" textLength="106" x="27" y="306.4189">save(newCustomer) :</text><!--MD5=[2ce0c9fb7f55b1e256ab28a8ea6b25ec]
class Customer--><rect codeLine="15" fill="#FEFECE" filter="url(#f1iclkscb8jnds)" height="61.8359" id="Customer" style="stroke:#A80036;stroke-width:1.5;" width="216" x="188" y="251"/><ellipse cx="264.25" cy="267" fill="#ADD1B2" rx="11" ry="11" style="stroke:#A80036;stroke-width:1.0;"/><path d="M266.25,263.5 Q266.4531,263 266.6875,262.75 Q266.9219,262.5 267.1875,262.5 Q267.6563,262.5 267.9531,262.7813 Q268.25,263.0625 268.25,263.7188 L268.25,265.2813 Q268.25,265.9375 267.9688,266.2188 Q267.6875,266.5 267.25,266.5 Q266.8594,266.5 266.6094,266.3281 Q266.3594,266.1563 266.25,265.7031 Q266.2031,265.3906 266.0313,265.2188 Q265.7188,264.8906 265.1563,264.7031 Q264.5938,264.5 264.0313,264.5 Q263.3281,264.5 262.7344,264.7813 Q262.1563,265.0625 261.7031,265.6875 Q261.25,266.3125 261.25,267.1719 L261.25,268.0938 Q261.25,269.125 262.0938,269.8125 Q262.9375,270.5 264.4375,270.5 Q265.3281,270.5 265.9531,270.2969 Q266.3125,270.1875 266.7188,269.8281 Q266.9844,269.625 267.125,269.5625 Q267.2656,269.5 267.4375,269.5 Q267.7656,269.5 268,269.7656 Q268.25,270.0156 268.25,270.375 Q268.25,270.7188 267.9063,271.125 Q267.4063,271.7188 266.6094,272.0469 Q265.5625,272.5 264.2813,272.5 Q262.7813,272.5 261.5781,271.9063 Q260.6094,271.4375 259.9219,270.4219 Q259.25,269.4063 259.25,268.2031 L259.25,267.1094 Q259.25,265.8594 259.8438,264.7656 Q260.4531,263.6719 261.5,263.0938 Q262.5625,262.5 263.75,262.5 Q264.4688,262.5 265.0938,262.75 Q265.7188,263 266.25,263.5 Z " fill="#000000"/><text fill="#000000" font-family="sans-serif" font-size="12" lengthAdjust="spacing" textLength="55" x="284.75" y="271.9102">Customer</text><line style="stroke:#A80036;stroke-width:1.5;" x1="189" x2="403" y1="283" y2="283"/><line style="stroke:#A80036;stroke-width:1.5;" x1="189" x2="403" y1="291" y2="291"/><ellipse cx="199" cy="302" fill="#84BE84" rx="3" ry="3" style="stroke:#038048;stroke-width:1.0;"/><text fill="#000000" font-family="sans-serif" font-size="11" lengthAdjust="spacing" textLength="190" x="208" y="306.4189">Customer(first_name, last_name, etc...)</text><!--MD5=[c033d4bbac79f31b46533f3288e86589]
link RegisterCustomerUI to RegisterCustomerController--><path codeLine="19" d="M188,69.28 C188,85.77 188,106.26 188,123.49 " fill="none" id="RegisterCustomerUI-to-RegisterCustomerController" style="stroke:#A80036;stroke-width:1.0;stroke-dasharray:7.0,7.0;"/><polygon fill="#A80036" points="188,128.73,192,119.73,188,123.73,184,119.73,188,128.73" style="stroke:#A80036;stroke-width:1.0;"/><!--MD5=[42076a5265ebc01c8943a7b081dadf3f]
link RegisterCustomerController to CustomerRepository--><path codeLine="20" d="M160.75,191.28 C145.53,208.19 126.51,229.32 110.76,246.82 " fill="none" id="RegisterCustomerController-to-CustomerRepository" style="stroke:#A80036;stroke-width:1.0;stroke-dasharray:7.0,7.0;"/><polygon fill="#A80036" points="107.24,250.73,116.2339,246.7162,110.5848,247.0135,110.2875,241.3645,107.24,250.73" style="stroke:#A80036;stroke-width:1.0;"/><!--MD5=[c6a79696cb588641b3692d8b8be2b447]
link RegisterCustomerController to Customer--><path codeLine="21" d="M215.25,191.28 C230.47,208.19 249.49,229.32 265.24,246.82 " fill="none" id="RegisterCustomerController-to-Customer" style="stroke:#A80036;stroke-width:1.0;stroke-dasharray:7.0,7.0;"/><polygon fill="#A80036" points="268.76,250.73,265.7125,241.3645,265.4152,247.0135,259.7661,246.7162,268.76,250.73" style="stroke:#A80036;stroke-width:1.0;"/><!--MD5=[ce9d8fab0d62dabd527934cf76bf2ca8]
@startuml
'https://plantuml.com/class-diagram

class RegisterCustomerUI {
+doShow()
}

class RegisterCustomerController {
+registerNewCustomer(first_name, last_name, etc...)
}

class CustomerRepository {
+save(newCustomer) :
}

class Customer {
+Customer(first_name, last_name, etc...)
}

RegisterCustomerUI ..> RegisterCustomerController
RegisterCustomerController ..> CustomerRepository
RegisterCustomerController ..> Customer
@enduml

@startuml

class RegisterCustomerUI {
+doShow()
}

class RegisterCustomerController {
+registerNewCustomer(first_name, last_name, etc...)
}

class CustomerRepository {
+save(newCustomer) :
}

class Customer {
+Customer(first_name, last_name, etc...)
}

RegisterCustomerUI ..> RegisterCustomerController
RegisterCustomerController ..> CustomerRepository
RegisterCustomerController ..> Customer
@enduml

PlantUML version 1.2022.1(Tue Feb 01 18:19:58 GMT 2022)
(GPL source distribution)
Java Runtime: OpenJDK Runtime Environment
JVM: OpenJDK 64-Bit Server VM
Default Encoding: Cp1252
Language: en
Country: GB
--></g></svg>