<?xml version="1.0" encoding="UTF-8" standalone="no"?><svg xmlns="http://www.w3.org/2000/svg" xmlns:xlink="http://www.w3.org/1999/xlink" contentScriptType="application/ecmascript" contentStyleType="text/css" height="326px" preserveAspectRatio="none" style="width:436px;height:326px;" version="1.1" viewBox="0 0 436 326" width="436px" zoomAndPan="magnify"><defs><filter height="300%" id="f1no6p2o693mzt" width="300%" x="-1" y="-1"><feGaussianBlur result="blurOut" stdDeviation="2.0"/><feColorMatrix in="blurOut" result="blurOut2" type="matrix" values="0 0 0 0 0 0 0 0 0 0 0 0 0 0 0 0 0 0 .4 0"/><feOffset dx="4.0" dy="4.0" in="blurOut2" result="blurOut3"/><feBlend in="SourceGraphic" in2="blurOut3" mode="normal"/></filter></defs><g><!--MD5=[299b4053dc9991fe1806e72450a03f3b]
class RegisterProductUI--><rect codeLine="3" fill="#FEFECE" filter="url(#f1no6p2o693mzt)" height="61.8359" id="RegisterProductUI" style="stroke:#A80036;stroke-width:1.5;" width="133" x="119" y="7"/><ellipse cx="134" cy="23" fill="#ADD1B2" rx="11" ry="11" style="stroke:#A80036;stroke-width:1.0;"/><path d="M136,19.5 Q136.2031,19 136.4375,18.75 Q136.6719,18.5 136.9375,18.5 Q137.4063,18.5 137.7031,18.7813 Q138,19.0625 138,19.7188 L138,21.2813 Q138,21.9375 137.7188,22.2188 Q137.4375,22.5 137,22.5 Q136.6094,22.5 136.3594,22.3281 Q136.1094,22.1563 136,21.7031 Q135.9531,21.3906 135.7813,21.2188 Q135.4688,20.8906 134.9063,20.7031 Q134.3438,20.5 133.7813,20.5 Q133.0781,20.5 132.4844,20.7813 Q131.9063,21.0625 131.4531,21.6875 Q131,22.3125 131,23.1719 L131,24.0938 Q131,25.125 131.8438,25.8125 Q132.6875,26.5 134.1875,26.5 Q135.0781,26.5 135.7031,26.2969 Q136.0625,26.1875 136.4688,25.8281 Q136.7344,25.625 136.875,25.5625 Q137.0156,25.5 137.1875,25.5 Q137.5156,25.5 137.75,25.7656 Q138,26.0156 138,26.375 Q138,26.7188 137.6563,27.125 Q137.1563,27.7188 136.3594,28.0469 Q135.3125,28.5 134.0313,28.5 Q132.5313,28.5 131.3281,27.9063 Q130.3594,27.4375 129.6719,26.4219 Q129,25.4063 129,24.2031 L129,23.1094 Q129,21.8594 129.5938,20.7656 Q130.2031,19.6719 131.25,19.0938 Q132.3125,18.5 133.5,18.5 Q134.2188,18.5 134.8438,18.75 Q135.4688,19 136,19.5 Z " fill="#000000"/><text fill="#000000" font-family="sans-serif" font-size="12" lengthAdjust="spacing" textLength="101" x="148" y="27.9102">RegisterProductUI</text><line style="stroke:#A80036;stroke-width:1.5;" x1="120" x2="251" y1="39" y2="39"/><line style="stroke:#A80036;stroke-width:1.5;" x1="120" x2="251" y1="47" y2="47"/><ellipse cx="130" cy="58" fill="#84BE84" rx="3" ry="3" style="stroke:#038048;stroke-width:1.0;"/><text fill="#000000" font-family="sans-serif" font-size="11" lengthAdjust="spacing" textLength="49" x="139" y="62.4189">doShow()</text><!--MD5=[da60459599bfcabead66c448ce02a5b9]
class ProductController--><rect codeLine="7" fill="#FEFECE" filter="url(#f1no6p2o693mzt)" height="61.8359" id="ProductController" style="stroke:#A80036;stroke-width:1.5;" width="307" x="32" y="129"/><ellipse cx="133.25" cy="145" fill="#ADD1B2" rx="11" ry="11" style="stroke:#A80036;stroke-width:1.0;"/><path d="M135.25,141.5 Q135.4531,141 135.6875,140.75 Q135.9219,140.5 136.1875,140.5 Q136.6563,140.5 136.9531,140.7813 Q137.25,141.0625 137.25,141.7188 L137.25,143.2813 Q137.25,143.9375 136.9688,144.2188 Q136.6875,144.5 136.25,144.5 Q135.8594,144.5 135.6094,144.3281 Q135.3594,144.1563 135.25,143.7031 Q135.2031,143.3906 135.0313,143.2188 Q134.7188,142.8906 134.1563,142.7031 Q133.5938,142.5 133.0313,142.5 Q132.3281,142.5 131.7344,142.7813 Q131.1563,143.0625 130.7031,143.6875 Q130.25,144.3125 130.25,145.1719 L130.25,146.0938 Q130.25,147.125 131.0938,147.8125 Q131.9375,148.5 133.4375,148.5 Q134.3281,148.5 134.9531,148.2969 Q135.3125,148.1875 135.7188,147.8281 Q135.9844,147.625 136.125,147.5625 Q136.2656,147.5 136.4375,147.5 Q136.7656,147.5 137,147.7656 Q137.25,148.0156 137.25,148.375 Q137.25,148.7188 136.9063,149.125 Q136.4063,149.7188 135.6094,150.0469 Q134.5625,150.5 133.2813,150.5 Q131.7813,150.5 130.5781,149.9063 Q129.6094,149.4375 128.9219,148.4219 Q128.25,147.4063 128.25,146.2031 L128.25,145.1094 Q128.25,143.8594 128.8438,142.7656 Q129.4531,141.6719 130.5,141.0938 Q131.5625,140.5 132.75,140.5 Q133.4688,140.5 134.0938,140.75 Q134.7188,141 135.25,141.5 Z " fill="#000000"/><text fill="#000000" font-family="sans-serif" font-size="12" lengthAdjust="spacing" textLength="96" x="153.75" y="149.9102">ProductController</text><line style="stroke:#A80036;stroke-width:1.5;" x1="33" x2="338" y1="161" y2="161"/><line style="stroke:#A80036;stroke-width:1.5;" x1="33" x2="338" y1="169" y2="169"/><ellipse cx="43" cy="180" fill="#84BE84" rx="3" ry="3" style="stroke:#038048;stroke-width:1.0;"/><text fill="#000000" font-family="sans-serif" font-size="11" lengthAdjust="spacing" textLength="281" x="52" y="184.4189">registerNewProduct(internal code, production code, etc...)</text><!--MD5=[f9761e4ec0e5a044b983a0fb01ce84a9]
class ProductRepository--><rect codeLine="11" fill="#FEFECE" filter="url(#f1no6p2o693mzt)" height="61.8359" id="ProductRepository" style="stroke:#A80036;stroke-width:1.5;" width="133" x="7" y="251"/><ellipse cx="22" cy="267" fill="#ADD1B2" rx="11" ry="11" style="stroke:#A80036;stroke-width:1.0;"/><path d="M24,263.5 Q24.2031,263 24.4375,262.75 Q24.6719,262.5 24.9375,262.5 Q25.4063,262.5 25.7031,262.7813 Q26,263.0625 26,263.7188 L26,265.2813 Q26,265.9375 25.7188,266.2188 Q25.4375,266.5 25,266.5 Q24.6094,266.5 24.3594,266.3281 Q24.1094,266.1563 24,265.7031 Q23.9531,265.3906 23.7813,265.2188 Q23.4688,264.8906 22.9063,264.7031 Q22.3438,264.5 21.7813,264.5 Q21.0781,264.5 20.4844,264.7813 Q19.9063,265.0625 19.4531,265.6875 Q19,266.3125 19,267.1719 L19,268.0938 Q19,269.125 19.8438,269.8125 Q20.6875,270.5 22.1875,270.5 Q23.0781,270.5 23.7031,270.2969 Q24.0625,270.1875 24.4688,269.8281 Q24.7344,269.625 24.875,269.5625 Q25.0156,269.5 25.1875,269.5 Q25.5156,269.5 25.75,269.7656 Q26,270.0156 26,270.375 Q26,270.7188 25.6563,271.125 Q25.1563,271.7188 24.3594,272.0469 Q23.3125,272.5 22.0313,272.5 Q20.5313,272.5 19.3281,271.9063 Q18.3594,271.4375 17.6719,270.4219 Q17,269.4063 17,268.2031 L17,267.1094 Q17,265.8594 17.5938,264.7656 Q18.2031,263.6719 19.25,263.0938 Q20.3125,262.5 21.5,262.5 Q22.2188,262.5 22.8438,262.75 Q23.4688,263 24,263.5 Z " fill="#000000"/><text fill="#000000" font-family="sans-serif" font-size="12" lengthAdjust="spacing" textLength="101" x="36" y="271.9102">ProductRepository</text><line style="stroke:#A80036;stroke-width:1.5;" x1="8" x2="139" y1="283" y2="283"/><line style="stroke:#A80036;stroke-width:1.5;" x1="8" x2="139" y1="291" y2="291"/><ellipse cx="18" cy="302" fill="#84BE84" rx="3" ry="3" style="stroke:#038048;stroke-width:1.0;"/><text fill="#000000" font-family="sans-serif" font-size="11" lengthAdjust="spacing" textLength="97" x="27" y="306.4189">save(newProduct) :</text><!--MD5=[72136138052d025cffdce3c22fbd185f]
class Product--><rect codeLine="15" fill="#FEFECE" filter="url(#f1no6p2o693mzt)" height="61.8359" id="Product" style="stroke:#A80036;stroke-width:1.5;" width="247" x="175" y="251"/><ellipse cx="273.25" cy="267" fill="#ADD1B2" rx="11" ry="11" style="stroke:#A80036;stroke-width:1.0;"/><path d="M275.25,263.5 Q275.4531,263 275.6875,262.75 Q275.9219,262.5 276.1875,262.5 Q276.6563,262.5 276.9531,262.7813 Q277.25,263.0625 277.25,263.7188 L277.25,265.2813 Q277.25,265.9375 276.9688,266.2188 Q276.6875,266.5 276.25,266.5 Q275.8594,266.5 275.6094,266.3281 Q275.3594,266.1563 275.25,265.7031 Q275.2031,265.3906 275.0313,265.2188 Q274.7188,264.8906 274.1563,264.7031 Q273.5938,264.5 273.0313,264.5 Q272.3281,264.5 271.7344,264.7813 Q271.1563,265.0625 270.7031,265.6875 Q270.25,266.3125 270.25,267.1719 L270.25,268.0938 Q270.25,269.125 271.0938,269.8125 Q271.9375,270.5 273.4375,270.5 Q274.3281,270.5 274.9531,270.2969 Q275.3125,270.1875 275.7188,269.8281 Q275.9844,269.625 276.125,269.5625 Q276.2656,269.5 276.4375,269.5 Q276.7656,269.5 277,269.7656 Q277.25,270.0156 277.25,270.375 Q277.25,270.7188 276.9063,271.125 Q276.4063,271.7188 275.6094,272.0469 Q274.5625,272.5 273.2813,272.5 Q271.7813,272.5 270.5781,271.9063 Q269.6094,271.4375 268.9219,270.4219 Q268.25,269.4063 268.25,268.2031 L268.25,267.1094 Q268.25,265.8594 268.8438,264.7656 Q269.4531,263.6719 270.5,263.0938 Q271.5625,262.5 272.75,262.5 Q273.4688,262.5 274.0938,262.75 Q274.7188,263 275.25,263.5 Z " fill="#000000"/><text fill="#000000" font-family="sans-serif" font-size="12" lengthAdjust="spacing" textLength="42" x="293.75" y="271.9102">Product</text><line style="stroke:#A80036;stroke-width:1.5;" x1="176" x2="421" y1="283" y2="283"/><line style="stroke:#A80036;stroke-width:1.5;" x1="176" x2="421" y1="291" y2="291"/><ellipse cx="186" cy="302" fill="#84BE84" rx="3" ry="3" style="stroke:#038048;stroke-width:1.0;"/><text fill="#000000" font-family="sans-serif" font-size="11" lengthAdjust="spacing" textLength="221" x="195" y="306.4189">Product(internal code, production code, etc...)</text><!--MD5=[2b0d248e7faf982daa576d71f0e7e6e0]
link RegisterProductUI to ProductController--><path codeLine="19" d="M185.5,69.28 C185.5,85.77 185.5,106.26 185.5,123.49 " fill="none" id="RegisterProductUI-to-ProductController" style="stroke:#A80036;stroke-width:1.0;stroke-dasharray:7.0,7.0;"/><polygon fill="#A80036" points="185.5,128.73,189.5,119.73,185.5,123.73,181.5,119.73,185.5,128.73" style="stroke:#A80036;stroke-width:1.0;"/><!--MD5=[805adf85e061bac5efa93fb3d8e11f5f]
link ProductController to ProductRepository--><path codeLine="20" d="M157.24,191.28 C141.45,208.19 121.74,229.32 105.4,246.82 " fill="none" id="ProductController-to-ProductRepository" style="stroke:#A80036;stroke-width:1.0;stroke-dasharray:7.0,7.0;"/><polygon fill="#A80036" points="101.75,250.73,110.8231,246.8987,105.1692,247.0819,104.9861,241.428,101.75,250.73" style="stroke:#A80036;stroke-width:1.0;"/><!--MD5=[cee73e3586acac8639ab17cea2a5d3b4]
link ProductController to Product--><path codeLine="21" d="M214.01,191.28 C229.94,208.19 249.83,229.32 266.32,246.82 " fill="none" id="ProductController-to-Product" style="stroke:#A80036;stroke-width:1.0;stroke-dasharray:7.0,7.0;"/><polygon fill="#A80036" points="269.99,250.73,266.7345,241.4347,266.5632,247.089,260.9089,246.9177,269.99,250.73" style="stroke:#A80036;stroke-width:1.0;"/><!--MD5=[ff7f55d1f6d83eb5a84225902fc56d8a]
@startuml
'https://plantuml.com/class-diagram

class RegisterProductUI {
+doShow()
}

class ProductController {
+registerNewProduct(internal code, production code, etc...)
}

class ProductRepository {
+save(newProduct) :
}

class Product {
+Product(internal code, production code, etc...)
}

RegisterProductUI ..> ProductController
ProductController ..> ProductRepository
ProductController ..> Product
@enduml

@startuml

class RegisterProductUI {
+doShow()
}

class ProductController {
+registerNewProduct(internal code, production code, etc...)
}

class ProductRepository {
+save(newProduct) :
}

class Product {
+Product(internal code, production code, etc...)
}

RegisterProductUI ..> ProductController
ProductController ..> ProductRepository
ProductController ..> Product
@enduml

PlantUML version 1.2021.5(Sun Apr 25 12:20:28 BST 2021)
(GPL source distribution)
Java Runtime: OpenJDK Runtime Environment
JVM: OpenJDK 64-Bit Server VM
Default Encoding: Cp1252
Language: pt
Country: PT
--></g></svg>