<?xml version="1.0" encoding="UTF-8" standalone="no"?><svg xmlns="http://www.w3.org/2000/svg" xmlns:xlink="http://www.w3.org/1999/xlink" contentScriptType="application/ecmascript" contentStyleType="text/css" height="398.4px" preserveAspectRatio="none" style="width:1145px;height:398px;" version="1.1" viewBox="0 0 1145 398" width="1145.6px" zoomAndPan="magnify"><defs><filter height="300%" id="f8b8p2etr9cyc" width="300%" x="-1" y="-1"><feGaussianBlur result="blurOut" stdDeviation="1.6000000000000003"/><feColorMatrix in="blurOut" result="blurOut2" type="matrix" values="0 0 0 0 0 0 0 0 0 0 0 0 0 0 0 0 0 0 .4 0"/><feOffset dx="3.2000000000000006" dy="3.2000000000000006" in="blurOut2" result="blurOut3"/><feBlend in="SourceGraphic" in2="blurOut3" mode="normal"/></filter></defs><g><rect fill="#FFFFFF" filter="url(#f8b8p2etr9cyc)" height="225.7313" style="stroke:#A80036;stroke-width:0.8000000000000002;" width="8" x="378.4" y="97.5688"/><rect fill="#FFFFFF" filter="url(#f8b8p2etr9cyc)" height="145.6875" style="stroke:#A80036;stroke-width:0.8000000000000002;" width="8" x="672" y="170.4125"/><line style="stroke:#A80036;stroke-width:0.8000000000000002;stroke-dasharray:5.0,5.0;" x1="33.6" x2="33.6" y1="71.6875" y2="330.5"/><line style="stroke:#A80036;stroke-width:0.8000000000000002;stroke-dasharray:5.0,5.0;" x1="382.4" x2="382.4" y1="71.6875" y2="330.5"/><line style="stroke:#A80036;stroke-width:0.8000000000000002;stroke-dasharray:5.0,5.0;" x1="676" x2="676" y1="71.6875" y2="330.5"/><line style="stroke:#A80036;stroke-width:0.8000000000000002;stroke-dasharray:5.0,5.0;" x1="808" x2="808" y1="71.6875" y2="330.5"/><line style="stroke:#A80036;stroke-width:0.8000000000000002;stroke-dasharray:5.0,5.0;" x1="920.8" x2="920.8" y1="71.6875" y2="330.5"/><line style="stroke:#A80036;stroke-width:0.8000000000000002;stroke-dasharray:5.0,5.0;" x1="1026.4" x2="1026.4" y1="71.6875" y2="330.5"/><line style="stroke:#A80036;stroke-width:0.8000000000000002;stroke-dasharray:5.0,5.0;" x1="1110.4" x2="1110.4" y1="71.6875" y2="330.5"/><text fill="#000000" font-family="sans-serif" font-size="11.2" lengthAdjust="spacing" textLength="54.4" x="4" y="69.2266">SalesClerk</text><ellipse cx="33.6" cy="12" fill="#FEFECE" filter="url(#f8b8p2etr9cyc)" rx="6.4" ry="6.4" style="stroke:#A80036;stroke-width:1.6000000000000003;"/><path d="M33.6,18.4 L33.6,40 M23.2,24.8 L44,24.8 M33.6,40 L23.2,52 M33.6,40 L44,52 " fill="none" filter="url(#f8b8p2etr9cyc)" style="stroke:#A80036;stroke-width:1.6000000000000003;"/><text fill="#000000" font-family="sans-serif" font-size="11.2" lengthAdjust="spacing" textLength="54.4" x="4" y="341.3266">SalesClerk</text><ellipse cx="33.6" cy="351.7875" fill="#FEFECE" filter="url(#f8b8p2etr9cyc)" rx="6.4" ry="6.4" style="stroke:#A80036;stroke-width:1.6000000000000003;"/><path d="M33.6,358.1875 L33.6,379.7875 M23.2,364.5875 L44,364.5875 M33.6,379.7875 L23.2,391.7875 M33.6,379.7875 L44,391.7875 " fill="none" filter="url(#f8b8p2etr9cyc)" style="stroke:#A80036;stroke-width:1.6000000000000003;"/><rect fill="#FEFECE" filter="url(#f8b8p2etr9cyc)" height="25.2875" style="stroke:#A80036;stroke-width:1.2000000000000002;" width="102.4" x="329.6" y="42.4"/><text fill="#000000" font-family="sans-serif" font-size="11.2" lengthAdjust="spacing" textLength="91.2" x="335.2" y="59.6266">RegisterProductUI</text><rect fill="#FEFECE" filter="url(#f8b8p2etr9cyc)" height="25.2875" style="stroke:#A80036;stroke-width:1.2000000000000002;" width="102.4" x="329.6" y="329.7"/><text fill="#000000" font-family="sans-serif" font-size="11.2" lengthAdjust="spacing" textLength="91.2" x="335.2" y="346.9266">RegisterProductUI</text><text fill="#000000" font-family="sans-serif" font-size="11.2" lengthAdjust="spacing" textLength="131.2" x="608" y="69.2266">RegisterProductController</text><ellipse cx="676" cy="44.8" fill="#FEFECE" filter="url(#f8b8p2etr9cyc)" rx="9.6" ry="9.6" style="stroke:#A80036;stroke-width:1.6000000000000003;"/><polygon fill="#A80036" points="672.8,35.2,677.6,31.2,676,35.2,677.6,39.2,672.8,35.2" style="stroke:#A80036;stroke-width:0.8000000000000002;"/><text fill="#000000" font-family="sans-serif" font-size="11.2" lengthAdjust="spacing" textLength="131.2" x="608" y="341.3266">RegisterProductController</text><ellipse cx="676" cy="356.5875" fill="#FEFECE" filter="url(#f8b8p2etr9cyc)" rx="9.6" ry="9.6" style="stroke:#A80036;stroke-width:1.6000000000000003;"/><polygon fill="#A80036" points="672.8,346.9875,677.6,342.9875,676,346.9875,677.6,350.9875,672.8,346.9875" style="stroke:#A80036;stroke-width:0.8000000000000002;"/><rect fill="#FEFECE" filter="url(#f8b8p2etr9cyc)" height="25.2875" style="stroke:#A80036;stroke-width:1.2000000000000002;" width="108.8" x="752" y="42.4"/><text fill="#000000" font-family="sans-serif" font-size="11.2" lengthAdjust="spacing" textLength="97.6" x="757.6" y="59.6266">PersistenceContext</text><rect fill="#FEFECE" filter="url(#f8b8p2etr9cyc)" height="25.2875" style="stroke:#A80036;stroke-width:1.2000000000000002;" width="108.8" x="752" y="329.7"/><text fill="#000000" font-family="sans-serif" font-size="11.2" lengthAdjust="spacing" textLength="97.6" x="757.6" y="346.9266">PersistenceContext</text><text fill="#000000" font-family="sans-serif" font-size="11.2" lengthAdjust="spacing" textLength="92.8" x="872" y="69.2266">RepositoryFactory</text><path d="M906.4,28.8 C906.4,20.8 920.8,20.8 920.8,20.8 C920.8,20.8 935.2,20.8 935.2,28.8 L935.2,49.6 C935.2,57.6 920.8,57.6 920.8,57.6 C920.8,57.6 906.4,57.6 906.4,49.6 L906.4,28.8 " fill="#ADD8E6" filter="url(#f8b8p2etr9cyc)" style="stroke:#000000;stroke-width:1.2000000000000002;"/><path d="M906.4,28.8 C906.4,36.8 920.8,36.8 920.8,36.8 C920.8,36.8 935.2,36.8 935.2,28.8 " fill="none" style="stroke:#000000;stroke-width:1.2000000000000002;"/><text fill="#000000" font-family="sans-serif" font-size="11.2" lengthAdjust="spacing" textLength="92.8" x="872" y="341.3266">RepositoryFactory</text><path d="M906.4,351.7875 C906.4,343.7875 920.8,343.7875 920.8,343.7875 C920.8,343.7875 935.2,343.7875 935.2,351.7875 L935.2,372.5875 C935.2,380.5875 920.8,380.5875 920.8,380.5875 C920.8,380.5875 906.4,380.5875 906.4,372.5875 L906.4,351.7875 " fill="#ADD8E6" filter="url(#f8b8p2etr9cyc)" style="stroke:#000000;stroke-width:1.2000000000000002;"/><path d="M906.4,351.7875 C906.4,359.7875 920.8,359.7875 920.8,359.7875 C920.8,359.7875 935.2,359.7875 935.2,351.7875 " fill="none" style="stroke:#000000;stroke-width:1.2000000000000002;"/><text fill="#000000" font-family="sans-serif" font-size="11.2" lengthAdjust="spacing" textLength="93.6" x="977.6" y="69.2266">ProductRepository</text><path d="M1012.4,28.8 C1012.4,20.8 1026.8,20.8 1026.8,20.8 C1026.8,20.8 1041.2,20.8 1041.2,28.8 L1041.2,49.6 C1041.2,57.6 1026.8,57.6 1026.8,57.6 C1026.8,57.6 1012.4,57.6 1012.4,49.6 L1012.4,28.8 " fill="#ADD8E6" filter="url(#f8b8p2etr9cyc)" style="stroke:#000000;stroke-width:1.2000000000000002;"/><path d="M1012.4,28.8 C1012.4,36.8 1026.8,36.8 1026.8,36.8 C1026.8,36.8 1041.2,36.8 1041.2,28.8 " fill="none" style="stroke:#000000;stroke-width:1.2000000000000002;"/><text fill="#000000" font-family="sans-serif" font-size="11.2" lengthAdjust="spacing" textLength="93.6" x="977.6" y="341.3266">ProductRepository</text><path d="M1012.4,351.7875 C1012.4,343.7875 1026.8,343.7875 1026.8,343.7875 C1026.8,343.7875 1041.2,343.7875 1041.2,351.7875 L1041.2,372.5875 C1041.2,380.5875 1026.8,380.5875 1026.8,380.5875 C1026.8,380.5875 1012.4,380.5875 1012.4,372.5875 L1012.4,351.7875 " fill="#ADD8E6" filter="url(#f8b8p2etr9cyc)" style="stroke:#000000;stroke-width:1.2000000000000002;"/><path d="M1012.4,351.7875 C1012.4,359.7875 1026.8,359.7875 1026.8,359.7875 C1026.8,359.7875 1041.2,359.7875 1041.2,351.7875 " fill="none" style="stroke:#000000;stroke-width:1.2000000000000002;"/><rect fill="#FEFECE" filter="url(#f8b8p2etr9cyc)" height="25.2875" style="stroke:#A80036;stroke-width:1.2000000000000002;" width="50.4" x="1084" y="42.4"/><text fill="#000000" font-family="sans-serif" font-size="11.2" lengthAdjust="spacing" textLength="39.2" x="1089.6" y="59.6266">Product</text><rect fill="#FEFECE" filter="url(#f8b8p2etr9cyc)" height="25.2875" style="stroke:#A80036;stroke-width:1.2000000000000002;" width="50.4" x="1084" y="329.7"/><text fill="#000000" font-family="sans-serif" font-size="11.2" lengthAdjust="spacing" textLength="39.2" x="1089.6" y="346.9266">Product</text><rect fill="#FFFFFF" filter="url(#f8b8p2etr9cyc)" height="225.7313" style="stroke:#A80036;stroke-width:0.8000000000000002;" width="8" x="378.4" y="97.5688"/><rect fill="#FFFFFF" filter="url(#f8b8p2etr9cyc)" height="145.6875" style="stroke:#A80036;stroke-width:0.8000000000000002;" width="8" x="672" y="170.4125"/><polygon fill="#A80036" points="368.8,94.3688,376.8,97.5688,368.8,100.7688,372,97.5688" style="stroke:#A80036;stroke-width:0.8000000000000002;"/><line style="stroke:#A80036;stroke-width:0.8000000000000002;" x1="33.6" x2="373.6" y1="97.5688" y2="97.5688"/><text fill="#000000" font-family="sans-serif" font-size="10.4" lengthAdjust="spacing" textLength="140" x="39.2" y="93.6836">asks to register a new product</text><polygon fill="#A80036" points="42.4,118.65,34.4,121.85,42.4,125.05,39.2,121.85" style="stroke:#A80036;stroke-width:0.8000000000000002;"/><line style="stroke:#A80036;stroke-width:0.8000000000000002;" x1="37.6" x2="377.6" y1="121.85" y2="121.85"/><text fill="#000000" font-family="sans-serif" font-size="10.4" lengthAdjust="spacing" textLength="325.6" x="47.2" y="117.9648">asks to type the necessary data(internal code, production code, etc...)</text><polygon fill="#A80036" points="368.8,142.9313,376.8,146.1313,368.8,149.3313,372,146.1313" style="stroke:#A80036;stroke-width:0.8000000000000002;"/><line style="stroke:#A80036;stroke-width:0.8000000000000002;" x1="33.6" x2="373.6" y1="146.1313" y2="146.1313"/><text fill="#000000" font-family="sans-serif" font-size="10.4" lengthAdjust="spacing" textLength="115.2" x="39.2" y="142.2461">types the requested data</text><polygon fill="#A80036" points="662.4,167.2125,670.4,170.4125,662.4,173.6125,665.6,170.4125" style="stroke:#A80036;stroke-width:0.8000000000000002;"/><line style="stroke:#A80036;stroke-width:0.8000000000000002;" x1="386.4" x2="667.2" y1="170.4125" y2="170.4125"/><text fill="#000000" font-family="sans-serif" font-size="10.4" lengthAdjust="spacing" textLength="35.2" x="392" y="166.5273">create()</text><polygon fill="#A80036" points="662.4,191.4938,670.4,194.6938,662.4,197.8938,665.6,194.6938" style="stroke:#A80036;stroke-width:0.8000000000000002;"/><line style="stroke:#A80036;stroke-width:0.8000000000000002;" x1="386.4" x2="667.2" y1="194.6938" y2="194.6938"/><text fill="#000000" font-family="sans-serif" font-size="10.4" lengthAdjust="spacing" textLength="266.4" x="392" y="190.8086">registerNewProduct(internal code, production code, etc...)</text><polygon fill="#A80036" points="798.4,215.775,806.4,218.975,798.4,222.175,801.6,218.975" style="stroke:#A80036;stroke-width:0.8000000000000002;"/><line style="stroke:#A80036;stroke-width:0.8000000000000002;" x1="680" x2="803.2" y1="218.975" y2="218.975"/><text fill="#000000" font-family="sans-serif" font-size="10.4" lengthAdjust="spacing" textLength="60" x="685.6" y="215.0898">repositories()</text><polygon fill="#A80036" points="911.2,240.0563,919.2,243.2563,911.2,246.4563,914.4,243.2563" style="stroke:#A80036;stroke-width:0.8000000000000002;"/><line style="stroke:#A80036;stroke-width:0.8000000000000002;" x1="808" x2="916" y1="243.2563" y2="243.2563"/><text fill="#000000" font-family="sans-serif" font-size="10.4" lengthAdjust="spacing" textLength="35.2" x="813.6" y="239.3711">create()</text><polygon fill="#A80036" points="1017.2,264.3375,1025.2,267.5375,1017.2,270.7375,1020.4,267.5375" style="stroke:#A80036;stroke-width:0.8000000000000002;"/><line style="stroke:#A80036;stroke-width:0.8000000000000002;" x1="920.8" x2="1022" y1="267.5375" y2="267.5375"/><text fill="#000000" font-family="sans-serif" font-size="10.4" lengthAdjust="spacing" textLength="35.2" x="926.4" y="263.6523">create()</text><polygon fill="#A80036" points="1101.2,288.6188,1109.2,291.8188,1101.2,295.0188,1104.4,291.8188" style="stroke:#A80036;stroke-width:0.8000000000000002;"/><line style="stroke:#A80036;stroke-width:0.8000000000000002;" x1="680" x2="1106" y1="291.8188" y2="291.8188"/><text fill="#000000" font-family="sans-serif" font-size="10.4" lengthAdjust="spacing" textLength="300.8" x="685.6" y="287.9336">newProduct = new Product(internal code, production code, etc...)</text><polygon fill="#A80036" points="1017.2,312.9,1025.2,316.1,1017.2,319.3,1020.4,316.1" style="stroke:#A80036;stroke-width:0.8000000000000002;"/><line style="stroke:#A80036;stroke-width:0.8000000000000002;" x1="676" x2="1022" y1="316.1" y2="316.1"/><text fill="#000000" font-family="sans-serif" font-size="10.4" lengthAdjust="spacing" textLength="81.6" x="681.6" y="312.2148">save(newProduct)</text><!--MD5=[0d39bca0a4de79a633ab25583684fe58]
@startuml
'https://plantuml.com/class-diagram

actor SalesClerk

SalesClerk -> RegisterProductUI : asks to register a new product

activate RegisterProductUI
RegisterProductUI -> SalesClerk : asks to type the necessary data(internal code, production code, etc...)

SalesClerk -> RegisterProductUI : types the requested data

control RegisterProductController
RegisterProductUI -> RegisterProductController : create()

activate RegisterProductController
RegisterProductUI -> RegisterProductController : registerNewProduct(internal code, production code, etc...)

RegisterProductController -> PersistenceContext : repositories()

database RepositoryFactory #lightblue
PersistenceContext -> RepositoryFactory : create()

database ProductRepository #lightblue
RepositoryFactory -> ProductRepository : create()

RegisterProductController -> Product : newProduct = new Product(internal code, production code, etc...)

RegisterProductController -> ProductRepository : save(newProduct)
deactivate RegisterProductController
@enduml

@startuml

actor SalesClerk

SalesClerk -> RegisterProductUI : asks to register a new product

activate RegisterProductUI
RegisterProductUI -> SalesClerk : asks to type the necessary data(internal code, production code, etc...)

SalesClerk -> RegisterProductUI : types the requested data

control RegisterProductController
RegisterProductUI -> RegisterProductController : create()

activate RegisterProductController
RegisterProductUI -> RegisterProductController : registerNewProduct(internal code, production code, etc...)

RegisterProductController -> PersistenceContext : repositories()

database RepositoryFactory #lightblue
PersistenceContext -> RepositoryFactory : create()

database ProductRepository #lightblue
RepositoryFactory -> ProductRepository : create()

RegisterProductController -> Product : newProduct = new Product(internal code, production code, etc...)

RegisterProductController -> ProductRepository : save(newProduct)
deactivate RegisterProductController
@enduml

PlantUML version 1.2021.5(Sun Apr 25 12:20:28 BST 2021)
(GPL source distribution)
Java Runtime: OpenJDK Runtime Environment
JVM: OpenJDK 64-Bit Server VM
Default Encoding: Cp1252
Language: pt
Country: PT
--></g></svg>