<?xml version="1.0" encoding="UTF-8" standalone="no"?><svg xmlns="http://www.w3.org/2000/svg" xmlns:xlink="http://www.w3.org/1999/xlink" contentScriptType="application/ecmascript" contentStyleType="text/css" height="498px" preserveAspectRatio="none" style="width:1303px;height:498px;background:#FFFFFF;" version="1.1" viewBox="0 0 1303 498" width="1303px" zoomAndPan="magnify"><defs><filter height="300%" id="f1grhfk5wbvqeo" width="300%" x="-1" y="-1"><feGaussianBlur result="blurOut" stdDeviation="2.0"/><feColorMatrix in="blurOut" result="blurOut2" type="matrix" values="0 0 0 0 0 0 0 0 0 0 0 0 0 0 0 0 0 0 .4 0"/><feOffset dx="4.0" dy="4.0" in="blurOut2" result="blurOut3"/><feBlend in="SourceGraphic" in2="blurOut3" mode="normal"/></filter></defs><g><rect fill="#FFFFFF" filter="url(#f1grhfk5wbvqeo)" height="282.1641" style="stroke:#A80036;stroke-width:1.0;" width="10" x="349.5" y="121.9609"/><rect fill="#FFFFFF" filter="url(#f1grhfk5wbvqeo)" height="182.1094" style="stroke:#A80036;stroke-width:1.0;" width="10" x="616.5" y="213.0156"/><line style="stroke:#A80036;stroke-width:1.0;stroke-dasharray:5.0,5.0;" x1="53" x2="53" y1="89.6094" y2="413.125"/><line style="stroke:#A80036;stroke-width:1.0;stroke-dasharray:5.0,5.0;" x1="354.5" x2="354.5" y1="89.6094" y2="413.125"/><line style="stroke:#A80036;stroke-width:1.0;stroke-dasharray:5.0,5.0;" x1="621.5" x2="621.5" y1="89.6094" y2="413.125"/><line style="stroke:#A80036;stroke-width:1.0;stroke-dasharray:5.0,5.0;" x1="801.5" x2="801.5" y1="89.6094" y2="413.125"/><line style="stroke:#A80036;stroke-width:1.0;stroke-dasharray:5.0,5.0;" x1="942.5" x2="942.5" y1="89.6094" y2="413.125"/><line style="stroke:#A80036;stroke-width:1.0;stroke-dasharray:5.0,5.0;" x1="1094.5" x2="1094.5" y1="89.6094" y2="413.125"/><line style="stroke:#A80036;stroke-width:1.0;stroke-dasharray:5.0,5.0;" x1="1239.5" x2="1239.5" y1="89.6094" y2="413.125"/><text fill="#000000" font-family="sans-serif" font-size="14" lengthAdjust="spacing" textLength="91" x="5" y="86.5332">SalesManager</text><ellipse cx="53.5" cy="15" fill="#FEFECE" filter="url(#f1grhfk5wbvqeo)" rx="8" ry="8" style="stroke:#A80036;stroke-width:2.0;"/><path d="M53.5,23 L53.5,50 M40.5,31 L66.5,31 M53.5,50 L40.5,65 M53.5,50 L66.5,65 " fill="none" filter="url(#f1grhfk5wbvqeo)" style="stroke:#A80036;stroke-width:2.0;"/><text fill="#000000" font-family="sans-serif" font-size="14" lengthAdjust="spacing" textLength="91" x="5" y="426.6582">SalesManager</text><ellipse cx="53.5" cy="439.7344" fill="#FEFECE" filter="url(#f1grhfk5wbvqeo)" rx="8" ry="8" style="stroke:#A80036;stroke-width:2.0;"/><path d="M53.5,447.7344 L53.5,474.7344 M40.5,455.7344 L66.5,455.7344 M53.5,474.7344 L40.5,489.7344 M53.5,474.7344 L66.5,489.7344 " fill="none" filter="url(#f1grhfk5wbvqeo)" style="stroke:#A80036;stroke-width:2.0;"/><rect fill="#FEFECE" filter="url(#f1grhfk5wbvqeo)" height="31.6094" style="stroke:#A80036;stroke-width:1.5;" width="158" x="273.5" y="53"/><text fill="#000000" font-family="sans-serif" font-size="14" lengthAdjust="spacing" textLength="144" x="280.5" y="74.5332">CreateQuestionnaireUI</text><rect fill="#FEFECE" filter="url(#f1grhfk5wbvqeo)" height="31.6094" style="stroke:#A80036;stroke-width:1.5;" width="158" x="273.5" y="412.125"/><text fill="#000000" font-family="sans-serif" font-size="14" lengthAdjust="spacing" textLength="144" x="280.5" y="433.6582">CreateQuestionnaireUI</text><text fill="#000000" font-family="sans-serif" font-size="14" lengthAdjust="spacing" textLength="194" x="521.5" y="86.5332">CreateQuestionnaireController</text><ellipse cx="621.5" cy="56" fill="#FEFECE" filter="url(#f1grhfk5wbvqeo)" rx="12" ry="12" style="stroke:#A80036;stroke-width:2.0;"/><polygon fill="#A80036" points="617.5,44,623.5,39,621.5,44,623.5,49,617.5,44" style="stroke:#A80036;stroke-width:1.0;"/><text fill="#000000" font-family="sans-serif" font-size="14" lengthAdjust="spacing" textLength="194" x="521.5" y="426.6582">CreateQuestionnaireController</text><ellipse cx="621.5" cy="445.7344" fill="#FEFECE" filter="url(#f1grhfk5wbvqeo)" rx="12" ry="12" style="stroke:#A80036;stroke-width:2.0;"/><polygon fill="#A80036" points="617.5,433.7344,623.5,428.7344,621.5,433.7344,623.5,438.7344,617.5,433.7344" style="stroke:#A80036;stroke-width:1.0;"/><rect fill="#FEFECE" filter="url(#f1grhfk5wbvqeo)" height="31.6094" style="stroke:#A80036;stroke-width:1.5;" width="136" x="731.5" y="53"/><text fill="#000000" font-family="sans-serif" font-size="14" lengthAdjust="spacing" textLength="122" x="738.5" y="74.5332">PersistenceContext</text><rect fill="#FEFECE" filter="url(#f1grhfk5wbvqeo)" height="31.6094" style="stroke:#A80036;stroke-width:1.5;" width="136" x="731.5" y="412.125"/><text fill="#000000" font-family="sans-serif" font-size="14" lengthAdjust="spacing" textLength="122" x="738.5" y="433.6582">PersistenceContext</text><text fill="#000000" font-family="sans-serif" font-size="14" lengthAdjust="spacing" textLength="116" x="881.5" y="86.5332">RepositoryFactory</text><path d="M924.5,36 C924.5,26 942.5,26 942.5,26 C942.5,26 960.5,26 960.5,36 L960.5,62 C960.5,72 942.5,72 942.5,72 C942.5,72 924.5,72 924.5,62 L924.5,36 " fill="#ADD8E6" filter="url(#f1grhfk5wbvqeo)" style="stroke:#000000;stroke-width:1.5;"/><path d="M924.5,36 C924.5,46 942.5,46 942.5,46 C942.5,46 960.5,46 960.5,36 " fill="none" style="stroke:#000000;stroke-width:1.5;"/><text fill="#000000" font-family="sans-serif" font-size="14" lengthAdjust="spacing" textLength="116" x="881.5" y="426.6582">RepositoryFactory</text><path d="M924.5,439.7344 C924.5,429.7344 942.5,429.7344 942.5,429.7344 C942.5,429.7344 960.5,429.7344 960.5,439.7344 L960.5,465.7344 C960.5,475.7344 942.5,475.7344 942.5,475.7344 C942.5,475.7344 924.5,475.7344 924.5,465.7344 L924.5,439.7344 " fill="#ADD8E6" filter="url(#f1grhfk5wbvqeo)" style="stroke:#000000;stroke-width:1.5;"/><path d="M924.5,439.7344 C924.5,449.7344 942.5,449.7344 942.5,449.7344 C942.5,449.7344 960.5,449.7344 960.5,439.7344 " fill="none" style="stroke:#000000;stroke-width:1.5;"/><text fill="#000000" font-family="sans-serif" font-size="14" lengthAdjust="spacing" textLength="157" x="1013.5" y="86.5332">QuestionnaireRepository</text><path d="M1077,36 C1077,26 1095,26 1095,26 C1095,26 1113,26 1113,36 L1113,62 C1113,72 1095,72 1095,72 C1095,72 1077,72 1077,62 L1077,36 " fill="#ADD8E6" filter="url(#f1grhfk5wbvqeo)" style="stroke:#000000;stroke-width:1.5;"/><path d="M1077,36 C1077,46 1095,46 1095,46 C1095,46 1113,46 1113,36 " fill="none" style="stroke:#000000;stroke-width:1.5;"/><text fill="#000000" font-family="sans-serif" font-size="14" lengthAdjust="spacing" textLength="157" x="1013.5" y="426.6582">QuestionnaireRepository</text><path d="M1077,439.7344 C1077,429.7344 1095,429.7344 1095,429.7344 C1095,429.7344 1113,429.7344 1113,439.7344 L1113,465.7344 C1113,475.7344 1095,475.7344 1095,475.7344 C1095,475.7344 1077,475.7344 1077,465.7344 L1077,439.7344 " fill="#ADD8E6" filter="url(#f1grhfk5wbvqeo)" style="stroke:#000000;stroke-width:1.5;"/><path d="M1077,439.7344 C1077,449.7344 1095,449.7344 1095,449.7344 C1095,449.7344 1113,449.7344 1113,439.7344 " fill="none" style="stroke:#000000;stroke-width:1.5;"/><rect fill="#FEFECE" filter="url(#f1grhfk5wbvqeo)" height="31.6094" style="stroke:#A80036;stroke-width:1.5;" width="103" x="1186.5" y="53"/><text fill="#000000" font-family="sans-serif" font-size="14" lengthAdjust="spacing" textLength="89" x="1193.5" y="74.5332">Questionnaire</text><rect fill="#FEFECE" filter="url(#f1grhfk5wbvqeo)" height="31.6094" style="stroke:#A80036;stroke-width:1.5;" width="103" x="1186.5" y="412.125"/><text fill="#000000" font-family="sans-serif" font-size="14" lengthAdjust="spacing" textLength="89" x="1193.5" y="433.6582">Questionnaire</text><rect fill="#FFFFFF" filter="url(#f1grhfk5wbvqeo)" height="282.1641" style="stroke:#A80036;stroke-width:1.0;" width="10" x="349.5" y="121.9609"/><rect fill="#FFFFFF" filter="url(#f1grhfk5wbvqeo)" height="182.1094" style="stroke:#A80036;stroke-width:1.0;" width="10" x="616.5" y="213.0156"/><polygon fill="#A80036" points="337.5,117.9609,347.5,121.9609,337.5,125.9609,341.5,121.9609" style="stroke:#A80036;stroke-width:1.0;"/><line style="stroke:#A80036;stroke-width:1.0;" x1="53.5" x2="343.5" y1="121.9609" y2="121.9609"/><text fill="#000000" font-family="sans-serif" font-size="13" lengthAdjust="spacing" textLength="202" x="60.5" y="117.1045">asks to create a new questionnaire</text><polygon fill="#A80036" points="64.5,148.3125,54.5,152.3125,64.5,156.3125,60.5,152.3125" style="stroke:#A80036;stroke-width:1.0;"/><line style="stroke:#A80036;stroke-width:1.0;" x1="58.5" x2="348.5" y1="152.3125" y2="152.3125"/><text fill="#000000" font-family="sans-serif" font-size="13" lengthAdjust="spacing" textLength="272" x="70.5" y="147.4561">asks to type the necessary data(id, title, etc...)</text><polygon fill="#A80036" points="337.5,178.6641,347.5,182.6641,337.5,186.6641,341.5,182.6641" style="stroke:#A80036;stroke-width:1.0;"/><line style="stroke:#A80036;stroke-width:1.0;" x1="53.5" x2="343.5" y1="182.6641" y2="182.6641"/><text fill="#000000" font-family="sans-serif" font-size="13" lengthAdjust="spacing" textLength="144" x="60.5" y="177.8076">types the requested data</text><polygon fill="#A80036" points="604.5,209.0156,614.5,213.0156,604.5,217.0156,608.5,213.0156" style="stroke:#A80036;stroke-width:1.0;"/><line style="stroke:#A80036;stroke-width:1.0;" x1="359.5" x2="610.5" y1="213.0156" y2="213.0156"/><text fill="#000000" font-family="sans-serif" font-size="13" lengthAdjust="spacing" textLength="44" x="366.5" y="208.1592">create()</text><polygon fill="#A80036" points="604.5,239.3672,614.5,243.3672,604.5,247.3672,608.5,243.3672" style="stroke:#A80036;stroke-width:1.0;"/><line style="stroke:#A80036;stroke-width:1.0;" x1="359.5" x2="610.5" y1="243.3672" y2="243.3672"/><text fill="#000000" font-family="sans-serif" font-size="13" lengthAdjust="spacing" textLength="233" x="366.5" y="238.5107">registerNewQuestionnaire(id, title, etc...)</text><polygon fill="#A80036" points="789.5,269.7188,799.5,273.7188,789.5,277.7188,793.5,273.7188" style="stroke:#A80036;stroke-width:1.0;"/><line style="stroke:#A80036;stroke-width:1.0;" x1="626.5" x2="795.5" y1="273.7188" y2="273.7188"/><text fill="#000000" font-family="sans-serif" font-size="13" lengthAdjust="spacing" textLength="75" x="633.5" y="268.8623">repositories()</text><polygon fill="#A80036" points="930.5,300.0703,940.5,304.0703,930.5,308.0703,934.5,304.0703" style="stroke:#A80036;stroke-width:1.0;"/><line style="stroke:#A80036;stroke-width:1.0;" x1="801.5" x2="936.5" y1="304.0703" y2="304.0703"/><text fill="#000000" font-family="sans-serif" font-size="13" lengthAdjust="spacing" textLength="44" x="808.5" y="299.2139">create()</text><polygon fill="#A80036" points="1083,330.4219,1093,334.4219,1083,338.4219,1087,334.4219" style="stroke:#A80036;stroke-width:1.0;"/><line style="stroke:#A80036;stroke-width:1.0;" x1="942.5" x2="1089" y1="334.4219" y2="334.4219"/><text fill="#000000" font-family="sans-serif" font-size="13" lengthAdjust="spacing" textLength="44" x="949.5" y="329.5654">create()</text><polygon fill="#A80036" points="1228,360.7734,1238,364.7734,1228,368.7734,1232,364.7734" style="stroke:#A80036;stroke-width:1.0;"/><line style="stroke:#A80036;stroke-width:1.0;" x1="626.5" x2="1234" y1="364.7734" y2="364.7734"/><text fill="#000000" font-family="sans-serif" font-size="13" lengthAdjust="spacing" textLength="311" x="633.5" y="359.917">newQuestionnaire = new Questionnaire(id, title, etc...)</text><polygon fill="#A80036" points="1083,391.125,1093,395.125,1083,399.125,1087,395.125" style="stroke:#A80036;stroke-width:1.0;"/><line style="stroke:#A80036;stroke-width:1.0;" x1="621.5" x2="1089" y1="395.125" y2="395.125"/><text fill="#000000" font-family="sans-serif" font-size="13" lengthAdjust="spacing" textLength="137" x="628.5" y="390.2686">save(newQuestionnaire)</text><!--MD5=[b49c28d86dcf93b0a538e411de9e4028]
@startuml
'https://plantuml.com/class-diagram

actor SalesManager

SalesManager -> CreateQuestionnaireUI : asks to create a new questionnaire

activate CreateQuestionnaireUI
CreateQuestionnaireUI -> SalesManager : asks to type the necessary data(id, title, etc...)

SalesManager -> CreateQuestionnaireUI : types the requested data

control CreateQuestionnaireController
CreateQuestionnaireUI -> CreateQuestionnaireController : create()

activate CreateQuestionnaireController
CreateQuestionnaireUI -> CreateQuestionnaireController : registerNewQuestionnaire(id, title, etc...)

CreateQuestionnaireController -> PersistenceContext : repositories()

database RepositoryFactory #lightblue
PersistenceContext -> RepositoryFactory : create()

database QuestionnaireRepository #lightblue
RepositoryFactory -> QuestionnaireRepository : create()

CreateQuestionnaireController -> Questionnaire : newQuestionnaire = new Questionnaire(id, title, etc...)

CreateQuestionnaireController -> QuestionnaireRepository : save(newQuestionnaire)
deactivate CreateQuestionnaireController
@enduml

@startuml

actor SalesManager

SalesManager -> CreateQuestionnaireUI : asks to create a new questionnaire

activate CreateQuestionnaireUI
CreateQuestionnaireUI -> SalesManager : asks to type the necessary data(id, title, etc...)

SalesManager -> CreateQuestionnaireUI : types the requested data

control CreateQuestionnaireController
CreateQuestionnaireUI -> CreateQuestionnaireController : create()

activate CreateQuestionnaireController
CreateQuestionnaireUI -> CreateQuestionnaireController : registerNewQuestionnaire(id, title, etc...)

CreateQuestionnaireController -> PersistenceContext : repositories()

database RepositoryFactory #lightblue
PersistenceContext -> RepositoryFactory : create()

database QuestionnaireRepository #lightblue
RepositoryFactory -> QuestionnaireRepository : create()

CreateQuestionnaireController -> Questionnaire : newQuestionnaire = new Questionnaire(id, title, etc...)

CreateQuestionnaireController -> QuestionnaireRepository : save(newQuestionnaire)
deactivate CreateQuestionnaireController
@enduml

PlantUML version 1.2022.1(Tue Feb 01 18:19:58 GMT 2022)
(GPL source distribution)
Java Runtime: OpenJDK Runtime Environment
JVM: OpenJDK 64-Bit Server VM
Default Encoding: Cp1252
Language: en
Country: GB
--></g></svg>