<?xml version="1.0" encoding="UTF-8" standalone="no"?><svg xmlns="http://www.w3.org/2000/svg" xmlns:xlink="http://www.w3.org/1999/xlink" contentStyleType="text/css" height="1196.8px" preserveAspectRatio="none" style="width:1060px;height:1196px;background:#FFFFFF;" version="1.1" viewBox="0 0 1060 1196" width="1060px" zoomAndPan="magnify"><defs/><g><!--MD5=[a81f7aca4c07b9194780aa67bf6d0525]
cluster Customer--><g id="cluster_Customer"><path d="M338.04,257.488 L393.24,257.488 A3,3 0 0 1 395.24,259.488 L400.84,276.3755 L584.44,276.3755 A2,2 0 0 1 586.44,278.3755 L586.44,384.288 A2,2 0 0 1 584.44,386.288 L338.04,386.288 A2,2 0 0 1 336.04,384.288 L336.04,259.488 A2,2 0 0 1 338.04,257.488 " style="stroke:#000000;stroke-width:1.2000000000000002;fill:none;"/><line style="stroke:#000000;stroke-width:1.2000000000000002;fill:none;" x1="336.04" x2="400.84" y1="276.3755" y2="276.3755"/><text fill="#000000" font-family="sans-serif" font-size="11.2" font-weight="bold" lengthAdjust="spacing" textLength="54.4" x="339.24" y="270.7146">Customer</text><text fill="#000000" font-family="sans-serif" font-size="11.2" font-style="italic" lengthAdjust="spacing" textLength="64.8" x="432.04" y="289.6021">«aggregate»</text></g><!--MD5=[4badbd0983d6782c7244e9911fe17658]
cluster Product--><g id="cluster_Product"><path d="M441.24,767.888 L486.04,767.888 A3,3 0 0 1 488.04,769.888 L493.64,786.7755 L591.64,786.7755 A2,2 0 0 1 593.64,788.7755 L593.64,936.288 A2,2 0 0 1 591.64,938.288 L441.24,938.288 A2,2 0 0 1 439.24,936.288 L439.24,769.888 A2,2 0 0 1 441.24,767.888 " style="stroke:#000000;stroke-width:1.2000000000000002;fill:none;"/><line style="stroke:#000000;stroke-width:1.2000000000000002;fill:none;" x1="439.24" x2="493.64" y1="786.7755" y2="786.7755"/><text fill="#000000" font-family="sans-serif" font-size="11.2" font-weight="bold" lengthAdjust="spacing" textLength="44" x="442.44" y="781.1146">Product</text><text fill="#000000" font-family="sans-serif" font-size="11.2" font-style="italic" lengthAdjust="spacing" textLength="64.8" x="487.24" y="800.0021">«aggregate»</text></g><!--MD5=[88de0ccf86495d67286d611ce58f46c3]
cluster Product Category--><g id="cluster_Product Category"><path d="M425.24,1035.888 L523.64,1035.888 A3,3 0 0 1 525.64,1037.888 L531.24,1054.7755 L618.84,1054.7755 A2,2 0 0 1 620.84,1056.7755 L620.84,1189.888 A2,2 0 0 1 618.84,1191.888 L425.24,1191.888 A2,2 0 0 1 423.24,1189.888 L423.24,1037.888 A2,2 0 0 1 425.24,1035.888 " style="stroke:#000000;stroke-width:1.2000000000000002;fill:none;"/><line style="stroke:#000000;stroke-width:1.2000000000000002;fill:none;" x1="423.24" x2="531.24" y1="1054.7755" y2="1054.7755"/><text fill="#000000" font-family="sans-serif" font-size="11.2" font-weight="bold" lengthAdjust="spacing" textLength="97.6" x="426.44" y="1049.1146">Product Category</text><text fill="#000000" font-family="sans-serif" font-size="11.2" font-style="italic" lengthAdjust="spacing" textLength="64.8" x="492.84" y="1068.0021">«aggregate»</text></g><!--MD5=[848fe3c4a6f4fd6bd337dc73ed2ee5ae]
cluster Product Order--><g id="cluster_Product Order"><path d="M258.04,782.288 L338.84,782.288 A3,3 0 0 1 340.84,784.288 L346.44,801.1755 L405.24,801.1755 A2,2 0 0 1 407.24,803.1755 L407.24,921.888 A2,2 0 0 1 405.24,923.888 L258.04,923.888 A2,2 0 0 1 256.04,921.888 L256.04,784.288 A2,2 0 0 1 258.04,782.288 " style="stroke:#000000;stroke-width:1.2000000000000002;fill:none;"/><line style="stroke:#000000;stroke-width:1.2000000000000002;fill:none;" x1="256.04" x2="346.44" y1="801.1755" y2="801.1755"/><text fill="#000000" font-family="sans-serif" font-size="11.2" font-weight="bold" lengthAdjust="spacing" textLength="80" x="259.24" y="795.5146">Product Order</text><text fill="#000000" font-family="sans-serif" font-size="11.2" font-style="italic" lengthAdjust="spacing" textLength="64.8" x="302.44" y="814.4021">«aggregate»</text></g><!--MD5=[92ce8d0598fd53df473f664ce6bd1b2d]
cluster Warehouse--><g id="cluster_Warehouse"><path d="M607.64,97.488 L672.44,97.488 A3,3 0 0 1 674.44,99.488 L680.04,116.3755 L910.04,116.3755 A2,2 0 0 1 912.04,118.3755 L912.04,710.688 A2,2 0 0 1 910.04,712.688 L607.64,712.688 A2,2 0 0 1 605.64,710.688 L605.64,99.488 A2,2 0 0 1 607.64,97.488 " style="stroke:#000000;stroke-width:1.2000000000000002;fill:none;"/><line style="stroke:#000000;stroke-width:1.2000000000000002;fill:none;" x1="605.64" x2="680.04" y1="116.3755" y2="116.3755"/><text fill="#000000" font-family="sans-serif" font-size="11.2" font-weight="bold" lengthAdjust="spacing" textLength="64" x="608.84" y="110.7146">Warehouse</text><text fill="#000000" font-family="sans-serif" font-size="11.2" font-style="italic" lengthAdjust="spacing" textLength="64.8" x="729.64" y="129.6021">«aggregate»</text></g><!--MD5=[148a997a4ab8392850a35085eb511c12]
cluster AGV--><g id="cluster_AGV"><path d="M933.24,97.488 L957.24,97.488 A3,3 0 0 1 959.24,99.488 L964.84,116.3755 L1052.44,116.3755 A2,2 0 0 1 1054.44,118.3755 L1054.44,224.288 A2,2 0 0 1 1052.44,226.288 L933.24,226.288 A2,2 0 0 1 931.24,224.288 L931.24,99.488 A2,2 0 0 1 933.24,97.488 " style="stroke:#000000;stroke-width:1.2000000000000002;fill:none;"/><line style="stroke:#000000;stroke-width:1.2000000000000002;fill:none;" x1="931.24" x2="964.84" y1="116.3755" y2="116.3755"/><text fill="#000000" font-family="sans-serif" font-size="11.2" font-weight="bold" lengthAdjust="spacing" textLength="23.2" x="934.44" y="110.7146">AGV</text><text fill="#000000" font-family="sans-serif" font-size="11.2" font-style="italic" lengthAdjust="spacing" textLength="64.8" x="963.64" y="129.6021">«aggregate»</text></g><!--MD5=[84d3f071e6431aa8a96fc7886e57ab46]
cluster Questionnaire--><g id="cluster_Questionnaire"><path d="M77.24,257.888 L158.04,257.888 A3,3 0 0 1 160.04,259.888 L165.64,276.7755 L224.44,276.7755 A2,2 0 0 1 226.44,278.7755 L226.44,601.488 A2,2 0 0 1 224.44,603.488 L77.24,603.488 A2,2 0 0 1 75.24,601.488 L75.24,259.888 A2,2 0 0 1 77.24,257.888 " style="stroke:#000000;stroke-width:1.2000000000000002;fill:none;"/><line style="stroke:#000000;stroke-width:1.2000000000000002;fill:none;" x1="75.24" x2="165.64" y1="276.7755" y2="276.7755"/><text fill="#000000" font-family="sans-serif" font-size="11.2" font-weight="bold" lengthAdjust="spacing" textLength="80" x="78.44" y="271.1146">Questionnaire</text><text fill="#000000" font-family="sans-serif" font-size="11.2" font-style="italic" lengthAdjust="spacing" textLength="64.8" x="121.64" y="290.0021">«aggregate»</text></g><!--MD5=[9607dbee64fc485d3b4ed63494617e79]
cluster System User--><g id="cluster_System User"><path d="M74.04,97.888 L144.44,97.888 A3,3 0 0 1 146.44,99.888 L152.04,116.7755 L221.24,116.7755 A2,2 0 0 1 223.24,118.7755 L223.24,223.888 A2,2 0 0 1 221.24,225.888 L74.04,225.888 A2,2 0 0 1 72.04,223.888 L72.04,99.888 A2,2 0 0 1 74.04,97.888 " style="stroke:#000000;stroke-width:1.2000000000000002;fill:none;"/><line style="stroke:#000000;stroke-width:1.2000000000000002;fill:none;" x1="72.04" x2="152.04" y1="116.7755" y2="116.7755"/><text fill="#000000" font-family="sans-serif" font-size="11.2" font-weight="bold" lengthAdjust="spacing" textLength="69.6" x="75.24" y="111.1146">System User</text><text fill="#000000" font-family="sans-serif" font-size="11.2" font-style="italic" lengthAdjust="spacing" textLength="64.8" x="118.44" y="130.0021">«aggregate»</text></g><!--MD5=[402ec091c0efac1595576fb641ed7990]
cluster Answer--><g id="cluster_Answer"><path d="M250.84,104.288 L293.24,104.288 A3,3 0 0 1 295.24,106.288 L300.84,123.1755 L370.04,123.1755 A2,2 0 0 1 372.04,125.1755 L372.04,217.488 A2,2 0 0 1 370.04,219.488 L250.84,219.488 A2,2 0 0 1 248.84,217.488 L248.84,106.288 A2,2 0 0 1 250.84,104.288 " style="stroke:#000000;stroke-width:1.2000000000000002;fill:none;"/><line style="stroke:#000000;stroke-width:1.2000000000000002;fill:none;" x1="248.84" x2="300.84" y1="123.1755" y2="123.1755"/><text fill="#000000" font-family="sans-serif" font-size="11.2" font-weight="bold" lengthAdjust="spacing" textLength="41.6" x="252.04" y="117.5146">Answer</text><text fill="#000000" font-family="sans-serif" font-size="11.2" font-style="italic" lengthAdjust="spacing" textLength="64.8" x="281.24" y="136.4021">«aggregate»</text></g><!--MD5=[b3c0514fa69bffb9c22fb6650bde9461]
class customer--><g id="elem_customer"><rect codeLine="8" fill="#F1F1F1" height="73.125" id="customer" rx="2" ry="2" style="stroke:#181818;stroke-width:0.4000000000000001;" width="97.6" x="348.84" y="300.688"/><ellipse cx="360.84" cy="323.8067" fill="#ADD1B2" rx="8.8" ry="8.8" style="stroke:#181818;stroke-width:0.8000000000000002;"/><path d="M362.44,321.0067 Q362.6025,320.6068 362.79,320.4068 Q362.9775,320.2068 363.19,320.2068 Q363.565,320.2068 363.8025,320.4317 Q364.04,320.6568 364.04,321.1817 L364.04,322.4317 Q364.04,322.9568 363.815,323.1817 Q363.59,323.4068 363.24,323.4068 Q362.9275,323.4068 362.7275,323.2693 Q362.5275,323.1318 362.44,322.7693 Q362.4025,322.5193 362.265,322.3818 Q362.015,322.1192 361.565,321.9693 Q361.115,321.8067 360.665,321.8067 Q360.1025,321.8067 359.6275,322.0318 Q359.165,322.2568 358.8025,322.7568 Q358.44,323.2568 358.44,323.9443 L358.44,324.6817 Q358.44,325.5068 359.115,326.0567 Q359.79,326.6068 360.99,326.6068 Q361.7025,326.6068 362.2025,326.4443 Q362.49,326.3568 362.815,326.0693 Q363.0275,325.9068 363.14,325.8568 Q363.2525,325.8067 363.39,325.8067 Q363.6525,325.8067 363.84,326.0193 Q364.04,326.2193 364.04,326.5068 Q364.04,326.7818 363.765,327.1068 Q363.365,327.5818 362.7275,327.8443 Q361.89,328.2068 360.865,328.2068 Q359.665,328.2068 358.7025,327.7318 Q357.9275,327.3568 357.3775,326.5443 Q356.84,325.7318 356.84,324.7693 L356.84,323.8943 Q356.84,322.8943 357.315,322.0193 Q357.8025,321.1443 358.64,320.6817 Q359.49,320.2068 360.44,320.2068 Q361.015,320.2068 361.515,320.4068 Q362.015,320.6068 362.44,321.0067 Z " fill="#000000"/><text fill="#000000" font-family="sans-serif" font-size="9.6" font-style="italic" lengthAdjust="spacing" textLength="75.2" x="370.44" y="314.6536">«aggregate root»</text><text fill="#000000" font-family="sans-serif" font-size="9.6" font-style="italic" lengthAdjust="spacing" textLength="34.4" x="390.84" y="326.7286">«entity»</text><text fill="#000000" font-family="sans-serif" font-size="11.2" lengthAdjust="spacing" textLength="48.8" x="383.64" y="340.4646">Customer</text><line style="stroke:#181818;stroke-width:0.4000000000000001;" x1="349.64" x2="445.64" y1="346.9255" y2="346.9255"/><text fill="#000000" font-family="sans-serif" font-size="11.2" lengthAdjust="spacing" textLength="60.8" x="353.64" y="361.7521">String name</text><line style="stroke:#181818;stroke-width:0.4000000000000001;" x1="349.64" x2="445.64" y1="367.413" y2="367.413"/></g><!--MD5=[fcd76b3c463d68e3080587aa851a8d7e]
class shoppingCart--><g id="elem_shoppingCart"><rect codeLine="12" fill="#F1F1F1" height="46.9625" id="shoppingCart" rx="2" ry="2" style="stroke:#181818;stroke-width:0.4000000000000001;" width="98.4" x="474.84" y="313.488"/><ellipse cx="486.84" cy="330.5693" fill="#ADD1B2" rx="8.8" ry="8.8" style="stroke:#181818;stroke-width:0.8000000000000002;"/><path d="M488.44,327.7693 Q488.6025,327.3692 488.79,327.1693 Q488.9775,326.9693 489.19,326.9693 Q489.565,326.9693 489.8025,327.1943 Q490.04,327.4193 490.04,327.9443 L490.04,329.1943 Q490.04,329.7193 489.815,329.9443 Q489.59,330.1693 489.24,330.1693 Q488.9275,330.1693 488.7275,330.0318 Q488.5275,329.8943 488.44,329.5318 Q488.4025,329.2818 488.265,329.1443 Q488.015,328.8818 487.565,328.7318 Q487.115,328.5693 486.665,328.5693 Q486.1025,328.5693 485.6275,328.7943 Q485.165,329.0193 484.8025,329.5193 Q484.44,330.0193 484.44,330.7068 L484.44,331.4443 Q484.44,332.2693 485.115,332.8193 Q485.79,333.3692 486.99,333.3692 Q487.7025,333.3692 488.2025,333.2068 Q488.49,333.1192 488.815,332.8318 Q489.0275,332.6693 489.14,332.6192 Q489.2525,332.5693 489.39,332.5693 Q489.6525,332.5693 489.84,332.7818 Q490.04,332.9818 490.04,333.2693 Q490.04,333.5443 489.765,333.8692 Q489.365,334.3443 488.7275,334.6068 Q487.89,334.9693 486.865,334.9693 Q485.665,334.9693 484.7025,334.4942 Q483.9275,334.1192 483.3775,333.3067 Q482.84,332.4942 482.84,331.5318 L482.84,330.6568 Q482.84,329.6568 483.315,328.7818 Q483.8025,327.9068 484.64,327.4443 Q485.49,326.9693 486.44,326.9693 Q487.015,326.9693 487.515,327.1693 Q488.015,327.3692 488.44,327.7693 Z " fill="#000000"/><text fill="#000000" font-family="sans-serif" font-size="9.6" font-style="italic" lengthAdjust="spacing" textLength="64.8" x="502.04" y="327.4536">«value object»</text><text fill="#000000" font-family="sans-serif" font-size="11.2" lengthAdjust="spacing" textLength="72.8" x="498.04" y="341.1896">Shopping Cart</text><line style="stroke:#181818;stroke-width:0.4000000000000001;" x1="475.64" x2="572.44" y1="347.6505" y2="347.6505"/><line style="stroke:#181818;stroke-width:0.4000000000000001;" x1="475.64" x2="572.44" y1="354.0505" y2="354.0505"/></g><!--MD5=[e7a7e1f076ef42143f937b81d7de9aa7]
class product--><g id="elem_product"><rect codeLine="19" fill="#F1F1F1" height="101.3" id="product" rx="2" ry="2" style="stroke:#181818;stroke-width:0.4000000000000001;" width="100.8" x="473.64" y="817.488"/><ellipse cx="487.08" cy="840.6068" fill="#ADD1B2" rx="8.8" ry="8.8" style="stroke:#181818;stroke-width:0.8000000000000002;"/><path d="M488.68,837.8068 Q488.8425,837.4068 489.03,837.2068 Q489.2175,837.0068 489.43,837.0068 Q489.805,837.0068 490.0425,837.2318 Q490.28,837.4568 490.28,837.9818 L490.28,839.2318 Q490.28,839.7568 490.055,839.9818 Q489.83,840.2068 489.48,840.2068 Q489.1675,840.2068 488.9675,840.0693 Q488.7675,839.9318 488.68,839.5693 Q488.6425,839.3193 488.505,839.1818 Q488.255,838.9193 487.805,838.7693 Q487.355,838.6068 486.905,838.6068 Q486.3425,838.6068 485.8675,838.8318 Q485.405,839.0568 485.0425,839.5568 Q484.68,840.0568 484.68,840.7443 L484.68,841.4818 Q484.68,842.3068 485.355,842.8568 Q486.03,843.4068 487.23,843.4068 Q487.9425,843.4068 488.4425,843.2443 Q488.73,843.1568 489.055,842.8693 Q489.2675,842.7068 489.38,842.6568 Q489.4925,842.6068 489.63,842.6068 Q489.8925,842.6068 490.08,842.8193 Q490.28,843.0193 490.28,843.3068 Q490.28,843.5818 490.005,843.9068 Q489.605,844.3818 488.9675,844.6443 Q488.13,845.0068 487.105,845.0068 Q485.905,845.0068 484.9425,844.5318 Q484.1675,844.1568 483.6175,843.3443 Q483.08,842.5318 483.08,841.5693 L483.08,840.6943 Q483.08,839.6943 483.555,838.8193 Q484.0425,837.9443 484.88,837.4818 Q485.73,837.0068 486.68,837.0068 Q487.255,837.0068 487.755,837.2068 Q488.255,837.4068 488.68,837.8068 Z " fill="#000000"/><text fill="#000000" font-family="sans-serif" font-size="9.6" font-style="italic" lengthAdjust="spacing" textLength="75.2" x="497" y="831.4536">«aggregate root»</text><text fill="#000000" font-family="sans-serif" font-size="9.6" font-style="italic" lengthAdjust="spacing" textLength="34.4" x="517.4" y="843.5286">«entity»</text><text fill="#000000" font-family="sans-serif" font-size="11.2" lengthAdjust="spacing" textLength="39.2" x="515" y="857.2646">Product</text><line style="stroke:#181818;stroke-width:0.4000000000000001;" x1="474.44" x2="573.64" y1="863.7255" y2="863.7255"/><text fill="#000000" font-family="sans-serif" font-size="11.2" lengthAdjust="spacing" textLength="64" x="478.44" y="878.5521">int productID</text><text fill="#000000" font-family="sans-serif" font-size="11.2" lengthAdjust="spacing" textLength="91.2" x="478.44" y="892.6396">String brandName</text><text fill="#000000" font-family="sans-serif" font-size="11.2" lengthAdjust="spacing" textLength="81.6" x="478.44" y="906.7271">String reference</text><line style="stroke:#181818;stroke-width:0.4000000000000001;" x1="474.44" x2="573.64" y1="912.388" y2="912.388"/></g><!--MD5=[908f95910d057174bd5d392927c68b1b]
class productCategory--><g id="elem_productCategory"><rect codeLine="28" fill="#F1F1F1" height="87.2125" id="productCategory" rx="2" ry="2" style="stroke:#181818;stroke-width:0.4000000000000001;" width="143.2" x="458.04" y="1085.488"/><ellipse cx="484.44" cy="1108.6068" fill="#ADD1B2" rx="8.8" ry="8.8" style="stroke:#181818;stroke-width:0.8000000000000002;"/><path d="M486.04,1105.8068 Q486.2025,1105.4068 486.39,1105.2068 Q486.5775,1105.0068 486.79,1105.0068 Q487.165,1105.0068 487.4025,1105.2318 Q487.64,1105.4568 487.64,1105.9818 L487.64,1107.2318 Q487.64,1107.7568 487.415,1107.9818 Q487.19,1108.2068 486.84,1108.2068 Q486.5275,1108.2068 486.3275,1108.0693 Q486.1275,1107.9318 486.04,1107.5693 Q486.0025,1107.3193 485.865,1107.1818 Q485.615,1106.9193 485.165,1106.7693 Q484.715,1106.6068 484.265,1106.6068 Q483.7025,1106.6068 483.2275,1106.8318 Q482.765,1107.0568 482.4025,1107.5568 Q482.04,1108.0568 482.04,1108.7443 L482.04,1109.4818 Q482.04,1110.3068 482.715,1110.8568 Q483.39,1111.4068 484.59,1111.4068 Q485.3025,1111.4068 485.8025,1111.2443 Q486.09,1111.1568 486.415,1110.8693 Q486.6275,1110.7068 486.74,1110.6568 Q486.8525,1110.6068 486.99,1110.6068 Q487.2525,1110.6068 487.44,1110.8193 Q487.64,1111.0193 487.64,1111.3068 Q487.64,1111.5818 487.365,1111.9068 Q486.965,1112.3818 486.3275,1112.6443 Q485.49,1113.0068 484.465,1113.0068 Q483.265,1113.0068 482.3025,1112.5318 Q481.5275,1112.1568 480.9775,1111.3443 Q480.44,1110.5318 480.44,1109.5693 L480.44,1108.6943 Q480.44,1107.6943 480.915,1106.8193 Q481.4025,1105.9443 482.24,1105.4818 Q483.09,1105.0068 484.04,1105.0068 Q484.615,1105.0068 485.115,1105.2068 Q485.615,1105.4068 486.04,1105.8068 Z " fill="#000000"/><text fill="#000000" font-family="sans-serif" font-size="9.6" font-style="italic" lengthAdjust="spacing" textLength="75.2" x="504.04" y="1099.4536">«aggregate root»</text><text fill="#000000" font-family="sans-serif" font-size="9.6" font-style="italic" lengthAdjust="spacing" textLength="34.4" x="524.44" y="1111.5286">«entity»</text><text fill="#000000" font-family="sans-serif" font-size="11.2" lengthAdjust="spacing" textLength="85.6" x="498.84" y="1125.2646">ProductCategory</text><line style="stroke:#181818;stroke-width:0.4000000000000001;" x1="458.84" x2="600.44" y1="1131.7255" y2="1131.7255"/><text fill="#000000" font-family="sans-serif" font-size="11.2" lengthAdjust="spacing" textLength="86.4" x="462.84" y="1146.5521">int categoryCode</text><text fill="#000000" font-family="sans-serif" font-size="11.2" lengthAdjust="spacing" textLength="133.6" x="462.84" y="1160.6396">String categoryDescription</text><line style="stroke:#181818;stroke-width:0.4000000000000001;" x1="458.84" x2="600.44" y1="1166.3005" y2="1166.3005"/></g><!--MD5=[4b8bf84e45cc6536e71a20adcd54be6e]
class productOrder--><g id="elem_productOrder"><rect codeLine="36" fill="#F1F1F1" height="73.125" id="productOrder" rx="2" ry="2" style="stroke:#181818;stroke-width:0.4000000000000001;" width="97.6" x="290.44" y="831.888"/><ellipse cx="302.44" cy="855.0068" fill="#ADD1B2" rx="8.8" ry="8.8" style="stroke:#181818;stroke-width:0.8000000000000002;"/><path d="M304.04,852.2068 Q304.2025,851.8068 304.39,851.6068 Q304.5775,851.4068 304.79,851.4068 Q305.165,851.4068 305.4025,851.6318 Q305.64,851.8568 305.64,852.3818 L305.64,853.6318 Q305.64,854.1568 305.415,854.3818 Q305.19,854.6068 304.84,854.6068 Q304.5275,854.6068 304.3275,854.4693 Q304.1275,854.3318 304.04,853.9693 Q304.0025,853.7193 303.865,853.5818 Q303.615,853.3193 303.165,853.1693 Q302.715,853.0068 302.265,853.0068 Q301.7025,853.0068 301.2275,853.2318 Q300.765,853.4568 300.4025,853.9568 Q300.04,854.4568 300.04,855.1443 L300.04,855.8818 Q300.04,856.7068 300.715,857.2568 Q301.39,857.8068 302.59,857.8068 Q303.3025,857.8068 303.8025,857.6443 Q304.09,857.5568 304.415,857.2693 Q304.6275,857.1068 304.74,857.0568 Q304.8525,857.0068 304.99,857.0068 Q305.2525,857.0068 305.44,857.2193 Q305.64,857.4193 305.64,857.7068 Q305.64,857.9818 305.365,858.3068 Q304.965,858.7818 304.3275,859.0443 Q303.49,859.4068 302.465,859.4068 Q301.265,859.4068 300.3025,858.9318 Q299.5275,858.5568 298.9775,857.7443 Q298.44,856.9318 298.44,855.9693 L298.44,855.0943 Q298.44,854.0943 298.915,853.2193 Q299.4025,852.3443 300.24,851.8818 Q301.09,851.4068 302.04,851.4068 Q302.615,851.4068 303.115,851.6068 Q303.615,851.8068 304.04,852.2068 Z " fill="#000000"/><text fill="#000000" font-family="sans-serif" font-size="9.6" font-style="italic" lengthAdjust="spacing" textLength="75.2" x="312.04" y="845.8536">«aggregate root»</text><text fill="#000000" font-family="sans-serif" font-size="9.6" font-style="italic" lengthAdjust="spacing" textLength="34.4" x="332.44" y="857.9286">«entity»</text><text fill="#000000" font-family="sans-serif" font-size="11.2" lengthAdjust="spacing" textLength="68.8" x="315.24" y="871.6646">ProductOrder</text><line style="stroke:#181818;stroke-width:0.4000000000000001;" x1="291.24" x2="387.24" y1="878.1255" y2="878.1255"/><text fill="#000000" font-family="sans-serif" font-size="11.2" lengthAdjust="spacing" textLength="55.2" x="295.24" y="892.9521">int quantity</text><line style="stroke:#181818;stroke-width:0.4000000000000001;" x1="291.24" x2="387.24" y1="898.613" y2="898.613"/></g><!--MD5=[d97d4a208dedb56357fb47beb16f6d34]
class warehouse--><g id="elem_warehouse"><rect codeLine="43" fill="#F1F1F1" height="73.125" id="warehouse" rx="2" ry="2" style="stroke:#181818;stroke-width:0.4000000000000001;" width="154.4" x="618.84" y="140.688"/><ellipse cx="656.64" cy="163.8067" fill="#ADD1B2" rx="8.8" ry="8.8" style="stroke:#181818;stroke-width:0.8000000000000002;"/><path d="M658.24,161.0067 Q658.4025,160.6067 658.59,160.4067 Q658.7775,160.2067 658.99,160.2067 Q659.365,160.2067 659.6025,160.4317 Q659.84,160.6567 659.84,161.1817 L659.84,162.4317 Q659.84,162.9567 659.615,163.1817 Q659.39,163.4067 659.04,163.4067 Q658.7275,163.4067 658.5275,163.2692 Q658.3275,163.1317 658.24,162.7692 Q658.2025,162.5192 658.065,162.3817 Q657.815,162.1192 657.365,161.9692 Q656.915,161.8067 656.465,161.8067 Q655.9025,161.8067 655.4275,162.0317 Q654.965,162.2567 654.6025,162.7567 Q654.24,163.2567 654.24,163.9442 L654.24,164.6817 Q654.24,165.5067 654.915,166.0567 Q655.59,166.6067 656.79,166.6067 Q657.5025,166.6067 658.0025,166.4442 Q658.29,166.3567 658.615,166.0692 Q658.8275,165.9067 658.94,165.8567 Q659.0525,165.8067 659.19,165.8067 Q659.4525,165.8067 659.64,166.0192 Q659.84,166.2192 659.84,166.5067 Q659.84,166.7817 659.565,167.1067 Q659.165,167.5817 658.5275,167.8442 Q657.69,168.2067 656.665,168.2067 Q655.465,168.2067 654.5025,167.7317 Q653.7275,167.3567 653.1775,166.5442 Q652.64,165.7317 652.64,164.7692 L652.64,163.8942 Q652.64,162.8942 653.115,162.0192 Q653.6025,161.1442 654.44,160.6817 Q655.29,160.2067 656.24,160.2067 Q656.815,160.2067 657.315,160.4067 Q657.815,160.6067 658.24,161.0067 Z " fill="#000000"/><text fill="#000000" font-family="sans-serif" font-size="9.6" font-style="italic" lengthAdjust="spacing" textLength="75.2" x="671.44" y="154.6536">«aggregate root»</text><text fill="#000000" font-family="sans-serif" font-size="9.6" font-style="italic" lengthAdjust="spacing" textLength="34.4" x="691.84" y="166.7286">«entity»</text><text fill="#000000" font-family="sans-serif" font-size="11.2" lengthAdjust="spacing" textLength="58.4" x="679.84" y="180.4646">Warehouse</text><line style="stroke:#181818;stroke-width:0.4000000000000001;" x1="619.64" x2="772.44" y1="186.9255" y2="186.9255"/><text fill="#000000" font-family="sans-serif" font-size="11.2" lengthAdjust="spacing" textLength="144.8" x="623.64" y="201.7521">String warehouseDescription</text><line style="stroke:#181818;stroke-width:0.4000000000000001;" x1="619.64" x2="772.44" y1="207.413" y2="207.413"/></g><!--MD5=[384eafc785a5fe07175c6e2c8964ba86]
class aisle--><g id="elem_aisle"><rect codeLine="47" fill="#F1F1F1" height="61.05" id="aisle" rx="2" ry="2" style="stroke:#181818;stroke-width:0.4000000000000001;" width="58.4" x="642.84" y="306.688"/><ellipse cx="655.56" cy="323.7693" fill="#ADD1B2" rx="8.8" ry="8.8" style="stroke:#181818;stroke-width:0.8000000000000002;"/><path d="M657.16,320.9693 Q657.3225,320.5692 657.51,320.3692 Q657.6975,320.1693 657.91,320.1693 Q658.285,320.1693 658.5225,320.3943 Q658.76,320.6192 658.76,321.1443 L658.76,322.3943 Q658.76,322.9193 658.535,323.1443 Q658.31,323.3692 657.96,323.3692 Q657.6475,323.3692 657.4475,323.2318 Q657.2475,323.0943 657.16,322.7318 Q657.1225,322.4818 656.985,322.3443 Q656.735,322.0818 656.285,321.9317 Q655.835,321.7693 655.385,321.7693 Q654.8225,321.7693 654.3475,321.9942 Q653.885,322.2193 653.5225,322.7193 Q653.16,323.2193 653.16,323.9068 L653.16,324.6443 Q653.16,325.4693 653.835,326.0193 Q654.51,326.5693 655.71,326.5693 Q656.4225,326.5693 656.9225,326.4068 Q657.21,326.3193 657.535,326.0318 Q657.7475,325.8692 657.86,325.8193 Q657.9725,325.7693 658.11,325.7693 Q658.3725,325.7693 658.56,325.9818 Q658.76,326.1817 658.76,326.4693 Q658.76,326.7442 658.485,327.0693 Q658.085,327.5443 657.4475,327.8067 Q656.61,328.1693 655.585,328.1693 Q654.385,328.1693 653.4225,327.6943 Q652.6475,327.3193 652.0975,326.5068 Q651.56,325.6943 651.56,324.7318 L651.56,323.8568 Q651.56,322.8568 652.035,321.9818 Q652.5225,321.1068 653.36,320.6443 Q654.21,320.1693 655.16,320.1693 Q655.735,320.1693 656.235,320.3692 Q656.735,320.5692 657.16,320.9693 Z " fill="#000000"/><text fill="#000000" font-family="sans-serif" font-size="9.6" font-style="italic" lengthAdjust="spacing" textLength="34.4" x="665.32" y="320.6536">«entity»</text><text fill="#000000" font-family="sans-serif" font-size="11.2" lengthAdjust="spacing" textLength="24" x="670.52" y="334.3896">Aisle</text><line style="stroke:#181818;stroke-width:0.4000000000000001;" x1="643.64" x2="700.44" y1="340.8505" y2="340.8505"/><text fill="#000000" font-family="sans-serif" font-size="11.2" lengthAdjust="spacing" textLength="48.8" x="647.64" y="355.6771">int aisleID</text><line style="stroke:#181818;stroke-width:0.4000000000000001;" x1="643.64" x2="700.44" y1="361.338" y2="361.338"/></g><!--MD5=[f214b2444f882bf37bc0673e990bf32a]
class row--><g id="elem_row"><rect codeLine="51" fill="#F1F1F1" height="61.05" id="row" rx="2" ry="2" style="stroke:#181818;stroke-width:0.4000000000000001;" width="56.8" x="637.24" y="421.488"/><ellipse cx="649.24" cy="438.5693" fill="#ADD1B2" rx="8.8" ry="8.8" style="stroke:#181818;stroke-width:0.8000000000000002;"/><path d="M650.84,435.7693 Q651.0025,435.3693 651.19,435.1693 Q651.3775,434.9693 651.59,434.9693 Q651.965,434.9693 652.2025,435.1943 Q652.44,435.4193 652.44,435.9443 L652.44,437.1943 Q652.44,437.7193 652.215,437.9443 Q651.99,438.1693 651.64,438.1693 Q651.3275,438.1693 651.1275,438.0318 Q650.9275,437.8943 650.84,437.5318 Q650.8025,437.2818 650.665,437.1443 Q650.415,436.8818 649.965,436.7318 Q649.515,436.5693 649.065,436.5693 Q648.5025,436.5693 648.0275,436.7943 Q647.565,437.0193 647.2025,437.5193 Q646.84,438.0193 646.84,438.7068 L646.84,439.4443 Q646.84,440.2693 647.515,440.8193 Q648.19,441.3693 649.39,441.3693 Q650.1025,441.3693 650.6025,441.2068 Q650.89,441.1193 651.215,440.8318 Q651.4275,440.6693 651.54,440.6193 Q651.6525,440.5693 651.79,440.5693 Q652.0525,440.5693 652.24,440.7818 Q652.44,440.9818 652.44,441.2693 Q652.44,441.5443 652.165,441.8693 Q651.765,442.3443 651.1275,442.6068 Q650.29,442.9693 649.265,442.9693 Q648.065,442.9693 647.1025,442.4943 Q646.3275,442.1193 645.7775,441.3068 Q645.24,440.4943 645.24,439.5318 L645.24,438.6568 Q645.24,437.6568 645.715,436.7818 Q646.2025,435.9068 647.04,435.4443 Q647.89,434.9693 648.84,434.9693 Q649.415,434.9693 649.915,435.1693 Q650.415,435.3693 650.84,435.7693 Z " fill="#000000"/><text fill="#000000" font-family="sans-serif" font-size="9.6" font-style="italic" lengthAdjust="spacing" textLength="34.4" x="658.84" y="435.4536">«entity»</text><text fill="#000000" font-family="sans-serif" font-size="11.2" lengthAdjust="spacing" textLength="21.6" x="665.24" y="449.1896">Row</text><line style="stroke:#181818;stroke-width:0.4000000000000001;" x1="638.04" x2="693.24" y1="455.6505" y2="455.6505"/><text fill="#000000" font-family="sans-serif" font-size="11.2" lengthAdjust="spacing" textLength="43.2" x="642.04" y="470.4771">int rowID</text><line style="stroke:#181818;stroke-width:0.4000000000000001;" x1="638.04" x2="693.24" y1="476.138" y2="476.138"/></g><!--MD5=[5e68db498efbcfd3f5b35d430202073a]
class shelf--><g id="elem_shelf"><rect codeLine="55" fill="#F1F1F1" height="61.05" id="shelf" rx="2" ry="2" style="stroke:#181818;stroke-width:0.4000000000000001;" width="59.2" x="630.44" y="530.288"/><ellipse cx="643.52" cy="547.3693" fill="#ADD1B2" rx="8.8" ry="8.8" style="stroke:#181818;stroke-width:0.8000000000000002;"/><path d="M645.12,544.5693 Q645.2825,544.1693 645.47,543.9693 Q645.6575,543.7693 645.87,543.7693 Q646.245,543.7693 646.4825,543.9943 Q646.72,544.2193 646.72,544.7443 L646.72,545.9943 Q646.72,546.5193 646.495,546.7443 Q646.27,546.9693 645.92,546.9693 Q645.6075,546.9693 645.4075,546.8318 Q645.2075,546.6943 645.12,546.3318 Q645.0825,546.0818 644.945,545.9443 Q644.695,545.6818 644.245,545.5318 Q643.795,545.3693 643.345,545.3693 Q642.7825,545.3693 642.3075,545.5943 Q641.845,545.8193 641.4825,546.3193 Q641.12,546.8193 641.12,547.5068 L641.12,548.2443 Q641.12,549.0693 641.795,549.6193 Q642.47,550.1693 643.67,550.1693 Q644.3825,550.1693 644.8825,550.0068 Q645.17,549.9193 645.495,549.6318 Q645.7075,549.4693 645.82,549.4193 Q645.9325,549.3693 646.07,549.3693 Q646.3325,549.3693 646.52,549.5818 Q646.72,549.7818 646.72,550.0693 Q646.72,550.3443 646.445,550.6693 Q646.045,551.1443 645.4075,551.4068 Q644.57,551.7693 643.545,551.7693 Q642.345,551.7693 641.3825,551.2943 Q640.6075,550.9193 640.0575,550.1068 Q639.52,549.2943 639.52,548.3318 L639.52,547.4568 Q639.52,546.4568 639.995,545.5818 Q640.4825,544.7068 641.32,544.2443 Q642.17,543.7693 643.12,543.7693 Q643.695,543.7693 644.195,543.9693 Q644.695,544.1693 645.12,544.5693 Z " fill="#000000"/><text fill="#000000" font-family="sans-serif" font-size="9.6" font-style="italic" lengthAdjust="spacing" textLength="34.4" x="653.36" y="544.2536">«entity»</text><text fill="#000000" font-family="sans-serif" font-size="11.2" lengthAdjust="spacing" textLength="25.6" x="657.76" y="557.9896">Shelf</text><line style="stroke:#181818;stroke-width:0.4000000000000001;" x1="631.24" x2="688.84" y1="564.4505" y2="564.4505"/><text fill="#000000" font-family="sans-serif" font-size="11.2" lengthAdjust="spacing" textLength="49.6" x="635.24" y="579.2771">int shelfID</text><line style="stroke:#181818;stroke-width:0.4000000000000001;" x1="631.24" x2="688.84" y1="584.938" y2="584.938"/></g><!--MD5=[9ed231891ccbd3a035fa6853d7e85c45]
class bin--><g id="elem_bin"><rect codeLine="59" fill="#F1F1F1" height="61.05" id="bin" rx="2" ry="2" style="stroke:#181818;stroke-width:0.4000000000000001;" width="56.8" x="625.24" y="639.088"/><ellipse cx="637.24" cy="656.1693" fill="#ADD1B2" rx="8.8" ry="8.8" style="stroke:#181818;stroke-width:0.8000000000000002;"/><path d="M638.84,653.3693 Q639.0025,652.9693 639.19,652.7693 Q639.3775,652.5693 639.59,652.5693 Q639.965,652.5693 640.2025,652.7943 Q640.44,653.0193 640.44,653.5443 L640.44,654.7943 Q640.44,655.3193 640.215,655.5443 Q639.99,655.7693 639.64,655.7693 Q639.3275,655.7693 639.1275,655.6318 Q638.9275,655.4943 638.84,655.1318 Q638.8025,654.8818 638.665,654.7443 Q638.415,654.4818 637.965,654.3318 Q637.515,654.1693 637.065,654.1693 Q636.5025,654.1693 636.0275,654.3943 Q635.565,654.6193 635.2025,655.1193 Q634.84,655.6193 634.84,656.3068 L634.84,657.0443 Q634.84,657.8693 635.515,658.4193 Q636.19,658.9693 637.39,658.9693 Q638.1025,658.9693 638.6025,658.8068 Q638.89,658.7193 639.215,658.4318 Q639.4275,658.2693 639.54,658.2193 Q639.6525,658.1693 639.79,658.1693 Q640.0525,658.1693 640.24,658.3818 Q640.44,658.5818 640.44,658.8693 Q640.44,659.1443 640.165,659.4693 Q639.765,659.9443 639.1275,660.2068 Q638.29,660.5693 637.265,660.5693 Q636.065,660.5693 635.1025,660.0943 Q634.3275,659.7193 633.7775,658.9068 Q633.24,658.0943 633.24,657.1318 L633.24,656.2568 Q633.24,655.2568 633.715,654.3818 Q634.2025,653.5068 635.04,653.0443 Q635.89,652.5693 636.84,652.5693 Q637.415,652.5693 637.915,652.7693 Q638.415,652.9693 638.84,653.3693 Z " fill="#000000"/><text fill="#000000" font-family="sans-serif" font-size="9.6" font-style="italic" lengthAdjust="spacing" textLength="34.4" x="646.84" y="653.0536">«entity»</text><text fill="#000000" font-family="sans-serif" font-size="11.2" lengthAdjust="spacing" textLength="16" x="656.04" y="666.7896">Bin</text><line style="stroke:#181818;stroke-width:0.4000000000000001;" x1="626.04" x2="681.24" y1="673.2505" y2="673.2505"/><text fill="#000000" font-family="sans-serif" font-size="11.2" lengthAdjust="spacing" textLength="40.8" x="630.04" y="688.0771">int binID</text><line style="stroke:#181818;stroke-width:0.4000000000000001;" x1="626.04" x2="681.24" y1="693.738" y2="693.738"/></g><!--MD5=[c6f40c2fc1bdc39923a8010c0719f8b6]
class agvDocks--><g id="elem_agvDocks"><rect codeLine="63" fill="#F1F1F1" height="73.125" id="agvDocks" rx="2" ry="2" style="stroke:#181818;stroke-width:0.4000000000000001;" width="97.6" x="801.64" y="140.688"/><ellipse cx="813.64" cy="163.8067" fill="#ADD1B2" rx="8.8" ry="8.8" style="stroke:#181818;stroke-width:0.8000000000000002;"/><path d="M815.24,161.0067 Q815.4025,160.6067 815.59,160.4067 Q815.7775,160.2067 815.99,160.2067 Q816.365,160.2067 816.6025,160.4317 Q816.84,160.6567 816.84,161.1817 L816.84,162.4317 Q816.84,162.9567 816.615,163.1817 Q816.39,163.4067 816.04,163.4067 Q815.7275,163.4067 815.5275,163.2692 Q815.3275,163.1317 815.24,162.7692 Q815.2025,162.5192 815.065,162.3817 Q814.815,162.1192 814.365,161.9692 Q813.915,161.8067 813.465,161.8067 Q812.9025,161.8067 812.4275,162.0317 Q811.965,162.2567 811.6025,162.7567 Q811.24,163.2567 811.24,163.9442 L811.24,164.6817 Q811.24,165.5067 811.915,166.0567 Q812.59,166.6067 813.79,166.6067 Q814.5025,166.6067 815.0025,166.4442 Q815.29,166.3567 815.615,166.0692 Q815.8275,165.9067 815.94,165.8567 Q816.0525,165.8067 816.19,165.8067 Q816.4525,165.8067 816.64,166.0192 Q816.84,166.2192 816.84,166.5067 Q816.84,166.7817 816.565,167.1067 Q816.165,167.5817 815.5275,167.8442 Q814.69,168.2067 813.665,168.2067 Q812.465,168.2067 811.5025,167.7317 Q810.7275,167.3567 810.1775,166.5442 Q809.64,165.7317 809.64,164.7692 L809.64,163.8942 Q809.64,162.8942 810.115,162.0192 Q810.6025,161.1442 811.44,160.6817 Q812.29,160.2067 813.24,160.2067 Q813.815,160.2067 814.315,160.4067 Q814.815,160.6067 815.24,161.0067 Z " fill="#000000"/><text fill="#000000" font-family="sans-serif" font-size="9.6" font-style="italic" lengthAdjust="spacing" textLength="75.2" x="823.24" y="154.6536">«aggregate root»</text><text fill="#000000" font-family="sans-serif" font-size="9.6" font-style="italic" lengthAdjust="spacing" textLength="34.4" x="843.64" y="166.7286">«entity»</text><text fill="#000000" font-family="sans-serif" font-size="11.2" lengthAdjust="spacing" textLength="54.4" x="833.64" y="180.4646">AGVDocks</text><line style="stroke:#181818;stroke-width:0.4000000000000001;" x1="802.44" x2="898.44" y1="186.9255" y2="186.9255"/><text fill="#000000" font-family="sans-serif" font-size="11.2" lengthAdjust="spacing" textLength="75.2" x="806.44" y="201.7521">int agvDocksID</text><line style="stroke:#181818;stroke-width:0.4000000000000001;" x1="802.44" x2="898.44" y1="207.413" y2="207.413"/></g><!--MD5=[94b031f8eadbffe515a6b51aef59027b]
class agv--><g id="elem_agv"><rect codeLine="70" fill="#F1F1F1" height="73.125" id="agv" rx="2" ry="2" style="stroke:#181818;stroke-width:0.4000000000000001;" width="97.6" x="944.04" y="140.688"/><ellipse cx="956.04" cy="163.8067" fill="#ADD1B2" rx="8.8" ry="8.8" style="stroke:#181818;stroke-width:0.8000000000000002;"/><path d="M957.64,161.0067 Q957.8025,160.6067 957.99,160.4067 Q958.1775,160.2067 958.39,160.2067 Q958.765,160.2067 959.0025,160.4317 Q959.24,160.6567 959.24,161.1817 L959.24,162.4317 Q959.24,162.9567 959.015,163.1817 Q958.79,163.4067 958.44,163.4067 Q958.1275,163.4067 957.9275,163.2692 Q957.7275,163.1317 957.64,162.7692 Q957.6025,162.5192 957.465,162.3817 Q957.215,162.1192 956.765,161.9692 Q956.315,161.8067 955.865,161.8067 Q955.3025,161.8067 954.8275,162.0317 Q954.365,162.2567 954.0025,162.7567 Q953.64,163.2567 953.64,163.9442 L953.64,164.6817 Q953.64,165.5067 954.315,166.0567 Q954.99,166.6067 956.19,166.6067 Q956.9025,166.6067 957.4025,166.4442 Q957.69,166.3567 958.015,166.0692 Q958.2275,165.9067 958.34,165.8567 Q958.4525,165.8067 958.59,165.8067 Q958.8525,165.8067 959.04,166.0192 Q959.24,166.2192 959.24,166.5067 Q959.24,166.7817 958.965,167.1067 Q958.565,167.5817 957.9275,167.8442 Q957.09,168.2067 956.065,168.2067 Q954.865,168.2067 953.9025,167.7317 Q953.1275,167.3567 952.5775,166.5442 Q952.04,165.7317 952.04,164.7692 L952.04,163.8942 Q952.04,162.8942 952.515,162.0192 Q953.0025,161.1442 953.84,160.6817 Q954.69,160.2067 955.64,160.2067 Q956.215,160.2067 956.715,160.4067 Q957.215,160.6067 957.64,161.0067 Z " fill="#000000"/><text fill="#000000" font-family="sans-serif" font-size="9.6" font-style="italic" lengthAdjust="spacing" textLength="75.2" x="965.64" y="154.6536">«aggregate root»</text><text fill="#000000" font-family="sans-serif" font-size="9.6" font-style="italic" lengthAdjust="spacing" textLength="34.4" x="986.04" y="166.7286">«entity»</text><text fill="#000000" font-family="sans-serif" font-size="11.2" lengthAdjust="spacing" textLength="23.2" x="991.64" y="180.4646">AGV</text><line style="stroke:#181818;stroke-width:0.4000000000000001;" x1="944.84" x2="1040.84" y1="186.9255" y2="186.9255"/><text fill="#000000" font-family="sans-serif" font-size="11.2" lengthAdjust="spacing" textLength="44" x="948.84" y="201.7521">int agvID</text><line style="stroke:#181818;stroke-width:0.4000000000000001;" x1="944.84" x2="1040.84" y1="207.413" y2="207.413"/></g><!--MD5=[1e45513732f6a1f3cf180c6e999817c3]
class questionnaire--><g id="elem_questionnaire"><rect codeLine="77" fill="#F1F1F1" height="59.0375" id="questionnaire" rx="2" ry="2" style="stroke:#181818;stroke-width:0.4000000000000001;" width="97.6" x="109.64" y="307.488"/><ellipse cx="121.64" cy="330.6068" fill="#ADD1B2" rx="8.8" ry="8.8" style="stroke:#181818;stroke-width:0.8000000000000002;"/><path d="M123.24,327.8067 Q123.4025,327.4068 123.59,327.2068 Q123.7775,327.0068 123.99,327.0068 Q124.365,327.0068 124.6025,327.2318 Q124.84,327.4568 124.84,327.9818 L124.84,329.2318 Q124.84,329.7568 124.615,329.9818 Q124.39,330.2068 124.04,330.2068 Q123.7275,330.2068 123.5275,330.0693 Q123.3275,329.9317 123.24,329.5693 Q123.2025,329.3193 123.065,329.1817 Q122.815,328.9193 122.365,328.7693 Q121.915,328.6068 121.465,328.6068 Q120.9025,328.6068 120.4275,328.8318 Q119.965,329.0567 119.6025,329.5567 Q119.24,330.0567 119.24,330.7442 L119.24,331.4818 Q119.24,332.3067 119.915,332.8568 Q120.59,333.4068 121.79,333.4068 Q122.5025,333.4068 123.0025,333.2442 Q123.29,333.1568 123.615,332.8692 Q123.8275,332.7068 123.94,332.6568 Q124.0525,332.6068 124.19,332.6068 Q124.4525,332.6068 124.64,332.8193 Q124.84,333.0193 124.84,333.3067 Q124.84,333.5818 124.565,333.9068 Q124.165,334.3818 123.5275,334.6443 Q122.69,335.0068 121.665,335.0068 Q120.465,335.0068 119.5025,334.5318 Q118.7275,334.1568 118.1775,333.3443 Q117.64,332.5318 117.64,331.5693 L117.64,330.6943 Q117.64,329.6943 118.115,328.8193 Q118.6025,327.9443 119.44,327.4818 Q120.29,327.0068 121.24,327.0068 Q121.815,327.0068 122.315,327.2068 Q122.815,327.4068 123.24,327.8067 Z " fill="#000000"/><text fill="#000000" font-family="sans-serif" font-size="9.6" font-style="italic" lengthAdjust="spacing" textLength="75.2" x="131.24" y="321.4536">«aggregate root»</text><text fill="#000000" font-family="sans-serif" font-size="9.6" font-style="italic" lengthAdjust="spacing" textLength="34.4" x="151.64" y="333.5286">«entity»</text><text fill="#000000" font-family="sans-serif" font-size="11.2" lengthAdjust="spacing" textLength="71.2" x="133.24" y="347.2646">Questionnaire</text><line style="stroke:#181818;stroke-width:0.4000000000000001;" x1="110.44" x2="206.44" y1="353.7255" y2="353.7255"/><line style="stroke:#181818;stroke-width:0.4000000000000001;" x1="110.44" x2="206.44" y1="360.1255" y2="360.1255"/></g><!--MD5=[1ffab626cba4c07f5c6fa34103c3c89e]
class section--><g id="elem_section"><rect codeLine="81" fill="#F1F1F1" height="46.9625" id="section" rx="2" ry="2" style="stroke:#181818;stroke-width:0.4000000000000001;" width="63.2" x="139.64" y="428.288"/><ellipse cx="151.64" cy="445.3693" fill="#ADD1B2" rx="8.8" ry="8.8" style="stroke:#181818;stroke-width:0.8000000000000002;"/><path d="M153.24,442.5693 Q153.4025,442.1693 153.59,441.9693 Q153.7775,441.7693 153.99,441.7693 Q154.365,441.7693 154.6025,441.9943 Q154.84,442.2193 154.84,442.7443 L154.84,443.9943 Q154.84,444.5193 154.615,444.7443 Q154.39,444.9693 154.04,444.9693 Q153.7275,444.9693 153.5275,444.8318 Q153.3275,444.6943 153.24,444.3318 Q153.2025,444.0818 153.065,443.9443 Q152.815,443.6818 152.365,443.5318 Q151.915,443.3693 151.465,443.3693 Q150.9025,443.3693 150.4275,443.5943 Q149.965,443.8193 149.6025,444.3193 Q149.24,444.8193 149.24,445.5068 L149.24,446.2443 Q149.24,447.0693 149.915,447.6193 Q150.59,448.1693 151.79,448.1693 Q152.5025,448.1693 153.0025,448.0068 Q153.29,447.9193 153.615,447.6318 Q153.8275,447.4693 153.94,447.4193 Q154.0525,447.3693 154.19,447.3693 Q154.4525,447.3693 154.64,447.5818 Q154.84,447.7818 154.84,448.0693 Q154.84,448.3443 154.565,448.6693 Q154.165,449.1443 153.5275,449.4068 Q152.69,449.7693 151.665,449.7693 Q150.465,449.7693 149.5025,449.2943 Q148.7275,448.9193 148.1775,448.1068 Q147.64,447.2943 147.64,446.3318 L147.64,445.4568 Q147.64,444.4568 148.115,443.5818 Q148.6025,442.7068 149.44,442.2443 Q150.29,441.7693 151.24,441.7693 Q151.815,441.7693 152.315,441.9693 Q152.815,442.1693 153.24,442.5693 Z " fill="#000000"/><text fill="#000000" font-family="sans-serif" font-size="9.6" font-style="italic" lengthAdjust="spacing" textLength="34.4" x="164.44" y="442.2536">«entity»</text><text fill="#000000" font-family="sans-serif" font-size="11.2" lengthAdjust="spacing" textLength="37.6" x="162.84" y="455.9896">Section</text><line style="stroke:#181818;stroke-width:0.4000000000000001;" x1="140.44" x2="202.04" y1="462.4505" y2="462.4505"/><line style="stroke:#181818;stroke-width:0.4000000000000001;" x1="140.44" x2="202.04" y1="468.8505" y2="468.8505"/></g><!--MD5=[4e6c796a8c4768257c6a240e3e0a7d54]
class question--><g id="elem_question"><rect codeLine="85" fill="#F1F1F1" height="46.9625" id="question" rx="2" ry="2" style="stroke:#181818;stroke-width:0.4000000000000001;" width="71.2" x="135.64" y="537.088"/><ellipse cx="147.64" cy="554.1693" fill="#ADD1B2" rx="8.8" ry="8.8" style="stroke:#181818;stroke-width:0.8000000000000002;"/><path d="M149.24,551.3693 Q149.4025,550.9693 149.59,550.7693 Q149.7775,550.5693 149.99,550.5693 Q150.365,550.5693 150.6025,550.7943 Q150.84,551.0193 150.84,551.5443 L150.84,552.7943 Q150.84,553.3193 150.615,553.5443 Q150.39,553.7693 150.04,553.7693 Q149.7275,553.7693 149.5275,553.6318 Q149.3275,553.4943 149.24,553.1318 Q149.2025,552.8818 149.065,552.7443 Q148.815,552.4818 148.365,552.3318 Q147.915,552.1693 147.465,552.1693 Q146.9025,552.1693 146.4275,552.3943 Q145.965,552.6193 145.6025,553.1193 Q145.24,553.6193 145.24,554.3068 L145.24,555.0443 Q145.24,555.8693 145.915,556.4193 Q146.59,556.9693 147.79,556.9693 Q148.5025,556.9693 149.0025,556.8068 Q149.29,556.7193 149.615,556.4318 Q149.8275,556.2693 149.94,556.2193 Q150.0525,556.1693 150.19,556.1693 Q150.4525,556.1693 150.64,556.3818 Q150.84,556.5818 150.84,556.8693 Q150.84,557.1443 150.565,557.4693 Q150.165,557.9443 149.5275,558.2068 Q148.69,558.5693 147.665,558.5693 Q146.465,558.5693 145.5025,558.0943 Q144.7275,557.7193 144.1775,556.9068 Q143.64,556.0943 143.64,555.1318 L143.64,554.2568 Q143.64,553.2568 144.115,552.3818 Q144.6025,551.5068 145.44,551.0443 Q146.29,550.5693 147.24,550.5693 Q147.815,550.5693 148.315,550.7693 Q148.815,550.9693 149.24,551.3693 Z " fill="#000000"/><text fill="#000000" font-family="sans-serif" font-size="9.6" font-style="italic" lengthAdjust="spacing" textLength="34.4" x="164.44" y="551.0536">«entity»</text><text fill="#000000" font-family="sans-serif" font-size="11.2" lengthAdjust="spacing" textLength="45.6" x="158.84" y="564.7896">Question</text><line style="stroke:#181818;stroke-width:0.4000000000000001;" x1="136.44" x2="206.04" y1="571.2505" y2="571.2505"/><line style="stroke:#181818;stroke-width:0.4000000000000001;" x1="136.44" x2="206.04" y1="577.6505" y2="577.6505"/></g><!--MD5=[9b51b39a002fcaceb6f2a439d2a4081d]
class sys_user--><g id="elem_sys_user"><rect codeLine="91" fill="#F1F1F1" height="59.0375" id="sys_user" rx="2" ry="2" style="stroke:#181818;stroke-width:0.4000000000000001;" width="97.6" x="106.44" y="147.488"/><ellipse cx="118.44" cy="170.6067" fill="#A9DCDF" rx="8.8" ry="8.8" style="stroke:#181818;stroke-width:0.8000000000000002;"/><path d="M119.84,171.8067 L117.2025,171.8067 L116.8525,172.6067 L116.8525,172.6067 L117.2275,172.6067 L117.64,173.1067 L117.64,173.4067 L117.64,173.7067 L117.2275,174.2067 L116.8525,174.2067 L115.34,174.2067 L114.8525,174.2067 L114.44,173.7067 L114.44,173.4067 L114.44,173.1067 L114.8525,172.6067 L115.34,172.6067 L117.19,167.8067 L116.49,167.8067 L115.6525,167.8067 L115.24,167.3067 L115.24,167.0067 L115.24,166.7067 L115.6525,166.2067 L116.49,166.2067 L119.4275,166.2067 L121.5775,172.6067 L122.0275,172.6067 L122.0275,172.6067 L122.44,173.1067 L122.44,173.4067 L122.44,173.7067 L122.0275,174.2067 L121.5775,174.2067 L120.065,174.2067 L119.6525,174.2067 L119.24,173.7067 L119.24,173.4067 L119.24,173.1067 L119.6525,172.6067 L120.065,172.6067 L120.065,172.6067 L119.84,171.8067 Z M119.4025,170.2067 L118.44,167.3442 L117.615,170.2067 L119.4025,170.2067 Z " fill="#000000"/><text fill="#000000" font-family="sans-serif" font-size="9.6" font-style="italic" lengthAdjust="spacing" textLength="75.2" x="128.04" y="161.4536">«aggregate root»</text><text fill="#000000" font-family="sans-serif" font-size="9.6" font-style="italic" lengthAdjust="spacing" textLength="34.4" x="148.44" y="173.5286">«entity»</text><text fill="#000000" font-family="sans-serif" font-size="11.2" font-style="italic" lengthAdjust="spacing" textLength="60.8" x="135.24" y="187.2646">SystemUser</text><line style="stroke:#181818;stroke-width:0.4000000000000001;" x1="107.24" x2="203.24" y1="193.7255" y2="193.7255"/><line style="stroke:#181818;stroke-width:0.4000000000000001;" x1="107.24" x2="203.24" y1="200.1255" y2="200.1255"/></g><!--MD5=[fd6d893017fb799a6772c3849bcf07d7]
class answer--><g id="elem_answer"><rect codeLine="98" fill="#F1F1F1" height="59.0375" id="answer" rx="2" ry="2" style="stroke:#181818;stroke-width:0.4000000000000001;" width="97.6" x="261.64" y="147.488"/><ellipse cx="273.64" cy="170.6067" fill="#ADD1B2" rx="8.8" ry="8.8" style="stroke:#181818;stroke-width:0.8000000000000002;"/><path d="M275.24,167.8067 Q275.4025,167.4067 275.59,167.2067 Q275.7775,167.0067 275.99,167.0067 Q276.365,167.0067 276.6025,167.2317 Q276.84,167.4567 276.84,167.9817 L276.84,169.2317 Q276.84,169.7567 276.615,169.9817 Q276.39,170.2067 276.04,170.2067 Q275.7275,170.2067 275.5275,170.0692 Q275.3275,169.9317 275.24,169.5692 Q275.2025,169.3192 275.065,169.1817 Q274.815,168.9192 274.365,168.7692 Q273.915,168.6067 273.465,168.6067 Q272.9025,168.6067 272.4275,168.8317 Q271.965,169.0567 271.6025,169.5567 Q271.24,170.0567 271.24,170.7442 L271.24,171.4817 Q271.24,172.3067 271.915,172.8567 Q272.59,173.4067 273.79,173.4067 Q274.5025,173.4067 275.0025,173.2442 Q275.29,173.1567 275.615,172.8692 Q275.8275,172.7067 275.94,172.6567 Q276.0525,172.6067 276.19,172.6067 Q276.4525,172.6067 276.64,172.8192 Q276.84,173.0192 276.84,173.3067 Q276.84,173.5817 276.565,173.9067 Q276.165,174.3817 275.5275,174.6442 Q274.69,175.0067 273.665,175.0067 Q272.465,175.0067 271.5025,174.5317 Q270.7275,174.1567 270.1775,173.3442 Q269.64,172.5317 269.64,171.5692 L269.64,170.6942 Q269.64,169.6942 270.115,168.8192 Q270.6025,167.9442 271.44,167.4817 Q272.29,167.0067 273.24,167.0067 Q273.815,167.0067 274.315,167.2067 Q274.815,167.4067 275.24,167.8067 Z " fill="#000000"/><text fill="#000000" font-family="sans-serif" font-size="9.6" font-style="italic" lengthAdjust="spacing" textLength="75.2" x="283.24" y="161.4536">«aggregate root»</text><text fill="#000000" font-family="sans-serif" font-size="9.6" font-style="italic" lengthAdjust="spacing" textLength="34.4" x="303.64" y="173.5286">«entity»</text><text fill="#000000" font-family="sans-serif" font-size="11.2" lengthAdjust="spacing" textLength="36.8" x="302.44" y="187.2646">Answer</text><line style="stroke:#181818;stroke-width:0.4000000000000001;" x1="262.44" x2="358.44" y1="193.7255" y2="193.7255"/><line style="stroke:#181818;stroke-width:0.4000000000000001;" x1="262.44" x2="358.44" y1="200.1255" y2="200.1255"/></g><!--MD5=[bc0766c4a9553c76d67837444938be80]
link Product Order to Product--><!--MD5=[3a5bdd2fca33ccb4af503135bd1ce176]
link Product to Product Category--><!--MD5=[8e90118bfd976602fe0ef5414ce9dd68]
link System User to Questionnaire--><!--MD5=[fb49490e9895f8f3186664c064bd5d5c]
link product to productCategory--><g id="link_product_productCategory"><path codeLine="108" d="M525.128,919.368 C526.136,966.248 527.64,1035.608 528.624,1081.368 " fill="none" id="product-to-productCategory" style="stroke:#181818;stroke-width:0.8000000000000002;"/><polygon fill="#181818" points="528.712,1085.448,531.7466,1078.1768,528.6206,1081.449,525.3483,1078.323,528.712,1085.448" style="stroke:#181818;stroke-width:0.8000000000000002;"/><text fill="#000000" font-family="sans-serif" font-size="10.4" lengthAdjust="spacing" textLength="4" x="521.034" y="936.1217">*</text><text fill="#000000" font-family="sans-serif" font-size="10.4" lengthAdjust="spacing" textLength="5.6" x="522.6111" y="1076.738">1</text></g><!--MD5=[f121ce86b3af4fe7da002b183663efd8]
link productOrder to product--><g id="link_productOrder_product"><path codeLine="110" d="M355.84,831.624 C374.96,795.568 409.848,746.632 456.44,751.888 C462.784,752.6 465.464,751.088 470.44,755.088 C488.792,769.832 501.208,792.344 509.424,813.424 " fill="none" id="productOrder-to-product" style="stroke:#181818;stroke-width:0.8000000000000002;"/><polygon fill="#181818" points="510.912,817.344,511.3592,809.4776,509.4975,813.6024,505.3727,811.7408,510.912,817.344" style="stroke:#181818;stroke-width:0.8000000000000002;"/><text fill="#000000" font-family="sans-serif" font-size="10.4" lengthAdjust="spacing" textLength="5.6" x="352.2669" y="823.2919">1</text><text fill="#000000" font-family="sans-serif" font-size="10.4" lengthAdjust="spacing" textLength="19.2" x="489.0841" y="808.7433">1...*</text></g><!--MD5=[33dc353fc4ffbfc0093bf5d92b7c30b8]
link shoppingCart to product--><g id="link_shoppingCart_product"><path codeLine="112" d="M524.04,360.896 C524.04,401.216 524.04,487.24 524.04,559.888 C524.04,559.888 524.04,559.888 524.04,670.288 C524.04,718.696 524.04,773.784 524.04,813.416 " fill="none" id="shoppingCart-to-product" style="stroke:#181818;stroke-width:0.8000000000000002;"/><polygon fill="#181818" points="524.04,817.44,527.24,810.24,524.04,813.44,520.84,810.24,524.04,817.44" style="stroke:#181818;stroke-width:0.8000000000000002;"/><text fill="#000000" font-family="sans-serif" font-size="10.4" lengthAdjust="spacing" textLength="5.6" x="517.8888" y="377.6904">1</text><text fill="#000000" font-family="sans-serif" font-size="10.4" lengthAdjust="spacing" textLength="19.2" x="525.15" y="808.8504">1...*</text></g><!--MD5=[19f2059be0687482a4a3c3aebef4c059]
link customer to shoppingCart--><g id="link_customer_shoppingCart"><path codeLine="114" d="M446.52,337.088 C454.512,337.088 462.504,337.088 470.504,337.088 " fill="none" id="customer-to-shoppingCart" style="stroke:#181818;stroke-width:0.8000000000000002;"/><polygon fill="#181818" points="474.68,337.088,467.48,333.888,470.68,337.088,467.48,340.288,474.68,337.088" style="stroke:#181818;stroke-width:0.8000000000000002;"/><text fill="#000000" font-family="sans-serif" font-size="10.4" lengthAdjust="spacing" textLength="5.6" x="462.723" y="334.3357">1</text></g><!--MD5=[28fe1fce8a44e47aa88cbf217eeca6d6]
link warehouse to aisle--><g id="link_warehouse_aisle"><path codeLine="116" d="M690.592,213.832 C686.56,240.432 681.112,276.424 677.16,302.496 " fill="none" id="warehouse-to-aisle" style="stroke:#181818;stroke-width:0.8000000000000002;"/><polygon fill="#181818" points="676.536,306.592,680.7893,299.9595,677.1417,302.6381,674.4631,298.9905,676.536,306.592" style="stroke:#181818;stroke-width:0.8000000000000002;"/><text fill="#000000" font-family="sans-serif" font-size="10.4" lengthAdjust="spacing" textLength="5.6" x="683.7806" y="230.9617">1</text><text fill="#000000" font-family="sans-serif" font-size="10.4" lengthAdjust="spacing" textLength="4" x="672.9806" y="298.0188">*</text></g><!--MD5=[9165c26ebeee24ac103e19e07bf1809d]
link warehouse to agvDocks--><g id="link_warehouse_agvDocks"><path codeLine="117" d="M773.544,177.088 C781.472,177.088 789.4,177.088 797.328,177.088 " fill="none" id="warehouse-to-agvDocks" style="stroke:#181818;stroke-width:0.8000000000000002;"/><polygon fill="#181818" points="801.48,177.088,794.28,173.888,797.48,177.088,794.28,180.288,801.48,177.088" style="stroke:#181818;stroke-width:0.8000000000000002;"/><text fill="#000000" font-family="sans-serif" font-size="10.4" lengthAdjust="spacing" textLength="5.6" x="779.6923" y="174.5924">1</text><text fill="#000000" font-family="sans-serif" font-size="10.4" lengthAdjust="spacing" textLength="4" x="791.2693" y="174.3014">*</text></g><!--MD5=[5728f22cea61ebc6f6bd0debf332fd6b]
link aisle to row--><g id="link_aisle_row"><path codeLine="119" d="M670.36,367.632 C669.504,382.784 668.456,401.28 667.568,417.008 " fill="none" id="aisle-to-row" style="stroke:#181818;stroke-width:0.8000000000000002;"/><polygon fill="#181818" points="667.328,421.152,670.9347,414.1469,667.5569,417.1586,664.5452,413.7807,667.328,421.152" style="stroke:#181818;stroke-width:0.8000000000000002;"/><text fill="#000000" font-family="sans-serif" font-size="10.4" lengthAdjust="spacing" textLength="5.6" x="663.962" y="385.0115">1</text><text fill="#000000" font-family="sans-serif" font-size="10.4" lengthAdjust="spacing" textLength="4" x="663.2744" y="412.768">*</text></g><!--MD5=[8ec6c056131cdf571ee2ccb7744d6214]
link row to shelf--><g id="link_row_shelf"><path codeLine="121" d="M664.08,482.552 C663.376,496.024 662.544,512.008 661.816,525.936 " fill="none" id="row-to-shelf" style="stroke:#181818;stroke-width:0.8000000000000002;"/><polygon fill="#181818" points="661.592,530.184,665.1576,523.1579,661.7974,526.1893,658.766,522.8291,661.592,530.184" style="stroke:#181818;stroke-width:0.8000000000000002;"/><text fill="#000000" font-family="sans-serif" font-size="10.4" lengthAdjust="spacing" textLength="5.6" x="657.7306" y="499.7212">1</text><text fill="#000000" font-family="sans-serif" font-size="10.4" lengthAdjust="spacing" textLength="4" x="657.5122" y="521.6094">*</text></g><!--MD5=[41d94d20a25650fd4013af8d2c844288]
link shelf to bin--><g id="link_shelf_bin"><path codeLine="123" d="M658.256,591.352 C657.448,604.824 656.496,620.808 655.664,634.736 " fill="none" id="shelf-to-bin" style="stroke:#181818;stroke-width:0.8000000000000002;"/><polygon fill="#181818" points="655.416,638.984,659.0427,631.9892,655.6563,634.9912,652.6542,631.6048,655.416,638.984" style="stroke:#181818;stroke-width:0.8000000000000002;"/><text fill="#000000" font-family="sans-serif" font-size="10.4" lengthAdjust="spacing" textLength="5.6" x="651.8681" y="608.5212">1</text><text fill="#000000" font-family="sans-serif" font-size="10.4" lengthAdjust="spacing" textLength="4" x="651.3761" y="630.4094">*</text></g><!--MD5=[5591381dac901e2332c1490255bf2166]
link bin to product--><g id="link_bin_product"><path codeLine="125" d="M634.096,700.024 C614.368,730.04 583.456,777.072 559.416,813.664 " fill="none" id="bin-to-product" style="stroke:#181818;stroke-width:0.8000000000000002;"/><polygon fill="#181818" points="557.112,817.168,563.7348,812.8997,559.3044,813.8223,558.3818,809.3919,557.112,817.168" style="stroke:#181818;stroke-width:0.8000000000000002;"/><text fill="#000000" font-family="sans-serif" font-size="10.4" lengthAdjust="spacing" textLength="5.6" x="624.516" y="717.4021">1</text><text fill="#000000" font-family="sans-serif" font-size="10.4" lengthAdjust="spacing" textLength="19.2" x="561.7793" y="808.9046">1...*</text></g><!--MD5=[4bd9aa9ba520ff468808d37bd699bd76]
link questionnaire to section--><g id="link_questionnaire_section"><path codeLine="127" d="M161.704,366.744 C163.688,384.336 166.216,406.664 168.168,423.936 " fill="none" id="questionnaire-to-section" style="stroke:#181818;stroke-width:0.8000000000000002;"/><polygon fill="#181818" points="168.624,427.984,170.9809,420.4657,168.1672,424.0102,164.6228,421.1965,168.624,427.984" style="stroke:#181818;stroke-width:0.8000000000000002;"/><text fill="#000000" font-family="sans-serif" font-size="10.4" lengthAdjust="spacing" textLength="5.6" x="156.1838" y="383.7754">1</text><text fill="#000000" font-family="sans-serif" font-size="10.4" lengthAdjust="spacing" textLength="19.2" x="146.9045" y="419.7834">1...*</text></g><!--MD5=[d50e62da8f98837e09c214f0ac13d388]
link section to question--><g id="link_section_question"><path codeLine="129" d="M171.24,475.688 C171.24,492.432 171.24,515.168 171.24,532.792 " fill="none" id="section-to-question" style="stroke:#181818;stroke-width:0.8000000000000002;"/><polygon fill="#181818" points="171.24,536.928,174.44,529.728,171.24,532.928,168.04,529.728,171.24,536.928" style="stroke:#181818;stroke-width:0.8000000000000002;"/><text fill="#000000" font-family="sans-serif" font-size="10.4" lengthAdjust="spacing" textLength="5.6" x="165.0888" y="492.4808">1</text><text fill="#000000" font-family="sans-serif" font-size="10.4" lengthAdjust="spacing" textLength="19.2" x="149.94" y="528.3833">1...*</text></g><!--MD5=[c6f2e4245aaa1656bb08419540633398]
link agvDocks to agv--><g id="link_agvDocks_agv"><path codeLine="131" d="M899.392,201.72 C912.84,204.944 926.296,205.248 939.752,202.624 " fill="none" id="agvDocks-to-agv" style="stroke:#181818;stroke-width:0.8000000000000002;"/><polygon fill="#181818" points="943.92,201.712,936.2061,200.107,940.0105,202.5579,937.5596,206.3623,943.92,201.712" style="stroke:#181818;stroke-width:0.8000000000000002;"/><text fill="#000000" font-family="sans-serif" font-size="10.4" lengthAdjust="spacing" textLength="5.6" x="905.6993" y="201.9355">1</text><text fill="#000000" font-family="sans-serif" font-size="10.4" lengthAdjust="spacing" textLength="4" x="933.7141" y="146.6764">*</text></g><!--MD5=[32cac4a4f101446af0bb77e6e674735b]
link sys_user to questionnaire--><g id="link_sys_user_questionnaire"><path codeLine="133" d="M155.824,206.944 C156.376,234.184 157.2,274.872 157.776,303.312 " fill="none" id="sys_user-to-questionnaire" style="stroke:#181818;stroke-width:0.8000000000000002;"/><polygon fill="#181818" points="157.856,307.416,160.9114,300.1535,157.776,303.4168,154.5127,300.2814,157.856,307.416" style="stroke:#181818;stroke-width:0.8000000000000002;"/></g><!--MD5=[c3f951f928f8c6afe852361c630f6458]
link sys_user to warehouse--><g id="link_sys_user_warehouse"><path codeLine="134" d="M172.632,147.272 C191,119.072 222.808,78.56 262.84,61.088 C391.816,4.8 554.616,85.824 639.176,138.32 " fill="none" id="sys_user-to-warehouse" style="stroke:#181818;stroke-width:0.8000000000000002;"/><polygon fill="#181818" points="642.648,140.48,638.2285,133.9571,639.2528,138.3651,634.8448,139.3894,642.648,140.48" style="stroke:#181818;stroke-width:0.8000000000000002;"/></g><!--MD5=[ca4efc76db44d42ea8eec386ed0970f8]
link sys_user to product--><g id="link_sys_user_product"><path codeLine="135" d="M136.944,206.888 C128.144,218.528 116.592,230.976 103.24,238.688 C89.768,246.464 79.608,233.864 68.84,245.088 C4.8,311.824 39.24,358.592 39.24,451.088 C39.24,451.088 39.24,451.088 39.24,670.288 C39.24,865.6 316.144,635.336 470.44,755.088 C489.088,769.56 501.584,792.144 509.776,813.28 " fill="none" id="sys_user-to-product" style="stroke:#181818;stroke-width:0.8000000000000002;"/><polygon fill="#181818" points="511.256,817.2,511.7163,809.3344,509.8477,813.4561,505.726,811.5876,511.256,817.2" style="stroke:#181818;stroke-width:0.8000000000000002;"/></g><!--MD5=[b401e01a754826fbbbbf74adbd4ffeca]
link answer to questionnaire--><g id="link_answer_questionnaire"><path codeLine="137" d="M271.728,206.824 C257.616,218.112 241.928,231.576 228.84,245.088 C211.152,263.344 193.672,285.952 180.56,304.088 " fill="none" id="answer-to-questionnaire" style="stroke:#181818;stroke-width:0.8000000000000002;"/><polygon fill="#181818" points="178.16,307.424,184.9595,303.4432,180.4936,304.1753,179.7615,299.7094,178.16,307.424" style="stroke:#181818;stroke-width:0.8000000000000002;"/><text fill="#000000" font-family="sans-serif" font-size="10.4" lengthAdjust="spacing" textLength="5.6" x="259.2526" y="223.6419">1</text><text fill="#000000" font-family="sans-serif" font-size="10.4" lengthAdjust="spacing" textLength="19.2" x="160.8259" y="298.8117">1...*</text></g><!--MD5=[1d014a777634422172197bbc64f24e55]
link answer to section--><g id="link_answer_section"><path codeLine="138" d="M299.784,206.848 C280.92,257.536 241.744,360.048 221.64,392.688 C214.632,404.064 205.44,415.432 196.824,425.08 " fill="none" id="answer-to-section" style="stroke:#181818;stroke-width:0.8000000000000002;"/><polygon fill="#181818" points="193.928,428.288,201.1231,425.077,196.6039,425.3148,196.366,420.7956,193.928,428.288" style="stroke:#181818;stroke-width:0.8000000000000002;"/><text fill="#000000" font-family="sans-serif" font-size="10.4" lengthAdjust="spacing" textLength="5.6" x="291.9554" y="223.6698">1</text><text fill="#000000" font-family="sans-serif" font-size="10.4" lengthAdjust="spacing" textLength="19.2" x="177.591" y="419.7783">1...*</text></g><!--MD5=[68e6730af2b7cd9aaf3a43685718cc5a]
link answer to question--><g id="link_answer_question"><path codeLine="139" d="M308.944,206.936 C306.016,249.088 297.536,329.12 273.64,392.688 C253.416,446.488 215.32,502.056 191.728,533.656 " fill="none" id="answer-to-question" style="stroke:#181818;stroke-width:0.8000000000000002;"/><polygon fill="#181818" points="189.208,537.008,196.0946,533.1798,191.6135,533.8121,190.9812,529.331,189.208,537.008" style="stroke:#181818;stroke-width:0.8000000000000002;"/><text fill="#000000" font-family="sans-serif" font-size="10.4" lengthAdjust="spacing" textLength="5.6" x="302.6325" y="223.7724">1</text><text fill="#000000" font-family="sans-serif" font-size="10.4" lengthAdjust="spacing" textLength="19.2" x="195.2385" y="528.4808">1...*</text></g><!--MD5=[20be8bb29678946d23bc2ecaeca9115d]
link answer to customer--><g id="link_answer_customer"><path codeLine="140" d="M326.432,206.944 C340.312,232.16 360.536,268.896 375.888,296.776 " fill="none" id="answer-to-customer" style="stroke:#181818;stroke-width:0.8000000000000002;"/><polygon fill="#181818" points="377.928,300.48,377.2591,292.6294,375.999,296.9759,371.6525,295.7157,377.928,300.48" style="stroke:#181818;stroke-width:0.8000000000000002;"/><text fill="#000000" font-family="sans-serif" font-size="10.4" lengthAdjust="spacing" textLength="5.6" x="323.0169" y="223.7817">1</text><text fill="#000000" font-family="sans-serif" font-size="10.4" lengthAdjust="spacing" textLength="19.2" x="354.2396" y="291.8871">1...*</text></g><!--MD5=[fb121d628b9b22c057f1ab4a34acfe13]
@startuml Domain Module
'https://plantuml.com/class-diagram

'skinparam linetype ortho
'skinparam linetype polyline

package "Customer" <<aggregate>> {

    class "Customer" as customer <<aggregate root>> <<entity>>{
        String name
    }

    class "Shopping Cart" as shoppingCart <<value object>>  {

    }
}

package "Product" <<aggregate>> {

    class "Product" as product <<aggregate root>> <<entity>>{
        int productID
        String brandName
        String reference
    }
}

package "Product Category" <<aggregate>> {

    class "ProductCategory" as productCategory <<aggregate root>> <<entity>>{
        int categoryCode
        String categoryDescription
    }
}

package "Product Order" <<aggregate>> {

    class "ProductOrder" as productOrder <<aggregate root>> <<entity>>{
        int quantity
    }
}

package "Warehouse" <<aggregate>> {

    class "Warehouse" as warehouse <<aggregate root>> <<entity>>{
        String warehouseDescription
    }

    class "Aisle" as aisle <<entity>>{
        int aisleID
    }

    class "Row" as row <<entity>>{
        int rowID
    }

    class "Shelf" as shelf <<entity>>{
        int shelfID
    }

    class "Bin" as bin <<entity>>{
        int binID
    }

    class "AGVDocks" as agvDocks <<aggregate root>> <<entity>>{
        int agvDocksID
    }
}

package "AGV" <<aggregate>> {

    class "AGV" as agv <<aggregate root>> <<entity>>{
        int agvID
    }
}


package "Questionnaire" <<aggregate>> {
    class "Questionnaire" as questionnaire <<aggregate root>> <<entity>>{

    }

    class "Section" as section <<entity>>{

    }

    class "Question" as question <<entity>>{

    }
}

package "System User" <<aggregate>> {
    abstract class  "SystemUser" as sys_user <<aggregate root>> <<entity>>{

    }
}

package "Answer" <<aggregate>> {

    class "Answer" as answer <<aggregate root>> <<entity>>{

    }
}

"Product Order" -left[hidden] "Product"
"Product" -down[hidden]- - -> "Product Category"

"System User" -down[hidden]-> "Questionnaire"

product "*" -> "1" productCategory

productOrder "1" -> "1...*" product

shoppingCart "1" -> "1...*" product

customer -> "1" shoppingCart

warehouse "1" - -> "*" aisle
warehouse "1" -> "*" agvDocks

aisle "1" - -> "*" row

row "1" - -> "*" shelf

shelf "1" - -> "*" bin

bin "1" - - -> "1...*" product

questionnaire "1" - -> "1...*" section

section "1" - -> "1...*" question

agvDocks "1" -> "*" agv

sys_user -> questionnaire
sys_user -> warehouse
sys_user - - -> product

answer "1" - -> "1...*" questionnaire
answer "1" - -> "1...*" section
answer "1" - -> "1...*" question
answer "1" - -> "1...*" customer

@enduml

@startuml Domain Module


package "Customer" <<aggregate>> {

    class "Customer" as customer <<aggregate root>> <<entity>>{
        String name
    }

    class "Shopping Cart" as shoppingCart <<value object>>  {

    }
}

package "Product" <<aggregate>> {

    class "Product" as product <<aggregate root>> <<entity>>{
        int productID
        String brandName
        String reference
    }
}

package "Product Category" <<aggregate>> {

    class "ProductCategory" as productCategory <<aggregate root>> <<entity>>{
        int categoryCode
        String categoryDescription
    }
}

package "Product Order" <<aggregate>> {

    class "ProductOrder" as productOrder <<aggregate root>> <<entity>>{
        int quantity
    }
}

package "Warehouse" <<aggregate>> {

    class "Warehouse" as warehouse <<aggregate root>> <<entity>>{
        String warehouseDescription
    }

    class "Aisle" as aisle <<entity>>{
        int aisleID
    }

    class "Row" as row <<entity>>{
        int rowID
    }

    class "Shelf" as shelf <<entity>>{
        int shelfID
    }

    class "Bin" as bin <<entity>>{
        int binID
    }

    class "AGVDocks" as agvDocks <<aggregate root>> <<entity>>{
        int agvDocksID
    }
}

package "AGV" <<aggregate>> {

    class "AGV" as agv <<aggregate root>> <<entity>>{
        int agvID
    }
}


package "Questionnaire" <<aggregate>> {
    class "Questionnaire" as questionnaire <<aggregate root>> <<entity>>{

    }

    class "Section" as section <<entity>>{

    }

    class "Question" as question <<entity>>{

    }
}

package "System User" <<aggregate>> {
    abstract class  "SystemUser" as sys_user <<aggregate root>> <<entity>>{

    }
}

package "Answer" <<aggregate>> {

    class "Answer" as answer <<aggregate root>> <<entity>>{

    }
}

"Product Order" -left[hidden] "Product"
"Product" -down[hidden]- - -> "Product Category"

"System User" -down[hidden]-> "Questionnaire"

product "*" -> "1" productCategory

productOrder "1" -> "1...*" product

shoppingCart "1" -> "1...*" product

customer -> "1" shoppingCart

warehouse "1" - -> "*" aisle
warehouse "1" -> "*" agvDocks

aisle "1" - -> "*" row

row "1" - -> "*" shelf

shelf "1" - -> "*" bin

bin "1" - - -> "1...*" product

questionnaire "1" - -> "1...*" section

section "1" - -> "1...*" question

agvDocks "1" -> "*" agv

sys_user -> questionnaire
sys_user -> warehouse
sys_user - - -> product

answer "1" - -> "1...*" questionnaire
answer "1" - -> "1...*" section
answer "1" - -> "1...*" question
answer "1" - -> "1...*" customer

@enduml

PlantUML version 1.2022.5(Sat Apr 30 11:55:52 BST 2022)
(GPL source distribution)
Java Runtime: OpenJDK Runtime Environment
JVM: OpenJDK 64-Bit Server VM
Default Encoding: Cp1252
Language: en
Country: GB
--></g></svg>